<svg width="131" height="29" viewBox="0 0 131 29" fill="none" xmlns="http://www.w3.org/2000/svg">
<g clip-path="url(#clip0_3773_492)">
<path fill-rule="evenodd" clip-rule="evenodd" d="M26.6227 1.53356C26.8973 1.79666 27.1144 2.11271 27.2606 2.46217C27.4068 2.81162 27.4791 3.18704 27.4728 3.56522V3.63823C27.4696 4.00656 27.3929 4.37064 27.247 4.7095C27.1011 5.04837 26.889 5.35534 26.6227 5.61275C26.3569 5.88447 26.0375 6.09933 25.6844 6.24402C25.3313 6.38872 24.9519 6.46018 24.5698 6.45398C23.807 6.4583 23.0731 6.16533 22.5269 5.63841C21.9807 5.1115 21.6659 4.39298 21.6508 3.63823V3.56522C21.6445 3.18704 21.7167 2.81162 21.8629 2.46217C22.0091 2.11271 22.2262 1.79666 22.5008 1.53356C22.7704 1.26228 23.0927 1.04788 23.4483 0.903297C23.8039 0.758712 24.1854 0.686944 24.5698 0.692326C24.9519 0.686133 25.3313 0.757594 25.6844 0.902289C26.0375 1.04698 26.3569 1.26184 26.6227 1.53356Z" fill="#F41240"/>
<path fill-rule="evenodd" clip-rule="evenodd" d="M130.794 23.7707V28.453H116.472V3.5652H122.294V23.7707H130.794ZM102.759 3.5652L112.831 28.453H107.297L105.325 23.1199H95.0279L93.0391 28.453H87.6341L97.6743 3.5652H102.759ZM96.6318 18.7868H103.721L100.192 9.26337L96.6318 18.7868ZM78.2835 3.5652H84.0414V28.453H79.2619L66.7357 13.3584V28.453H60.9618V3.5652H65.7734L78.2835 18.6598V3.5652ZM45.9817 8.0412C44.8383 8.02617 43.702 8.21987 42.6296 8.6126C41.6584 8.97344 40.7736 9.53017 40.0314 10.2475C39.2918 10.958 38.7172 11.8191 38.3473 12.7712C37.947 13.8039 37.751 14.9032 37.7699 16.0091C37.7506 17.1099 37.9467 18.2041 38.3473 19.2312C38.7257 20.1836 39.299 21.0483 40.0314 21.7708C40.7604 22.4929 41.6347 23.0553 42.5975 23.4215C43.6585 23.8153 44.7845 24.0092 45.9175 23.9929C47.0584 23.9941 48.1914 23.8063 49.2696 23.4374C49.6722 23.2974 50.0636 23.1276 50.4404 22.9294V15.6282H55.7492V25.7071C54.311 26.7575 52.6992 27.5523 50.9858 28.0562C49.2359 28.5973 47.414 28.8756 45.5807 28.8816C43.7191 28.901 41.87 28.5781 40.1276 27.9292C38.504 27.3361 37.0157 26.4298 35.749 25.2627C34.5273 24.0994 33.5514 22.7074 32.8781 21.1676C32.1909 19.5339 31.8471 17.7787 31.8677 16.0091C31.865 15.2652 31.9207 14.5223 32.0345 13.787C32.5776 13.388 33.0901 12.9498 33.5678 12.4759C35.4639 10.6446 36.703 8.25007 37.0963 5.65717C38.0381 4.99936 39.0625 4.46579 40.1436 4.06994C41.9098 3.42802 43.7796 3.11066 45.6609 3.13347C47.7222 3.1273 49.7667 3.49862 51.6915 4.22866C52.2517 4.43295 52.7981 4.67259 53.3274 4.94609C53.5102 5.04133 53.847 5.23814 54.3378 5.53337V10.8506C53.5442 10.2711 52.7078 9.75114 51.8358 9.29511C51.2622 9.02426 50.6667 8.80127 50.0555 8.62847C49.403 8.44557 48.7385 8.30768 48.0667 8.21579C47.3771 8.10622 46.6801 8.04786 45.9817 8.0412ZM21.6511 15.8345C22.625 16.0497 23.6203 16.1562 24.6182 16.152C25.5776 16.1549 26.5346 16.057 27.4731 15.8599V28.453H21.6511V15.8345ZM17.4329 21.3644C17.415 22.6224 17.0727 23.8549 16.4385 24.9452C15.6954 26.287 14.5328 27.354 13.1249 27.9864C11.4926 28.7538 9.68483 29.0822 7.8835 28.9387C5.91395 28.8181 4.31543 28.4827 3.08794 27.9324C2.19535 27.5603 1.34753 27.0908 0.560249 26.5325V20.501C1.66638 21.5443 2.92917 22.4117 4.30367 23.0723C5.66802 23.7241 6.74796 24.0839 7.54348 24.1516C8.30789 24.2222 9.0789 24.1468 9.81455 23.9294C10.4171 23.7614 10.9611 23.4318 11.3863 22.9771C11.7117 22.5893 11.8878 22.1001 11.8835 21.5962C11.8929 21.2861 11.8273 20.9784 11.6923 20.6984C11.5573 20.4185 11.3567 20.1745 11.1073 19.9867C10.4922 19.5243 9.82082 19.1403 9.10885 18.8439C8.30371 18.4915 7.41196 18.1265 6.44002 17.7487C5.52689 17.398 4.64851 16.9644 3.81609 16.4535C3.06962 15.9947 2.40337 15.419 1.84334 14.7488C1.32445 14.1345 0.958571 13.4082 0.775166 12.6283C0.590709 11.8801 0.497024 11.1128 0.496094 10.3427C0.533001 9.40507 0.728158 8.48018 1.07348 7.6063C1.5175 6.49334 2.26072 5.52181 3.22266 4.79689C4.26197 3.96518 5.6862 3.48584 7.49536 3.34934C8.96691 3.23093 10.4478 3.30565 11.8996 3.57155C11.8795 5.37842 12.2537 7.16829 12.9966 8.81894C12.4684 8.58561 11.9251 8.3873 11.3703 8.22532C10.496 7.93348 9.57542 7.80118 8.65335 7.83486C8.1383 7.85506 7.63055 7.96243 7.15213 8.1523C6.89851 8.26721 6.67225 8.4338 6.48813 8.64117C6.33335 8.82506 6.20292 9.02775 6.1 9.24432C5.99372 9.48427 5.91621 9.7357 5.86904 9.99349C5.81188 10.3152 5.80108 10.6433 5.83696 10.9681C5.8786 11.2609 5.98426 11.5413 6.14658 11.7897C6.3089 12.038 6.52397 12.2484 6.77683 12.4061C7.38119 12.8422 8.05278 13.1788 8.76562 13.4029C9.50981 13.6484 10.4721 13.9954 11.6526 14.4441C12.717 14.823 13.7315 15.3271 14.6743 15.9456C15.5175 16.5375 16.1979 17.3287 16.6534 18.2471C17.1528 19.2128 17.4195 20.2797 17.4329 21.3644Z" fill="#F41240"/>
</g>
<defs>
<clipPath id="clip0_3773_492">
<rect width="130.298" height="28.2464" fill="white" transform="translate(0.496094 0.692322)"/>
</clipPath>
</defs>
</svg>
