<svg width="142" height="50" fill="none" xmlns="http://www.w3.org/2000/svg"><rect x=".289" width="140.714" height="50" rx="25" fill="#000"/><g clip-path="url(#clip0_202_2744)"><path d="M28.238 19.6H16.004v13.286h3.405v-4.323h6.525l2.977 4.323h3.813l-3.283-4.343c1.02-.159 1.754-.537 2.202-1.135.449-.598.673-1.554.673-2.829v-.995c0-.757-.081-1.355-.224-1.813a3.015 3.015 0 00-.734-1.215 3.337 3.337 0 00-1.264-.737c-.49-.14-1.102-.22-1.856-.22zm-.55 6.035h-8.279v-3.107h8.279c.469 0 .795.08.958.219.163.14.265.398.265.777v1.115c0 .399-.102.658-.265.797-.163.14-.49.2-.958.2zm10.103 3.327V19.6h-3.307v9.282c0 .757.06 1.374.198 1.832.139.479.377.877.733 1.216.337.358.733.597 1.208.736.475.16 1.069.22 1.821.22h7.92c.733 0 1.327-.06 1.802-.22a2.79 2.79 0 001.228-.736c.336-.34.574-.738.713-1.216.138-.458.217-1.075.217-1.832V19.6h-3.306v9.362c0 .398-.1.657-.258.796-.158.14-.475.2-.93.2h-6.851c-.475 0-.792-.06-.95-.2-.159-.139-.238-.398-.238-.796zm23.839 3.924V22.528h6.294V19.6h-15.84v2.928h6.293v10.358h3.254zm11.36-3.924V19.6h-3.306v9.282c0 .757.06 1.374.198 1.832.138.479.376.877.732 1.216.337.358.733.597 1.208.736.475.16 1.07.22 1.822.22h7.92c.732 0 1.326-.06 1.801-.22a2.79 2.79 0 001.228-.736c.337-.34.574-.738.713-1.216.138-.458.218-1.075.218-1.832V19.6h-3.307v9.362c0 .398-.099.657-.257.796-.159.14-.476.2-.931.2h-6.85c-.476 0-.793-.06-.951-.2-.159-.139-.238-.398-.238-.796zm29.481-5.498v-.259c0-1.235-.317-2.151-.952-2.729-.634-.577-1.645-.876-2.993-.876h-11.24v13.286H99.18c1.348 0 2.359-.28 2.994-.857.634-.578.951-1.494.951-2.729v-.279c0-1.235-.317-2.111-.951-2.629-.119-.08-.239-.14-.357-.2a5.055 5.055 0 00-.516-.218c.436-.24.734-.558.912-.916.159-.359.258-.897.258-1.594zm-11.875 1.454v-2.39h7.394c.476 0 .794.08.952.219.159.14.238.398.238.777v.398c0 .399-.08.657-.238.797-.158.14-.476.2-.952.2h-7.394zm0 5.04v-2.39h8.068c.457 0 .774.079.932.218.159.14.258.399.258.777v.399c0 .398-.1.657-.258.796-.158.14-.475.2-.932.2h-8.068zm17.665-7.43h11.038V19.6h-14.414v13.286h14.96v-2.929h-11.584v-2.25h10.775l.263-2.928h-11.038v-2.251z" fill="#FBFBFB"/><path d="M123.085 18.938a2.316 2.316 0 002.305-2.326 2.316 2.316 0 00-2.305-2.326 2.316 2.316 0 00-2.306 2.326 2.316 2.316 0 002.306 2.326z" fill="#F41240"/></g><defs><clipPath id="clip0_202_2744"><path fill="#fff" transform="translate(16.004 14.286)" d="M0 0h110v22.143H0z"/></clipPath></defs></svg>