<svg width="1920" height="266" fill="none" xmlns="http://www.w3.org/2000/svg"><path fill="#fff" d="M-187.362 255.531L2333.472 79.257l-4.813-68.832L-192.175 186.7z"/><g clip-path="url(#clip0_185_2330)"><path fill-rule="evenodd" clip-rule="evenodd" d="M57.833 219.501l.584 8.341-25.514 1.784-3.1-44.334 10.37-.726 2.518 35.994 15.142-1.059zM5.375 187l21.042 43.079-9.857.69-4.178-9.255-18.342 1.283-2.879 9.748-9.628.673 14.785-45.585L5.375 187zm-9.018 27.878l12.628-.883-7.472-16.525-5.156 17.408zm-34.581-24.829l10.257-.718 3.1 44.335-8.514.595-24.194-25.329 1.88 26.889-10.285.72-3.1-44.335 8.57-.599 24.166 25.331-1.88-26.889zm-56.984 11.997a16.758 16.758 0 00-5.9 1.435 13.393 13.393 0 00-4.425 3.236 12.55 12.55 0 00-2.685 4.705 15.255 15.255 0 00-.625 5.84 15.098 15.098 0 001.429 5.668 13.233 13.233 0 003.317 4.314 13.14 13.14 0 004.777 2.621c1.939.57 3.969.774 5.985.604a18.42 18.42 0 005.902-1.407c.7-.299 1.376-.65 2.022-1.05l-.91-13.007 9.458-.661 1.255 17.954a27.631 27.631 0 01-8.193 4.778 33.034 33.034 0 01-9.525 2.144 27.128 27.128 0 01-9.833-1.017 23.392 23.392 0 01-8.132-4.205 22.603 22.603 0 01-5.624-6.937 23.047 23.047 0 01-2.442-9.064 25.291 25.291 0 01.02-3.979 24.307 24.307 0 002.568-2.526 21.4 21.4 0 005.436-12.586 23.717 23.717 0 015.231-3.207 27.851 27.851 0 019.712-2.356 30.1 30.1 0 0110.878 1.2c1.024.294 2.027.653 3.004 1.074.338.147.962.456 1.873.92l.663 9.472a35.464 35.464 0 00-4.651-2.459 20.562 20.562 0 00-3.255-.966 26.509 26.509 0 00-3.594-.487 25.184 25.184 0 00-3.736-.051zm-42.371 16.913c1.762.262 3.548.328 5.325.196a24.433 24.433 0 005.05-.876l1.568 22.433-10.371.725-1.572-22.478zm-6.825 10.376a13.083 13.083 0 01-1.325 6.503 12.713 12.713 0 01-5.524 5.83 18.54 18.54 0 01-9.218 2.349c-3.524.031-6.413-.368-8.668-1.195a23.231 23.231 0 01-4.678-2.179l-.751-10.744a26.418 26.418 0 006.989 4.114c2.511.991 4.48 1.498 5.906 1.519 1.37.031 2.734-.2 4.017-.679a6.073 6.073 0 002.682-1.892 3.782 3.782 0 00.713-2.522 3.455 3.455 0 00-1.583-2.77 16.508 16.508 0 00-3.702-1.787 124.736 124.736 0 00-4.891-1.618 28.418 28.418 0 01-4.835-1.981 14.445 14.445 0 01-3.727-2.791 9.092 9.092 0 01-2.167-3.644 17.199 17.199 0 01-.782-4.037 14.895 14.895 0 01.688-4.946 11.715 11.715 0 013.479-5.272c1.747-1.611 4.225-2.643 7.431-3.111a30.21 30.21 0 017.873-.153 22.223 22.223 0 002.608 9.211c-.97-.35-1.963-.636-2.971-.855a13.74 13.74 0 00-4.889-.357c-.915.1-1.806.355-2.635.752a3.553 3.553 0 00-1.121.954c-.253.347-.46.724-.617 1.123-.159.44-.266.898-.318 1.363-.062.58-.04 1.166.064 1.74.111.517.334 1.003.654 1.425.32.422.73.77 1.2 1.02a12.48 12.48 0 003.667 1.528c1.356.344 3.113.843 5.272 1.495a25.327 25.327 0 015.57 2.298 10.988 10.988 0 013.812 3.853 12.452 12.452 0 011.777 5.456z" fill="#283238"/></g><g clip-path="url(#clip1_185_2330)" fill-rule="evenodd" clip-rule="evenodd"><path d="M151.986 173.111a4.922 4.922 0 011.767 3.513l.009.13a4.944 4.944 0 01-1.268 3.623 5.003 5.003 0 01-3.552 1.755 5.215 5.215 0 01-3.741-1.199 5.102 5.102 0 01-1.81-3.454l-.009-.13a4.925 4.925 0 011.261-3.725 5.095 5.095 0 013.581-1.756 5.026 5.026 0 013.762 1.243z" fill="#EB5C60"/><path d="M340.323 199.747l.584 8.341-25.514 1.784-3.1-44.334 10.371-.725 2.517 35.993 15.142-1.059zm-52.458-32.501l21.043 43.08-9.857.689-4.179-9.255-18.342 1.283-2.879 9.748-9.628.673 14.785-45.585 9.057-.633zm-9.018 27.878l12.628-.883-7.471-16.525-5.157 17.408zm-34.581-24.829l10.257-.718 3.1 44.335-8.514.595-24.194-25.329 1.88 26.889-10.285.72-3.1-44.335 8.571-.599 24.165 25.331-1.88-26.889zm-56.984 11.997a16.763 16.763 0 00-5.9 1.435 13.379 13.379 0 00-4.424 3.236 12.552 12.552 0 00-2.686 4.705 15.274 15.274 0 00-.625 5.84 15.08 15.08 0 001.43 5.668 13.217 13.217 0 003.316 4.314 13.146 13.146 0 004.777 2.621 16.33 16.33 0 005.985.604 18.417 18.417 0 005.902-1.407c.7-.299 1.376-.65 2.023-1.05l-.91-13.007 9.457-.661 1.256 17.954a27.648 27.648 0 01-8.193 4.778 33.04 33.04 0 01-9.526 2.144 27.106 27.106 0 01-9.833-1.017 23.362 23.362 0 01-8.131-4.205 22.606 22.606 0 01-5.625-6.937 23.064 23.064 0 01-2.442-9.063 25.303 25.303 0 01.02-3.98 24.307 24.307 0 002.568-2.526 21.382 21.382 0 005.436-12.586 23.755 23.755 0 015.231-3.207 27.85 27.85 0 019.712-2.356 30.105 30.105 0 0110.879 1.2c1.023.294 2.026.653 3.003 1.074.338.147.962.456 1.873.92l.663 9.472a35.479 35.479 0 00-4.651-2.459 20.577 20.577 0 00-3.254-.966 26.544 26.544 0 00-3.595-.487 25.322 25.322 0 00-3.736-.051zm-42.371 16.913c1.762.262 3.548.328 5.326.196a24.423 24.423 0 005.049-.876l1.568 22.433-10.371.725-1.572-22.478zm-6.825 10.376a13.083 13.083 0 01-1.325 6.503 12.713 12.713 0 01-5.524 5.83 18.54 18.54 0 01-9.218 2.35c-3.524.03-6.413-.368-8.668-1.196a23.223 23.223 0 01-4.677-2.179l-.752-10.744a26.407 26.407 0 006.989 4.114c2.512.991 4.48 1.498 5.906 1.519 1.37.031 2.734-.2 4.018-.678a6.086 6.086 0 002.681-1.893 3.788 3.788 0 00.714-2.522 3.444 3.444 0 00-.453-1.575 3.487 3.487 0 00-1.131-1.195 16.508 16.508 0 00-3.702-1.787 125.215 125.215 0 00-4.89-1.618 28.473 28.473 0 01-4.836-1.98 14.484 14.484 0 01-3.727-2.791 9.094 9.094 0 01-2.166-3.645 17.097 17.097 0 01-.782-4.037 14.898 14.898 0 01.687-4.946 11.731 11.731 0 013.479-5.272c1.748-1.611 4.225-2.643 7.431-3.111a30.21 30.21 0 017.873-.153 22.223 22.223 0 002.608 9.211c-.97-.35-1.963-.635-2.971-.855a13.739 13.739 0 00-4.889-.357 8.14 8.14 0 00-2.634.752c-.438.237-.82.562-1.122.954-.253.347-.46.724-.617 1.123-.159.44-.266.898-.318 1.363-.061.58-.04 1.166.065 1.74.11.517.333 1.003.654 1.425.32.422.729.77 1.199 1.02a12.48 12.48 0 003.667 1.528c1.356.344 3.114.843 5.272 1.495a25.287 25.287 0 015.57 2.298 10.98 10.98 0 013.812 3.853 12.452 12.452 0 011.777 5.456z" fill="#283238"/></g><g clip-path="url(#clip2_185_2330)" fill-rule="evenodd" clip-rule="evenodd"><path d="M434.478 153.357c.522.435.948.971 1.252 1.575.304.604.479 1.264.515 1.938l.009.13a4.944 4.944 0 01-1.268 3.624 5 5 0 01-1.593 1.241 5.039 5.039 0 01-1.959.513 5.215 5.215 0 01-3.741-1.198 5.106 5.106 0 01-1.81-3.454l-.009-.13a4.927 4.927 0 011.261-3.725 5.088 5.088 0 011.61-1.241 5.135 5.135 0 011.971-.516 5.061 5.061 0 012.012.235 4.99 4.99 0 011.75 1.008z" fill="#EB5C60"/><path d="M622.816 179.993l.583 8.341-25.514 1.784-3.1-44.334 10.371-.725 2.517 35.993 15.143-1.059zm-52.459-32.501l21.043 43.08-9.857.689-4.179-9.254-18.342 1.282-2.878 9.748-9.629.674 14.785-45.585 9.057-.634zm-9.018 27.879l12.629-.883-7.472-16.526-5.157 17.409zm-34.581-24.83l10.257-.717 3.1 44.334-8.514.595-24.194-25.328 1.881 26.889-10.286.719-3.1-44.334 8.571-.6 24.166 25.331-1.881-26.889zm-56.983 11.997a16.774 16.774 0 00-5.9 1.435 13.383 13.383 0 00-4.425 3.236 12.57 12.57 0 00-2.686 4.706 15.29 15.29 0 00-.625 5.84 15.094 15.094 0 001.43 5.667 13.234 13.234 0 003.316 4.315 13.159 13.159 0 004.777 2.62c1.939.57 3.969.775 5.985.605a18.437 18.437 0 005.902-1.407c.7-.3 1.376-.651 2.023-1.051l-.91-13.006 9.457-.661 1.256 17.954a27.657 27.657 0 01-8.193 4.778 33.038 33.038 0 01-9.526 2.143 27.079 27.079 0 01-9.832-1.017 23.35 23.35 0 01-8.132-4.205 22.606 22.606 0 01-5.625-6.937 23.072 23.072 0 01-2.442-9.063 25.29 25.29 0 01.02-3.979 24.413 24.413 0 002.568-2.527 21.382 21.382 0 005.436-12.586 23.816 23.816 0 015.231-3.207 27.854 27.854 0 019.712-2.355 30.126 30.126 0 0110.879 1.199c1.023.294 2.027.653 3.003 1.075.338.146.963.455 1.874.92l.662 9.472a35.24 35.24 0 00-4.651-2.459 20.368 20.368 0 00-3.254-.966 26.353 26.353 0 00-3.594-.488 25.323 25.323 0 00-3.736-.051zm-42.371 16.914c1.761.262 3.548.327 5.325.195a24.422 24.422 0 005.049-.875l1.569 22.432-10.371.726-1.572-22.478zm-6.826 10.376a13.08 13.08 0 01-1.325 6.502 12.704 12.704 0 01-5.524 5.83 18.538 18.538 0 01-9.218 2.35c-3.524.03-6.413-.368-8.668-1.195a23.358 23.358 0 01-4.677-2.179l-.751-10.745a26.416 26.416 0 006.988 4.115c2.512.991 4.48 1.497 5.906 1.519 1.37.03 2.734-.2 4.018-.679a6.084 6.084 0 002.681-1.892 3.791 3.791 0 00.714-2.522 3.445 3.445 0 00-.453-1.576 3.49 3.49 0 00-1.13-1.194 16.45 16.45 0 00-3.703-1.787 123.474 123.474 0 00-4.89-1.619 28.506 28.506 0 01-4.836-1.98 14.462 14.462 0 01-3.726-2.791 9.099 9.099 0 01-2.167-3.644 17.097 17.097 0 01-.782-4.037 14.875 14.875 0 01.688-4.947 11.721 11.721 0 013.478-5.272c1.748-1.611 4.225-2.642 7.431-3.111a30.254 30.254 0 017.873-.153 22.234 22.234 0 002.608 9.211 23.5 23.5 0 00-2.971-.855 13.735 13.735 0 00-4.888-.357c-.915.1-1.807.355-2.635.753a3.53 3.53 0 00-1.122.953 4.99 4.99 0 00-.616 1.123c-.16.441-.267.898-.318 1.363a6.076 6.076 0 00.064 1.74c.11.517.334 1.003.654 1.426.32.422.729.77 1.199 1.019a12.426 12.426 0 003.667 1.528c1.356.345 3.114.843 5.273 1.495a25.254 25.254 0 015.569 2.299 10.983 10.983 0 013.813 3.853 12.447 12.447 0 011.776 5.456z" fill="#283238"/></g><g clip-path="url(#clip3_185_2330)" fill-rule="evenodd" clip-rule="evenodd"><path d="M716.968 133.603c.522.435.948.971 1.252 1.575.304.604.48 1.264.516 1.939l.009.13a4.943 4.943 0 01-.269 1.936 4.982 4.982 0 01-1 1.687 5.022 5.022 0 01-3.552 1.754 5.215 5.215 0 01-3.741-1.198 5.107 5.107 0 01-1.809-3.454l-.01-.13a4.928 4.928 0 011.262-3.725 5.116 5.116 0 013.58-1.756 5.026 5.026 0 013.762 1.242z" fill="#EB5C60"/><path d="M905.306 160.24l.583 8.341-25.513 1.784-3.101-44.335 10.372-.725 2.516 35.994 15.143-1.059zm-52.459-32.501l21.043 43.079-9.857.689-4.178-9.254-18.343 1.283-2.878 9.748-9.628.673 14.785-45.585 9.056-.633zm-9.017 27.878l12.628-.883-7.472-16.525-5.156 17.408zm-34.581-24.83l10.257-.717 3.1 44.334-8.514.596-24.194-25.329 1.88 26.889-10.286.719-3.1-44.334 8.572-.599 24.165 25.33-1.88-26.889zm-56.984 11.997a16.776 16.776 0 00-5.9 1.436 13.393 13.393 0 00-4.425 3.236 12.566 12.566 0 00-2.686 4.705 15.292 15.292 0 00-.625 5.84 15.104 15.104 0 001.43 5.668 13.255 13.255 0 008.093 6.935c1.939.569 3.969.774 5.986.604a18.45 18.45 0 005.902-1.407 15.26 15.26 0 002.022-1.051l-.909-13.006 9.456-.661 1.256 17.954a27.645 27.645 0 01-8.193 4.778 33.033 33.033 0 01-9.525 2.144 27.107 27.107 0 01-9.833-1.018 23.373 23.373 0 01-8.132-4.204 22.603 22.603 0 01-5.624-6.937 23.065 23.065 0 01-2.443-9.064 25.29 25.29 0 01.021-3.979 24.5 24.5 0 002.568-2.526 21.4 21.4 0 005.436-12.587 23.786 23.786 0 015.23-3.207 27.882 27.882 0 019.712-2.355c3.671-.268 7.36.139 10.879 1.2 1.024.294 2.027.653 3.004 1.074.337.147.962.455 1.873.92l.662 9.472a35.416 35.416 0 00-4.651-2.459 20.545 20.545 0 00-3.254-.966 26.508 26.508 0 00-3.594-.487 25.185 25.185 0 00-3.736-.052zm-42.371 16.914c1.762.262 3.548.328 5.325.196a24.423 24.423 0 005.049-.876l1.569 22.433-10.371.725-1.572-22.478zm-6.825 10.376a13.097 13.097 0 01-1.326 6.503 12.708 12.708 0 01-5.524 5.83 18.548 18.548 0 01-9.218 2.349c-3.523.031-6.413-.368-8.668-1.195a23.358 23.358 0 01-4.677-2.179l-.751-10.744a26.456 26.456 0 006.988 4.114c2.512.991 4.481 1.497 5.906 1.519 1.371.031 2.735-.2 4.018-.679a6.065 6.065 0 002.681-1.892 3.779 3.779 0 00.714-2.522 3.455 3.455 0 00-1.583-2.77 16.465 16.465 0 00-3.702-1.787 124.176 124.176 0 00-4.891-1.618 28.544 28.544 0 01-4.836-1.981 14.457 14.457 0 01-3.726-2.791 9.092 9.092 0 01-2.167-3.644 17.148 17.148 0 01-.782-4.037 14.891 14.891 0 01.688-4.946 11.73 11.73 0 013.478-5.273c1.748-1.611 4.225-2.642 7.431-3.11a30.167 30.167 0 017.873-.153 22.238 22.238 0 002.608 9.211c-.97-.35-1.962-.636-2.971-.855a13.735 13.735 0 00-4.888-.357c-.915.1-1.806.354-2.635.752a3.53 3.53 0 00-1.122.954c-.253.347-.46.724-.616 1.122a5.931 5.931 0 00-.254 3.104 3.619 3.619 0 001.853 2.444 12.437 12.437 0 003.667 1.528c1.357.345 3.114.843 5.273 1.495a25.33 25.33 0 015.57 2.299 10.996 10.996 0 013.812 3.853 12.452 12.452 0 011.777 5.456z" fill="#283238"/></g><g clip-path="url(#clip4_185_2330)" fill-rule="evenodd" clip-rule="evenodd"><path d="M999.46 113.85c.522.434.95.97 1.25 1.575.31.604.48 1.264.52 1.938l.01.13a4.91 4.91 0 01-.27 1.937 5.046 5.046 0 01-1.001 1.686 5.003 5.003 0 01-3.553 1.755 5.212 5.212 0 01-3.74-1.199 5.102 5.102 0 01-1.81-3.454l-.009-.13a4.877 4.877 0 01.24-1.991 4.928 4.928 0 011.021-1.734 5.084 5.084 0 011.609-1.241 5.134 5.134 0 011.972-.515 5.02 5.02 0 013.761 1.243z" fill="#EB5C60"/><path d="M1187.8 140.486l.58 8.341-25.51 1.784-3.1-44.334 10.37-.725 2.52 35.993 15.14-1.059zm-52.46-32.501l21.04 43.08-9.85.689-4.18-9.255-18.35 1.283-2.87 9.748-9.63.673 14.78-45.585 9.06-.633zm-9.02 27.878l12.63-.883-7.47-16.525-5.16 17.408zm-34.58-24.829l10.26-.718 3.1 44.335-8.52.595-24.19-25.329 1.88 26.889-10.29.72-3.1-44.335 8.58-.599 24.16 25.331-1.88-26.889zm-56.98 11.997c-2.04.115-4.04.602-5.9 1.435-1.69.764-3.2 1.866-4.43 3.236a12.525 12.525 0 00-2.68 4.705 15.2 15.2 0 00-.63 5.84c.1 1.964.59 3.888 1.43 5.668.79 1.65 1.92 3.118 3.32 4.314a13.133 13.133 0 004.77 2.621c1.94.57 3.97.775 5.99.604 2.03-.14 4.03-.615 5.9-1.407.7-.299 1.38-.65 2.02-1.05l-.91-13.007 9.46-.661 1.26 17.954a27.646 27.646 0 01-8.2 4.778 33.037 33.037 0 01-9.52 2.144c-3.32.266-6.65-.078-9.83-1.017a23.446 23.446 0 01-8.14-4.205 22.59 22.59 0 01-5.62-6.937 22.96 22.96 0 01-2.44-9.063c-.1-1.325-.09-2.656.02-3.98.92-.778 1.77-1.622 2.57-2.526a21.393 21.393 0 005.43-12.586 24.045 24.045 0 015.23-3.207 27.888 27.888 0 019.71-2.356c3.68-.268 7.36.139 10.88 1.2 1.03.294 2.03.653 3.01 1.074.33.147.96.456 1.87.92l.66 9.472a35.09 35.09 0 00-4.65-2.459 20.345 20.345 0 00-3.25-.966 26.66 26.66 0 00-3.6-.487 25.246 25.246 0 00-3.73-.051zm-42.374 16.913c1.762.262 3.548.328 5.325.196a24.447 24.447 0 005.049-.876l1.57 22.433-10.372.725-1.572-22.478zm-6.825 10.376a13.092 13.092 0 01-1.325 6.503 12.713 12.713 0 01-5.524 5.83 18.545 18.545 0 01-9.219 2.35c-3.523.03-6.412-.368-8.668-1.196a23.248 23.248 0 01-4.677-2.179l-.751-10.744a26.391 26.391 0 006.989 4.114c2.511.991 4.48 1.498 5.905 1.519 1.371.031 2.735-.2 4.018-.678a6.083 6.083 0 002.682-1.893 3.781 3.781 0 00.713-2.521 3.456 3.456 0 00-1.583-2.771 16.508 16.508 0 00-3.702-1.787 124.736 124.736 0 00-4.891-1.618 28.496 28.496 0 01-4.835-1.98 14.467 14.467 0 01-3.727-2.791 9.096 9.096 0 01-2.167-3.645 17.148 17.148 0 01-.782-4.037 14.899 14.899 0 01.688-4.946 11.715 11.715 0 013.479-5.272c1.747-1.611 4.225-2.643 7.43-3.111a30.217 30.217 0 017.874-.153 22.222 22.222 0 002.607 9.211 23.5 23.5 0 00-2.971-.855 13.733 13.733 0 00-4.888-.357c-.915.1-1.806.355-2.635.752-.437.237-.82.562-1.122.954a5.03 5.03 0 00-.616 1.123c-.159.44-.266.898-.318 1.363-.062.58-.04 1.166.064 1.74.111.517.334 1.003.654 1.425.32.422.73.77 1.2 1.02a12.48 12.48 0 003.667 1.528c1.356.344 3.113.843 5.272 1.495a25.327 25.327 0 015.57 2.298 10.996 10.996 0 013.812 3.853 12.457 12.457 0 011.777 5.456z" fill="#283238"/></g><g clip-path="url(#clip5_185_2330)" fill-rule="evenodd" clip-rule="evenodd"><path d="M1281.95 94.096c.52.435.95.97 1.25 1.575.31.604.48 1.264.52 1.938l.01.13a4.91 4.91 0 01-.27 1.937 5.064 5.064 0 01-1 1.687 4.999 4.999 0 01-3.55 1.754 5.197 5.197 0 01-3.74-1.198 5.098 5.098 0 01-1.81-3.454l-.01-.13c-.06-.673.02-1.351.24-1.992.21-.64.56-1.23 1.02-1.733a4.97 4.97 0 011.61-1.241 5.075 5.075 0 011.97-.516 5.04 5.04 0 012.01.236c.65.213 1.24.556 1.75 1.007z" fill="#EB5C60"/><path d="M1470.29 120.732l.58 8.341-25.51 1.784-3.1-44.334 10.37-.725 2.52 35.993 15.14-1.059zm-52.46-32.5l21.04 43.079-9.85.689-4.18-9.254-18.35 1.282-2.87 9.748-9.63.674 14.78-45.585 9.06-.634zm-9.02 27.878l12.63-.883-7.47-16.526-5.16 17.409zm-34.58-24.83l10.26-.717 3.1 44.334-8.52.595-24.19-25.328 1.88 26.889-10.29.719-3.1-44.334 8.58-.6 24.16 25.331-1.88-26.889zm-56.98 11.997c-2.04.116-4.04.602-5.9 1.435a13.433 13.433 0 00-4.43 3.236 12.53 12.53 0 00-2.68 4.706c-.59 1.889-.8 3.872-.63 5.84.1 1.963.59 3.888 1.43 5.667.79 1.65 1.92 3.119 3.32 4.315a13.163 13.163 0 004.77 2.621c1.94.569 3.97.774 5.99.604a18.42 18.42 0 005.9-1.407c.7-.3 1.38-.651 2.02-1.051l-.91-13.006 9.46-.661 1.26 17.954a27.667 27.667 0 01-8.2 4.778 33.036 33.036 0 01-9.52 2.143c-3.31.267-6.65-.078-9.83-1.017a23.43 23.43 0 01-8.14-4.205 22.59 22.59 0 01-5.62-6.937 22.951 22.951 0 01-2.44-9.063 25.17 25.17 0 01.02-3.979c.92-.779 1.77-1.623 2.57-2.527a21.393 21.393 0 005.43-12.586c1.6-1.29 3.36-2.367 5.23-3.207a27.891 27.891 0 019.71-2.355 30.1 30.1 0 0110.88 1.2c1.03.293 2.03.652 3.01 1.073.33.147.96.456 1.87.92l.66 9.473a34.857 34.857 0 00-4.65-2.459 20.14 20.14 0 00-3.25-.966 26.503 26.503 0 00-3.6-.488 25.246 25.246 0 00-3.73-.051zm-42.37 16.914c1.76.262 3.54.327 5.32.195 1.71-.114 3.4-.407 5.05-.875l1.57 22.432-10.37.726-1.57-22.478zm-6.83 10.376c.13 2.243-.33 4.481-1.32 6.502a12.732 12.732 0 01-5.53 5.83 18.532 18.532 0 01-9.22 2.35c-3.52.03-6.41-.368-8.66-1.195a23.23 23.23 0 01-4.68-2.179l-.75-10.745a26.443 26.443 0 006.99 4.115c2.51.991 4.48 1.497 5.9 1.519 1.37.03 2.74-.2 4.02-.679a6.078 6.078 0 002.68-1.892c.53-.732.78-1.625.71-2.522a3.37 3.37 0 00-.45-1.576 3.416 3.416 0 00-1.13-1.194 16.449 16.449 0 00-3.7-1.787c-1.48-.528-3.11-1.067-4.89-1.619a28.682 28.682 0 01-4.84-1.98 14.535 14.535 0 01-3.72-2.791 9.071 9.071 0 01-2.17-3.644 17.35 17.35 0 01-.78-4.037c-.05-1.675.18-3.347.69-4.947a11.713 11.713 0 013.47-5.272c1.75-1.611 4.23-2.642 7.43-3.11 2.61-.395 5.26-.446 7.88-.154a22.221 22.221 0 002.61 9.211c-.97-.35-1.97-.635-2.98-.855a13.697 13.697 0 00-4.88-.357c-.92.1-1.81.355-2.64.753a3.48 3.48 0 00-1.12.953c-.25.347-.46.725-.62 1.123-.16.441-.26.898-.31 1.363a5.97 5.97 0 00.06 1.74 3.601 3.601 0 001.85 2.445 12.41 12.41 0 003.67 1.528c1.36.345 3.11.843 5.27 1.495 1.95.542 3.82 1.314 5.57 2.299 1.58.949 2.89 2.273 3.81 3.853a12.465 12.465 0 011.78 5.456z" fill="#283238"/></g><g clip-path="url(#clip6_185_2330)" fill-rule="evenodd" clip-rule="evenodd"><path d="M1564.44 74.343c.52.434.95.97 1.25 1.574.31.605.48 1.264.52 1.939l.01.13c.04.656-.05 1.314-.27 1.936a5.063 5.063 0 01-1 1.687 4.995 4.995 0 01-3.55 1.754 5.21 5.21 0 01-3.74-1.198 5.096 5.096 0 01-1.81-3.454l-.01-.13a4.925 4.925 0 011.26-3.725 5.117 5.117 0 013.58-1.756c.68-.059 1.37.021 2.01.235a4.9 4.9 0 011.75 1.008z" fill="#EB5C60"/><path d="M1752.78 100.979l.58 8.341-25.51 1.784-3.1-44.335 10.37-.725 2.52 35.994 15.14-1.059zm-52.46-32.501l21.04 43.079-9.85.689-4.18-9.254-18.34 1.283-2.88 9.748-9.63.673 14.79-45.585 9.05-.633zm-9.02 27.878l12.63-.883-7.47-16.525-5.16 17.408zm-34.58-24.83l10.26-.717 3.1 44.334-8.51.596-24.2-25.329 1.88 26.889-10.28.719-3.1-44.334 8.57-.6 24.16 25.331-1.88-26.889zm-56.98 11.997c-2.04.116-4.04.603-5.9 1.436a13.427 13.427 0 00-4.43 3.236 12.662 12.662 0 00-2.68 4.705c-.59 1.89-.8 3.872-.63 5.84.11 1.963.59 3.888 1.43 5.668.8 1.649 1.93 3.118 3.32 4.314a13.175 13.175 0 004.78 2.621c1.94.569 3.97.774 5.98.604 2.03-.14 4.03-.615 5.9-1.407.7-.299 1.38-.651 2.03-1.051l-.91-13.006 9.45-.661 1.26 17.954a27.617 27.617 0 01-8.19 4.778 33.029 33.029 0 01-9.53 2.144c-3.31.266-6.65-.079-9.83-1.018a23.312 23.312 0 01-8.13-4.204 22.622 22.622 0 01-5.63-6.937 22.96 22.96 0 01-2.44-9.064 25.17 25.17 0 01.02-3.979c.92-.778 1.78-1.623 2.57-2.526a21.333 21.333 0 005.43-12.587 23.876 23.876 0 015.24-3.207 27.784 27.784 0 019.71-2.355c3.67-.268 7.36.139 10.88 1.2 1.02.294 2.02.653 3 1.074.34.147.96.455 1.87.92l.66 9.472a34.998 34.998 0 00-4.65-2.46 20.303 20.303 0 00-3.25-.965 26.652 26.652 0 00-3.59-.487c-1.25-.11-2.5-.127-3.74-.052zm-42.37 16.914c1.76.262 3.55.328 5.32.196a24.34 24.34 0 005.05-.876l1.57 22.433-10.37.725-1.57-22.478zm-6.83 10.376a13.07 13.07 0 01-1.32 6.503 12.741 12.741 0 01-5.53 5.83 18.531 18.531 0 01-9.21 2.349c-3.53.031-6.42-.368-8.67-1.195a23.23 23.23 0 01-4.68-2.179l-.75-10.744c2.1 1.72 4.46 3.108 6.99 4.114 2.51.991 4.48 1.497 5.9 1.519 1.37.031 2.74-.2 4.02-.679a6.078 6.078 0 002.68-1.892 3.8 3.8 0 00.72-2.522 3.502 3.502 0 00-.46-1.575 3.41 3.41 0 00-1.13-1.195 16.287 16.287 0 00-3.7-1.787c-1.48-.527-3.11-1.067-4.89-1.618a28.169 28.169 0 01-4.83-1.981 14.392 14.392 0 01-3.73-2.791 9.18 9.18 0 01-2.17-3.644 17.35 17.35 0 01-.78-4.037c-.05-1.675.18-3.347.69-4.946a11.655 11.655 0 013.48-5.273c1.74-1.61 4.22-2.642 7.43-3.11 2.6-.395 5.25-.446 7.87-.153a22.223 22.223 0 002.61 9.21 23.27 23.27 0 00-2.97-.854c-1.6-.411-3.25-.532-4.89-.357-.92.1-1.81.354-2.64.752-.43.236-.82.561-1.12.954-.25.347-.46.724-.61 1.123-.16.44-.27.898-.32 1.363a6.34 6.34 0 00.06 1.74c.11.516.34 1.003.66 1.425.32.422.72.77 1.2 1.02 1.13.701 2.36 1.217 3.66 1.527 1.36.345 3.12.843 5.27 1.496 1.95.542 3.82 1.313 5.57 2.298a11.01 11.01 0 013.82 3.853 12.456 12.456 0 011.77 5.456z" fill="#283238"/></g><g clip-path="url(#clip7_185_2330)" fill-rule="evenodd" clip-rule="evenodd"><path d="M1846.93 54.589c.52.434.95.97 1.26 1.574.3.605.47 1.264.51 1.939l.01.13c.04.656-.05 1.315-.27 1.936a5.063 5.063 0 01-1 1.687 4.995 4.995 0 01-3.55 1.754 5.21 5.21 0 01-3.74-1.198 5.096 5.096 0 01-1.81-3.454l-.01-.13a4.925 4.925 0 011.26-3.725 5.06 5.06 0 011.61-1.24 5.166 5.166 0 011.97-.516c.68-.059 1.37.021 2.01.235a4.9 4.9 0 011.75 1.008z" fill="#EB5C60"/><path d="M2035.27 81.225l.58 8.34-25.51 1.785-3.1-44.334 10.37-.726 2.52 35.994 15.14-1.06zm-52.46-32.501l21.04 43.08-9.85.689-4.18-9.255-18.34 1.283-2.88 9.748-9.63.673 14.79-45.585 9.05-.633zm-9.02 27.878l12.63-.883-7.47-16.525-5.16 17.408zm-34.58-24.83l10.26-.717 3.1 44.334-8.51.596-24.2-25.329 1.88 26.89-10.28.718-3.1-44.334 8.57-.6 24.16 25.331-1.88-26.889zm-56.98 11.998c-2.04.115-4.04.602-5.9 1.435a13.427 13.427 0 00-4.43 3.236 12.662 12.662 0 00-2.68 4.705c-.59 1.89-.8 3.872-.63 5.84.11 1.963.59 3.888 1.43 5.668.8 1.65 1.93 3.118 3.32 4.314a13.185 13.185 0 004.78 2.62c1.94.57 3.97.775 5.98.605 2.03-.14 4.03-.615 5.9-1.407.7-.3 1.38-.65 2.03-1.05l-.91-13.007 9.45-.661 1.26 17.954a27.613 27.613 0 01-8.19 4.778 33.032 33.032 0 01-9.53 2.144 27.11 27.11 0 01-9.83-1.017 23.313 23.313 0 01-8.13-4.205 22.623 22.623 0 01-5.63-6.937 22.957 22.957 0 01-2.44-9.064c-.1-1.324-.09-2.655.02-3.979a24.02 24.02 0 002.57-2.526 21.333 21.333 0 005.43-12.586c1.6-1.29 3.36-2.368 5.24-3.208a27.784 27.784 0 019.71-2.355c3.67-.268 7.36.139 10.88 1.2 1.02.294 2.02.653 3 1.074.34.147.96.456 1.87.92l.66 9.472a34.998 34.998 0 00-4.65-2.459 20.303 20.303 0 00-3.25-.966 26.652 26.652 0 00-3.59-.487c-1.25-.11-2.5-.127-3.74-.051zm-42.37 16.913c1.76.262 3.55.328 5.32.196a24.34 24.34 0 005.05-.876l1.57 22.433-10.37.725-1.57-22.478zm-6.83 10.376a13.07 13.07 0 01-1.32 6.503 12.74 12.74 0 01-5.53 5.83 18.52 18.52 0 01-9.21 2.349c-3.53.031-6.42-.368-8.67-1.195a23.175 23.175 0 01-4.68-2.179l-.75-10.744c2.1 1.72 4.46 3.108 6.99 4.114 2.51.991 4.48 1.498 5.9 1.52 1.37.03 2.74-.2 4.02-.68a6.082 6.082 0 002.68-1.892 3.8 3.8 0 00.72-2.522 3.5 3.5 0 00-.46-1.575 3.417 3.417 0 00-1.13-1.195 16.294 16.294 0 00-3.7-1.787c-1.48-.527-3.11-1.066-4.89-1.618a28.215 28.215 0 01-4.83-1.98 14.4 14.4 0 01-3.73-2.792 9.184 9.184 0 01-2.17-3.644 17.35 17.35 0 01-.78-4.037 14.82 14.82 0 01.69-4.946 11.654 11.654 0 013.48-5.273c1.74-1.61 4.22-2.642 7.43-3.11 2.6-.395 5.25-.446 7.87-.153a22.223 22.223 0 002.61 9.21 23.27 23.27 0 00-2.97-.854 13.76 13.76 0 00-4.89-.357c-.92.1-1.81.354-2.64.752-.43.236-.82.561-1.12.954-.25.347-.46.724-.61 1.123-.16.44-.27.898-.32 1.363a6.34 6.34 0 00.06 1.74 3.655 3.655 0 001.86 2.445c1.13.701 2.36 1.217 3.66 1.527 1.36.345 3.12.843 5.27 1.496a25.05 25.05 0 015.57 2.298c1.58.95 2.89 2.274 3.82 3.853a12.454 12.454 0 011.77 5.456z" fill="#283238"/></g><path stroke="#3E3737" d="M-187.362 255.531L2333.472 79.257l-4.813-68.832L-192.175 186.7z"/><path fill="#000" d="M-37.951 140.11l1993.805 69.625 2.443-69.957L-35.508 70.153z"/><g clip-path="url(#clip8_185_2330)"><path fill-rule="evenodd" clip-rule="evenodd" d="M82.579 124.969l-.292 8.357-25.628-.895 1.551-44.416 10.418.364-1.26 36.059 15.21.531zm-48.905-37.81l16.47 45.044-9.9-.346-3.197-9.64-18.425-.644-3.89 9.394-9.672-.338 19.516-43.788 9.097.317zM21.761 113.94l12.685.443-5.72-17.216-6.965 16.773zM-10.12 85.63l10.303.359-1.551 44.415-8.552-.298-21.473-27.721-.94 26.938-10.332-.361 1.55-44.415 8.61.3 21.444 27.72.941-26.938zm-58.077 5.969a16.855 16.855 0 00-6.034.81 13.423 13.423 0 00-4.75 2.755 12.555 12.555 0 00-3.171 4.399 15.239 15.239 0 00-1.235 5.742c-.103 1.964.18 3.929.832 5.787a13.232 13.232 0 002.855 4.637 13.189 13.189 0 004.489 3.106 16.432 16.432 0 005.905 1.228c2.041.073 4.08-.191 6.032-.782.73-.225 1.44-.504 2.127-.834l.455-13.03 9.5.332-.629 17.987a27.74 27.74 0 01-8.67 3.895 33.213 33.213 0 01-9.722 1.135 27.259 27.259 0 01-9.698-2.04 23.448 23.448 0 01-7.669-5.033 22.598 22.598 0 01-4.882-7.487 23.01 23.01 0 01-1.486-9.269c.041-1.328.188-2.651.437-3.956a24.423 24.423 0 002.825-2.244 21.372 21.372 0 006.739-11.948 23.87 23.87 0 015.551-2.642 28 28 0 019.93-1.327c3.69.118 7.325.908 10.723 2.332.99.4 1.953.86 2.883 1.382.32.181.911.554 1.77 1.111l-.33 9.49a35.475 35.475 0 00-4.38-2.933 20.61 20.61 0 00-3.144-1.3 26.56 26.56 0 00-3.533-.861 25.411 25.411 0 00-3.72-.442zm-44.021 12.388c1.729.445 3.504.697 5.289.752 1.717.065 3.435-.05 5.127-.343l-.785 22.474-10.417-.364.786-22.519zm-7.892 9.605a13.061 13.061 0 01-2.003 6.328 12.73 12.73 0 01-6.118 5.22 18.628 18.628 0 01-9.438 1.372c-3.517-.338-6.356-1.036-8.518-2.095a23.424 23.424 0 01-4.436-2.656l.376-10.764a26.473 26.473 0 006.538 4.822c2.401 1.249 4.311 1.958 5.73 2.129 1.363.174 2.747.087 4.077-.255a6.09 6.09 0 002.872-1.601 3.784 3.784 0 00.976-2.433 3.444 3.444 0 00-.286-1.614 3.5 3.5 0 00-1.003-1.307 16.493 16.493 0 00-3.505-2.164 122.64 122.64 0 00-4.707-2.122 28.58 28.58 0 01-4.614-2.475 14.51 14.51 0 01-3.424-3.166 9.09 9.09 0 01-1.779-3.85 17.132 17.132 0 01-.357-4.097c.125-1.671.532-3.31 1.204-4.848a11.726 11.726 0 014.021-4.879c1.911-1.42 4.489-2.186 7.735-2.316 2.641-.12 5.286.106 7.867.672a22.16 22.16 0 001.636 9.433 23.62 23.62 0 00-2.873-1.161 13.812 13.812 0 00-4.837-.867 8.165 8.165 0 00-2.706.473 3.547 3.547 0 00-1.219.83 5.042 5.042 0 00-.732 1.053c-.205.421-.36.865-.46 1.322a6.106 6.106 0 00-.118 1.738 3.6 3.6 0 00.503 1.485c.275.454.646.842 1.089 1.14a12.499 12.499 0 003.496 1.903c1.317.484 3.017 1.164 5.101 2.038a25.395 25.395 0 015.313 2.869 10.996 10.996 0 013.398 4.231 12.426 12.426 0 011.201 5.612z" fill="#fff"/></g><g clip-path="url(#clip9_185_2330)" fill-rule="evenodd" clip-rule="evenodd"><path d="M181.241 88.681a4.91 4.91 0 011.395 3.679l-.005.13a4.943 4.943 0 01-.471 1.898 4.99 4.99 0 01-1.173 1.573 5.015 5.015 0 01-1.718 1.068 5.061 5.061 0 01-2.008.305 5.232 5.232 0 01-3.604-1.583 5.096 5.096 0 01-1.443-3.624l.004-.13a4.884 4.884 0 01.448-1.956 4.941 4.941 0 011.2-1.617 5.097 5.097 0 011.734-1.066 5.157 5.157 0 012.02-.306 5.064 5.064 0 011.982.444c.622.28 1.18.684 1.639 1.186z" fill="#EB5C60"/><path d="M366.251 134.876l-.292 8.356-25.628-.895 1.551-44.415 10.418.363-1.259 36.06 15.21.531zm-48.906-37.811l16.472 45.044-9.901-.345-3.198-9.641-18.424-.644-3.891 9.394-9.671-.338 19.516-43.788 9.097.318zm-11.911 26.782l12.685.443-5.72-17.217-6.965 16.774zm-31.882-28.312l10.303.36-1.551 44.416-8.553-.299-21.472-27.721-.941 26.938-10.331-.361 1.551-44.415 8.609.3 21.444 27.721.941-26.939zm-58.077 5.97a16.859 16.859 0 00-6.034.81 13.436 13.436 0 00-4.751 2.756 12.548 12.548 0 00-3.17 4.398 15.231 15.231 0 00-1.235 5.743 15.066 15.066 0 00.832 5.786 13.244 13.244 0 002.855 4.637 13.197 13.197 0 004.489 3.107 16.455 16.455 0 005.905 1.227c2.041.073 4.08-.191 6.032-.782.73-.225 1.44-.503 2.127-.833l.455-13.03 9.499.331-.628 17.987a27.744 27.744 0 01-8.67 3.895 33.207 33.207 0 01-9.722 1.135 27.22 27.22 0 01-9.699-2.04 23.463 23.463 0 01-7.668-5.032 22.61 22.61 0 01-4.882-7.488 23.008 23.008 0 01-1.486-9.269 25.14 25.14 0 01.437-3.955 24.447 24.447 0 002.825-2.244 21.377 21.377 0 006.739-11.949 23.865 23.865 0 015.551-2.642 27.998 27.998 0 019.931-1.326 30.27 30.27 0 0110.722 2.33c.99.4 1.952.862 2.882 1.383.322.182.912.554 1.772 1.112l-.332 9.489a35.418 35.418 0 00-4.38-2.932 20.446 20.446 0 00-3.144-1.301 26.433 26.433 0 00-3.532-.861 25.43 25.43 0 00-3.72-.442zm-44.021 12.388a24.21 24.21 0 005.289.752c1.717.065 3.435-.05 5.127-.343l-.785 22.474-10.417-.364.786-22.519zm-7.892 9.605a13.061 13.061 0 01-2.003 6.328 12.736 12.736 0 01-6.118 5.221 18.65 18.65 0 01-9.438 1.372c-3.517-.339-6.356-1.037-8.518-2.096a23.424 23.424 0 01-4.436-2.656l.376-10.764a26.502 26.502 0 006.538 4.823c2.4 1.248 4.31 1.958 5.73 2.128 1.363.174 2.747.088 4.077-.254a6.1 6.1 0 002.872-1.602 3.78 3.78 0 00.976-2.433 3.432 3.432 0 00-.287-1.614 3.487 3.487 0 00-1.002-1.307 16.493 16.493 0 00-3.505-2.164 122.71 122.71 0 00-4.707-2.121 28.585 28.585 0 01-4.614-2.476 14.484 14.484 0 01-3.424-3.165 9.096 9.096 0 01-1.779-3.851 17.136 17.136 0 01-.357-4.097c.125-1.671.532-3.31 1.204-4.847a11.726 11.726 0 014.021-4.88c1.911-1.419 4.489-2.186 7.735-2.316a30.37 30.37 0 017.867.672 22.16 22.16 0 001.636 9.433 23.685 23.685 0 00-2.873-1.161 13.82 13.82 0 00-4.838-.867 8.179 8.179 0 00-2.706.473 3.55 3.55 0 00-1.218.831 4.956 4.956 0 00-.732 1.052 5.93 5.93 0 00-.46 1.323 6.102 6.102 0 00-.118 1.737c.056.525.228 1.032.503 1.486.275.453.646.842 1.089 1.139a12.486 12.486 0 003.496 1.903c1.317.485 3.017 1.164 5.101 2.039a25.345 25.345 0 015.313 2.868 11.003 11.003 0 013.398 4.231 12.442 12.442 0 011.201 5.612z" fill="#fff"/></g><g clip-path="url(#clip10_185_2330)" fill-rule="evenodd" clip-rule="evenodd"><path d="M464.915 98.588a4.918 4.918 0 011.394 3.678l-.004.131a4.938 4.938 0 01-.471 1.897 4.977 4.977 0 01-1.173 1.573 4.998 4.998 0 01-1.719 1.068c-.64.236-1.324.34-2.007.305a5.234 5.234 0 01-3.605-1.583 5.1 5.1 0 01-1.443-3.624l.005-.13a4.881 4.881 0 01.448-1.956 4.941 4.941 0 011.2-1.617 5.097 5.097 0 011.734-1.066 5.154 5.154 0 012.02-.306 5.055 5.055 0 011.981.444c.623.28 1.181.684 1.64 1.186z" fill="#EB5C60"/><path d="M649.924 144.782l-.291 8.356-25.628-.895 1.551-44.415 10.418.363-1.26 36.06 15.21.531zm-48.905-37.811l16.472 45.044-9.901-.345-3.198-9.641-18.424-.644-3.891 9.394-9.671-.338 19.516-43.788 9.097.318zm-11.911 26.782l12.684.443-5.72-17.217-6.964 16.774zm-31.882-28.312l10.302.36-1.551 44.416-8.552-.299-21.472-27.721-.941 26.938-10.331-.361 1.551-44.415 8.609.301 21.444 27.72.941-26.939zm-58.077 5.97a16.856 16.856 0 00-6.034.81 13.436 13.436 0 00-4.751 2.756 12.563 12.563 0 00-3.171 4.398 15.25 15.25 0 00-1.234 5.743 15.047 15.047 0 00.832 5.786 13.23 13.23 0 002.855 4.637 13.187 13.187 0 004.489 3.107 16.45 16.45 0 005.905 1.227c2.041.073 4.08-.191 6.032-.782.729-.225 1.44-.503 2.127-.833l.455-13.03 9.499.331-.628 17.987a27.744 27.744 0 01-8.67 3.895 33.214 33.214 0 01-9.723 1.135 27.219 27.219 0 01-9.698-2.04 23.463 23.463 0 01-7.668-5.032 22.61 22.61 0 01-4.882-7.488 22.99 22.99 0 01-1.486-9.269 25.14 25.14 0 01.437-3.955 24.447 24.447 0 002.825-2.244 21.37 21.37 0 006.738-11.949 23.898 23.898 0 015.552-2.642 28.008 28.008 0 019.93-1.327c3.689.118 7.324.909 10.723 2.332.989.399 1.952.861 2.882 1.382.321.182.912.554 1.772 1.112l-.332 9.489a35.418 35.418 0 00-4.38-2.932 20.446 20.446 0 00-3.144-1.301 26.41 26.41 0 00-3.533-.861 25.4 25.4 0 00-3.719-.442zm-44.021 12.388a24.21 24.21 0 005.289.752c1.717.065 3.435-.05 5.127-.343l-.785 22.474-10.418-.364.787-22.519zm-7.893 9.605a13.05 13.05 0 01-2.002 6.328 12.734 12.734 0 01-6.119 5.221 18.644 18.644 0 01-9.437 1.372c-3.517-.339-6.356-1.037-8.519-2.096a23.448 23.448 0 01-4.435-2.656l.376-10.764a26.483 26.483 0 006.538 4.823c2.4 1.248 4.31 1.958 5.729 2.128 1.364.174 2.748.088 4.078-.254a6.1 6.1 0 002.872-1.602 3.774 3.774 0 00.975-2.433 3.431 3.431 0 00-.286-1.614 3.497 3.497 0 00-1.002-1.307 16.493 16.493 0 00-3.505-2.164 123.412 123.412 0 00-4.707-2.121 28.543 28.543 0 01-4.614-2.476 14.465 14.465 0 01-3.424-3.165 9.096 9.096 0 01-1.779-3.851 17.136 17.136 0 01-.357-4.097 14.85 14.85 0 011.204-4.847 11.732 11.732 0 014.02-4.88c1.912-1.419 4.49-2.185 7.736-2.316 2.64-.119 5.285.106 7.866.672a22.19 22.19 0 001.636 9.433c-.93-.449-1.89-.837-2.873-1.161a13.808 13.808 0 00-4.837-.867 8.174 8.174 0 00-2.706.473 3.531 3.531 0 00-1.218.831 4.956 4.956 0 00-.732 1.052 5.93 5.93 0 00-.46 1.323 6.066 6.066 0 00-.118 1.737c.056.525.227 1.032.502 1.486.275.453.647.842 1.09 1.139a12.486 12.486 0 003.496 1.903c1.316.485 3.017 1.164 5.101 2.039a25.345 25.345 0 015.313 2.868 11.003 11.003 0 013.398 4.231 12.428 12.428 0 011.2 5.612z" fill="#fff"/></g><g clip-path="url(#clip11_185_2330)" fill-rule="evenodd" clip-rule="evenodd"><path d="M748.589 108.494a4.926 4.926 0 011.083 1.697 4.87 4.87 0 01.311 1.981l-.004.131a4.938 4.938 0 01-.471 1.897 4.977 4.977 0 01-1.173 1.573 4.998 4.998 0 01-1.719 1.068 5.06 5.06 0 01-2.007.305 5.234 5.234 0 01-3.605-1.583 5.1 5.1 0 01-1.443-3.624l.005-.13a4.884 4.884 0 01.448-1.956 4.953 4.953 0 011.199-1.617 5.12 5.12 0 013.755-1.372 5.068 5.068 0 011.981.444 5.013 5.013 0 011.64 1.186z" fill="#EB5C60"/><path d="M933.598 154.688l-.292 8.356-25.627-.895 1.551-44.415 10.417.363-1.259 36.06 15.21.531zm-48.905-37.811l16.471 45.044-9.9-.345-3.198-9.641-18.424-.644-3.891 9.394-9.671-.338 19.516-43.788 9.097.318zm-11.911 26.782l12.684.443-5.72-17.217-6.964 16.774zM840.9 115.347l10.302.36-1.551 44.416-8.552-.299-21.472-27.721-.941 26.938-10.332-.36 1.551-44.416 8.61.301 21.444 27.72.941-26.939zm-58.078 5.97a16.853 16.853 0 00-6.033.81 13.436 13.436 0 00-4.751 2.756 12.55 12.55 0 00-3.171 4.398 15.25 15.25 0 00-1.235 5.743c-.103 1.963.18 3.928.833 5.786a13.215 13.215 0 002.855 4.637 13.187 13.187 0 004.489 3.107 16.446 16.446 0 005.904 1.227 18.536 18.536 0 006.033-.782c.729-.225 1.44-.503 2.127-.833l.455-13.03 9.499.331-.628 17.987a27.744 27.744 0 01-8.67 3.895 33.214 33.214 0 01-9.723 1.135 27.214 27.214 0 01-9.698-2.04 23.453 23.453 0 01-7.668-5.032 22.61 22.61 0 01-4.882-7.488 23.009 23.009 0 01-1.487-9.269 25.38 25.38 0 01.437-3.955 24.457 24.457 0 002.826-2.244 21.376 21.376 0 006.738-11.949 23.879 23.879 0 015.552-2.642 28.005 28.005 0 019.93-1.327c3.689.118 7.324.909 10.723 2.332.989.399 1.952.861 2.882 1.382.321.182.912.554 1.771 1.112l-.331 9.489a35.418 35.418 0 00-4.38-2.932 20.446 20.446 0 00-3.144-1.301 26.41 26.41 0 00-3.533-.861 25.398 25.398 0 00-3.72-.442zm-44.02 12.388a24.21 24.21 0 005.289.752c1.716.065 3.435-.05 5.126-.343l-.784 22.474-10.418-.364.787-22.519zm-7.893 9.605a13.05 13.05 0 01-2.002 6.328 12.734 12.734 0 01-6.119 5.221 18.646 18.646 0 01-9.438 1.372c-3.516-.339-6.356-1.037-8.518-2.096a23.416 23.416 0 01-4.435-2.656l.376-10.764a26.483 26.483 0 006.538 4.823c2.4 1.248 4.31 1.958 5.729 2.128 1.364.174 2.748.088 4.078-.254a6.106 6.106 0 002.872-1.602 3.774 3.774 0 00.975-2.433 3.444 3.444 0 00-.286-1.614 3.497 3.497 0 00-1.002-1.307 16.518 16.518 0 00-3.505-2.164 124.123 124.123 0 00-4.707-2.121 28.543 28.543 0 01-4.614-2.476 14.446 14.446 0 01-3.424-3.165 9.084 9.084 0 01-1.779-3.851 17.085 17.085 0 01-.357-4.097 14.825 14.825 0 011.204-4.847 11.725 11.725 0 014.02-4.88c1.912-1.419 4.49-2.185 7.736-2.316 2.64-.119 5.285.106 7.866.672a22.19 22.19 0 001.636 9.433c-.93-.449-1.89-.837-2.873-1.161a13.808 13.808 0 00-4.837-.867 8.174 8.174 0 00-2.706.473 3.531 3.531 0 00-1.218.831 4.998 4.998 0 00-.733 1.052 5.927 5.927 0 00-.578 3.06 3.622 3.622 0 001.593 2.625 12.472 12.472 0 003.496 1.903c1.316.485 3.017 1.164 5.101 2.039a25.345 25.345 0 015.313 2.868 11.003 11.003 0 013.398 4.231 12.428 12.428 0 011.2 5.612z" fill="#fff"/></g><g clip-path="url(#clip12_185_2330)" fill-rule="evenodd" clip-rule="evenodd"><path d="M1032.26 118.4c.48.486.84 1.064 1.08 1.697.24.633.35 1.307.32 1.982l-.01.13a5 5 0 01-.47 1.898 4.99 4.99 0 01-1.17 1.573 5.11 5.11 0 01-1.72 1.068 5.08 5.08 0 01-2.01.305 5.226 5.226 0 01-3.6-1.583 5.084 5.084 0 01-1.45-3.625l.01-.13c.01-.675.16-1.341.45-1.955.28-.615.69-1.165 1.2-1.618a4.94 4.94 0 011.73-1.065c.65-.236 1.33-.34 2.02-.307a5.05 5.05 0 013.62 1.63z" fill="#EB5C60"/><path d="M1217.27 164.594l-.29 8.356-25.63-.895 1.55-44.415 10.42.364-1.26 36.059 15.21.531zm-48.91-37.811l16.48 45.045-9.9-.346-3.2-9.641-18.43-.643-3.89 9.393-9.67-.338 19.52-43.788 9.09.318zm-11.91 26.782l12.69.443-5.72-17.216-6.97 16.773zm-31.88-28.311l10.3.359-1.55 44.416-8.55-.299-21.47-27.721-.94 26.939-10.33-.361 1.55-44.416 8.61.301 21.44 27.72.94-26.938zm-58.08 5.969a16.84 16.84 0 00-6.03.811 13.388 13.388 0 00-4.75 2.755 12.507 12.507 0 00-3.17 4.398 15.353 15.353 0 00-1.24 5.743c-.1 1.963.18 3.928.84 5.786a13.192 13.192 0 002.85 4.638 13.212 13.212 0 004.49 3.106c1.87.769 3.88 1.185 5.91 1.227 2.04.073 4.08-.191 6.03-.782a14.81 14.81 0 002.12-.833l.46-13.03 9.5.331-.63 17.988a27.744 27.744 0 01-8.67 3.894 33.144 33.144 0 01-9.72 1.135 27.248 27.248 0 01-9.7-2.04 23.498 23.498 0 01-7.67-5.032 22.682 22.682 0 01-4.88-7.488 23.095 23.095 0 01-1.49-9.269c.04-1.328.19-2.65.44-3.955 1-.678 1.94-1.428 2.83-2.244a21.37 21.37 0 006.73-11.949 23.993 23.993 0 015.56-2.642 27.966 27.966 0 019.93-1.326c3.68.118 7.32.908 10.72 2.331.99.4 1.95.861 2.88 1.383.32.181.91.553 1.77 1.111l-.33 9.489a35.268 35.268 0 00-4.38-2.932 20.67 20.67 0 00-3.14-1.301 26.7 26.7 0 00-3.54-.861 25.285 25.285 0 00-3.72-.442zm-44.02 12.388c1.73.445 3.51.697 5.29.752 1.72.065 3.44-.05 5.13-.343l-.79 22.474-10.41-.364.78-22.519zm-7.89 9.605c-.11 2.244-.8 4.422-2 6.329a12.717 12.717 0 01-6.12 5.22 18.634 18.634 0 01-9.438 1.372c-3.516-.338-6.356-1.037-8.518-2.096a23.281 23.281 0 01-4.435-2.656l.375-10.764a26.52 26.52 0 006.538 4.823c2.401 1.248 4.311 1.958 5.73 2.129a10.88 10.88 0 004.078-.255 6.093 6.093 0 002.87-1.601 3.8 3.8 0 00.98-2.434 3.492 3.492 0 00-1.29-2.921 16.531 16.531 0 00-3.506-2.164 125.726 125.726 0 00-4.707-2.121 28.594 28.594 0 01-4.615-2.476 14.46 14.46 0 01-3.423-3.165 9.084 9.084 0 01-1.779-3.851 17.034 17.034 0 01-.357-4.097 14.849 14.849 0 011.203-4.847 11.732 11.732 0 014.021-4.879c1.912-1.42 4.49-2.186 7.735-2.317a30.408 30.408 0 017.868.672c-.15 3.223.41 6.441 1.64 9.433a24.58 24.58 0 00-2.88-1.161 13.76 13.76 0 00-4.835-.866 8.148 8.148 0 00-2.706.472c-.461.19-.876.473-1.219.831a5.057 5.057 0 00-.732 1.052 5.98 5.98 0 00-.46 1.323 6.104 6.104 0 00-.118 1.737 3.622 3.622 0 001.592 2.625 12.491 12.491 0 003.497 1.903c1.321.485 3.021 1.165 5.101 2.039a25.49 25.49 0 015.31 2.868 11.045 11.045 0 013.4 4.231 12.52 12.52 0 011.2 5.612z" fill="#fff"/></g><g clip-path="url(#clip13_185_2330)" fill-rule="evenodd" clip-rule="evenodd"><path d="M1315.93 128.306c.48.487.85 1.064 1.09 1.697.24.633.34 1.307.31 1.982l-.01.13a4.657 4.657 0 01-.47 1.898 4.99 4.99 0 01-1.17 1.573 5.054 5.054 0 01-3.73 1.373 5.226 5.226 0 01-3.6-1.583 5.117 5.117 0 01-1.44-3.625v-.13c.01-.675.17-1.341.45-1.955.28-.615.69-1.165 1.2-1.618a5.128 5.128 0 013.75-1.372 5.01 5.01 0 011.98.445c.63.28 1.19.683 1.64 1.185z" fill="#EB5C60"/><path d="M1500.94 174.5l-.29 8.356-25.63-.895 1.56-44.415 10.41.364-1.26 36.059 15.21.531zm-48.9-37.811l16.47 45.045-9.9-.346-3.2-9.641-18.42-.643-3.89 9.393-9.67-.338 19.51-43.788 9.1.318zm-11.91 26.782l12.68.443-5.72-17.216-6.96 16.773zm-31.88-28.311l10.3.359-1.55 44.416-8.56-.299-21.47-27.721-.94 26.939-10.33-.361 1.55-44.416 8.61.301 21.44 27.72.95-26.938zm-58.08 5.969c-2.05-.098-4.09.177-6.04.811a13.475 13.475 0 00-4.75 2.755 12.633 12.633 0 00-3.17 4.398 15.154 15.154 0 00-1.23 5.743c-.11 1.963.18 3.928.83 5.786a13.217 13.217 0 002.86 4.638 13.077 13.077 0 004.48 3.106 16.5 16.5 0 005.91 1.227c2.04.073 4.08-.191 6.03-.782.73-.224 1.44-.503 2.13-.833l.45-13.03 9.5.331-.63 17.988a27.642 27.642 0 01-8.67 3.894 33.144 33.144 0 01-9.72 1.135 27.248 27.248 0 01-9.7-2.04 23.455 23.455 0 01-7.66-5.032 22.554 22.554 0 01-4.89-7.488 23.087 23.087 0 01-1.48-9.269c.04-1.328.18-2.65.43-3.955 1-.678 1.95-1.428 2.83-2.244a21.385 21.385 0 006.74-11.949 23.731 23.731 0 015.55-2.642 27.996 27.996 0 019.93-1.326c3.69.118 7.32.908 10.72 2.331.99.4 1.95.861 2.88 1.383.33.181.92.553 1.78 1.111l-.34 9.489a34.54 34.54 0 00-4.38-2.932c-1-.519-2.06-.955-3.14-1.301a26.943 26.943 0 00-3.53-.861 25.447 25.447 0 00-3.72-.442zm-44.02 12.388c1.73.445 3.5.697 5.29.752 1.71.065 3.43-.05 5.12-.343l-.78 22.474-10.42-.364.79-22.519zm-7.89 9.605c-.12 2.244-.8 4.422-2.01 6.329a12.717 12.717 0 01-6.12 5.22 18.6 18.6 0 01-9.43 1.372c-3.52-.338-6.36-1.037-8.52-2.096a23.35 23.35 0 01-4.44-2.656l.38-10.764a26.401 26.401 0 006.54 4.823c2.4 1.248 4.31 1.958 5.73 2.129 1.36.173 2.74.087 4.07-.255a6.125 6.125 0 002.88-1.601c.6-.672.95-1.534.97-2.434a3.326 3.326 0 00-.29-1.614 3.393 3.393 0 00-1-1.307 16.642 16.642 0 00-3.5-2.164 123.11 123.11 0 00-4.71-2.121 28.297 28.297 0 01-4.61-2.476 14.435 14.435 0 01-3.43-3.165 9.098 9.098 0 01-1.78-3.851 17.08 17.08 0 01-.35-4.097c.12-1.671.53-3.309 1.2-4.847a11.67 11.67 0 014.02-4.879c1.91-1.42 4.49-2.186 7.74-2.317a30.34 30.34 0 017.86.672c-.15 3.223.41 6.441 1.64 9.433-.93-.449-1.89-.837-2.87-1.161a13.848 13.848 0 00-4.84-.866c-.92.003-1.84.163-2.71.472-.46.19-.87.473-1.22.831-.28.319-.53.672-.73 1.052-.2.422-.36.866-.46 1.323a6.331 6.331 0 00-.12 1.737c.06.525.23 1.032.51 1.486.27.453.64.842 1.09 1.139 1.05.816 2.23 1.459 3.49 1.903 1.32.485 3.02 1.165 5.1 2.039 1.88.743 3.67 1.706 5.32 2.868a10.928 10.928 0 013.39 4.231 12.397 12.397 0 011.21 5.612z" fill="#fff"/></g><g clip-path="url(#clip14_185_2330)" fill-rule="evenodd" clip-rule="evenodd"><path d="M1599.61 138.212c.47.487.84 1.064 1.08 1.697.24.633.35 1.307.31 1.982v.13a5 5 0 01-.47 1.898c-.28.595-.68 1.13-1.18 1.573-.49.468-1.07.831-1.71 1.068-.65.236-1.33.34-2.01.305a5.25 5.25 0 01-3.61-1.583 5.117 5.117 0 01-1.44-3.625l.01-.13c.01-.675.16-1.341.44-1.955a5.15 5.15 0 011.2-1.618c.5-.467 1.09-.83 1.74-1.065a5.14 5.14 0 012.02-.307 5.05 5.05 0 013.62 1.63z" fill="#EB5C60"/><path d="M1784.62 184.406l-.29 8.356-25.63-.895 1.55-44.415 10.42.364-1.26 36.059 15.21.531zm-48.91-37.811l16.47 45.045-9.9-.346-3.19-9.641-18.43-.643-3.89 9.393-9.67-.338 19.52-43.788 9.09.318zm-11.91 26.782l12.69.443-5.72-17.216-6.97 16.773zm-31.88-28.311l10.3.359-1.55 44.416-8.55-.299-21.47-27.721-.94 26.939-10.34-.361 1.56-44.416 8.6.301 21.45 27.72.94-26.938zm-58.08 5.969a16.84 16.84 0 00-6.03.811 13.388 13.388 0 00-4.75 2.755 12.507 12.507 0 00-3.17 4.398 15.357 15.357 0 00-1.24 5.743c-.1 1.963.18 3.928.83 5.786a13.217 13.217 0 002.86 4.638 13.212 13.212 0 004.49 3.106c1.87.769 3.87 1.185 5.9 1.227 2.04.073 4.08-.191 6.04-.782.72-.224 1.44-.503 2.12-.833l.46-13.03 9.5.331-.63 17.988a27.744 27.744 0 01-8.67 3.894 33.184 33.184 0 01-9.72 1.135 27.202 27.202 0 01-9.7-2.04 23.393 23.393 0 01-7.67-5.032 22.682 22.682 0 01-4.88-7.488 22.922 22.922 0 01-1.49-9.269c.04-1.328.19-2.65.44-3.955.99-.678 1.94-1.428 2.82-2.244a21.326 21.326 0 006.74-11.949 23.923 23.923 0 015.55-2.642 27.996 27.996 0 019.93-1.326c3.69.118 7.33.908 10.73 2.331.99.4 1.95.861 2.88 1.383.32.181.91.553 1.77 1.111l-.33 9.489a36.028 36.028 0 00-4.38-2.932 20.366 20.366 0 00-3.15-1.301 26.185 26.185 0 00-3.53-.861 25.447 25.447 0 00-3.72-.442zm-44.02 12.388c1.73.445 3.5.697 5.29.752 1.72.065 3.44-.05 5.13-.343l-.79 22.474-10.42-.364.79-22.519zm-7.89 9.605c-.11 2.244-.8 4.422-2 6.329a12.762 12.762 0 01-6.12 5.22 18.654 18.654 0 01-9.44 1.372c-3.52-.338-6.36-1.037-8.52-2.096a23.273 23.273 0 01-4.43-2.656l.37-10.764a26.587 26.587 0 006.54 4.823c2.4 1.248 4.31 1.958 5.73 2.129 1.36.173 2.75.087 4.08-.255a6.093 6.093 0 002.87-1.601c.61-.672.95-1.534.97-2.434a3.44 3.44 0 00-.28-1.614 3.598 3.598 0 00-1-1.307 16.71 16.71 0 00-3.51-2.164 123.11 123.11 0 00-4.71-2.121 28.715 28.715 0 01-4.61-2.476 14.39 14.39 0 01-3.42-3.165 9.098 9.098 0 01-1.78-3.851 16.592 16.592 0 01-.36-4.097c.12-1.671.53-3.309 1.2-4.847a11.82 11.82 0 014.02-4.879c1.92-1.42 4.49-2.186 7.74-2.317 2.64-.119 5.29.107 7.87.672-.15 3.223.41 6.441 1.63 9.433-.93-.449-1.89-.837-2.87-1.161a13.848 13.848 0 00-4.84-.866c-.92.003-1.84.163-2.7.472-.46.19-.88.473-1.22.831-.29.319-.54.672-.73 1.052-.21.422-.36.866-.46 1.323a5.638 5.638 0 00-.12 1.737c.05.525.23 1.032.5 1.486.28.453.65.842 1.09 1.139a12.33 12.33 0 003.5 1.903c1.31.485 3.01 1.165 5.1 2.039a25.49 25.49 0 015.31 2.868 11.045 11.045 0 013.4 4.231 12.52 12.52 0 011.2 5.612z" fill="#fff"/></g><g clip-path="url(#clip15_185_2330)" fill-rule="evenodd" clip-rule="evenodd"><path d="M1883.28 148.118c.48.487.85 1.064 1.09 1.697.24.633.34 1.307.31 1.982l-.01.13a4.98 4.98 0 01-1.64 3.471 5.054 5.054 0 01-3.73 1.373 5.226 5.226 0 01-3.6-1.583 5.084 5.084 0 01-1.45-3.625l.01-.13c.01-.675.16-1.341.45-1.955.28-.615.69-1.165 1.2-1.617a5.13 5.13 0 011.73-1.066c.65-.236 1.33-.34 2.02-.307.69.013 1.36.165 1.98.445.63.28 1.18.684 1.64 1.185z" fill="#EB5C60"/><path d="M2068.29 194.312l-.29 8.356-25.63-.895 1.55-44.415 10.42.364-1.26 36.059 15.21.531zm-48.9-37.811l16.47 45.045-9.9-.346-3.2-9.641-18.42-.643-3.9 9.393-9.67-.337 19.52-43.789 9.1.318zm-11.91 26.782l12.68.443-5.72-17.216-6.96 16.773zm-31.89-28.311l10.31.36-1.56 44.415-8.55-.299-21.47-27.72-.94 26.938-10.33-.361 1.55-44.415 8.61.3 21.44 27.72.94-26.938zm-58.07 5.97c-2.05-.099-4.09.176-6.04.81a13.388 13.388 0 00-4.75 2.755 12.51 12.51 0 00-3.17 4.399 15.145 15.145 0 00-1.23 5.742c-.11 1.964.18 3.928.83 5.786a13.33 13.33 0 002.85 4.638 13.212 13.212 0 004.49 3.106c1.88.769 3.88 1.186 5.91 1.227 2.04.074 4.08-.191 6.03-.782.73-.224 1.44-.503 2.13-.833l.45-13.03 9.5.332-.63 17.987a27.77 27.77 0 01-8.67 3.895 33.178 33.178 0 01-9.72 1.135 27.27 27.27 0 01-9.7-2.041 23.482 23.482 0 01-7.67-5.032 22.662 22.662 0 01-4.88-7.488 23.095 23.095 0 01-1.49-9.269c.05-1.327.19-2.65.44-3.955 1-.678 1.94-1.428 2.83-2.244 3.5-3.15 5.87-7.346 6.74-11.948a23.691 23.691 0 015.55-2.642 27.967 27.967 0 019.93-1.327c3.69.118 7.32.908 10.72 2.331.99.4 1.95.862 2.88 1.383.32.181.91.554 1.77 1.111l-.33 9.489a35.38 35.38 0 00-4.38-2.932 20.772 20.772 0 00-3.14-1.301 26.943 26.943 0 00-3.53-.861 25.445 25.445 0 00-3.72-.441zm-44.03 12.387c1.73.445 3.51.698 5.29.752 1.72.066 3.44-.049 5.13-.343l-.78 22.474-10.42-.363.78-22.52zm-7.89 9.606c-.11 2.243-.8 4.422-2 6.328a12.711 12.711 0 01-6.12 5.22 18.628 18.628 0 01-9.44 1.372c-3.51-.338-6.35-1.037-8.51-2.095a23.1 23.1 0 01-4.44-2.657l.38-10.764a26.535 26.535 0 006.53 4.823c2.4 1.249 4.31 1.958 5.73 2.129 1.37.174 2.75.087 4.08-.255a6.084 6.084 0 002.87-1.601 3.8 3.8 0 00.98-2.434 3.481 3.481 0 00-1.29-2.92 16.605 16.605 0 00-3.5-2.165c-1.42-.679-3-1.386-4.71-2.121a28.886 28.886 0 01-4.62-2.475 14.608 14.608 0 01-3.42-3.166 9.098 9.098 0 01-1.78-3.851 17.61 17.61 0 01-.36-4.096c.13-1.671.54-3.31 1.21-4.848a11.67 11.67 0 014.02-4.879c1.91-1.419 4.49-2.186 7.73-2.317 2.64-.119 5.29.107 7.87.672a22.1 22.1 0 001.64 9.433c-.93-.449-1.89-.837-2.88-1.161a13.753 13.753 0 00-4.83-.866c-.93.004-1.84.164-2.71.473a3.53 3.53 0 00-1.22.831c-.29.318-.53.672-.73 1.052-.21.421-.36.865-.46 1.322a6.334 6.334 0 00-.12 1.737c.06.526.23 1.033.5 1.486.28.453.65.842 1.09 1.14 1.06.816 2.24 1.458 3.5 1.903 1.32.484 3.02 1.164 5.1 2.038a25.2 25.2 0 015.31 2.869 10.946 10.946 0 013.4 4.231 12.253 12.253 0 011.2 5.612z" fill="#fff"/></g><defs><clipPath id="clip0_185_2330"><path fill="#fff" transform="rotate(-4 2698.033 2633.767)" d="M0 0h232.675v50.44H0z"/></clipPath><clipPath id="clip1_185_2330"><path fill="#fff" transform="rotate(-4 2556.438 -1420.838)" d="M0 0h232.675v50.44H0z"/></clipPath><clipPath id="clip2_185_2330"><path fill="#fff" transform="rotate(-4 2414.844 -5475.471)" d="M0 0h232.675v50.44H0z"/></clipPath><clipPath id="clip3_185_2330"><path fill="#fff" transform="rotate(-4 2273.248 -9530.076)" d="M0 0h232.675v50.44H0z"/></clipPath><clipPath id="clip4_185_2330"><path fill="#fff" transform="rotate(-4 2131.668 -13584.709)" d="M0 0h232.675v50.44H0z"/></clipPath><clipPath id="clip5_185_2330"><path fill="#fff" transform="rotate(-4 1990.073 -17639.256)" d="M0 0h232.675v50.44H0z"/></clipPath><clipPath id="clip6_185_2330"><path fill="#fff" transform="rotate(-4 1848.487 -21694.003)" d="M0 0h232.675v50.44H0z"/></clipPath><clipPath id="clip7_185_2330"><path fill="#fff" transform="rotate(-4 1706.893 -25748.608)" d="M0 0h232.675v50.44H0z"/></clipPath><clipPath id="clip8_185_2330"><path fill="#fff" transform="rotate(2 -2241.316 -4233.92)" d="M0 0h233.286v50.44H0z"/></clipPath><clipPath id="clip9_185_2330"><path fill="#fff" transform="rotate(2 -2383.245 3896.813)" d="M0 0h233.286v50.44H0z"/></clipPath><clipPath id="clip10_185_2330"><path fill="#fff" transform="rotate(2 -2525.166 12027.602)" d="M0 0h233.286v50.44H0z"/></clipPath><clipPath id="clip11_185_2330"><path fill="#fff" transform="rotate(2 -2667.089 20158.392)" d="M0 0h233.286v50.44H0z"/></clipPath><clipPath id="clip12_185_2330"><path fill="#fff" transform="rotate(2 -2809.01 28289.095)" d="M0 0h233.286v50.44H0z"/></clipPath><clipPath id="clip13_185_2330"><path fill="#fff" transform="rotate(2 -2950.93 36419.941)" d="M0 0h233.286v50.44H0z"/></clipPath><clipPath id="clip14_185_2330"><path fill="#fff" transform="rotate(2 -3092.852 44550.616)" d="M0 0h233.286v50.44H0z"/></clipPath><clipPath id="clip15_185_2330"><path fill="#fff" transform="rotate(2 -3234.769 52681.577)" d="M0 0h233.286v50.44H0z"/></clipPath></defs></svg>