<svg width="144" height="32" viewBox="0 0 144 32" fill="none" xmlns="http://www.w3.org/2000/svg">
<path fill-rule="evenodd" clip-rule="evenodd" d="M29.211 1.58527C29.5123 1.87402 29.7506 2.22088 29.9111 2.6044C30.0715 2.98792 30.1508 3.39994 30.1439 3.81498V3.89511C30.1404 4.29935 30.0562 4.69892 29.8961 5.07082C29.736 5.44272 29.5032 5.77962 29.211 6.06212C28.9192 6.36033 28.5687 6.59613 28.1812 6.75493C27.7936 6.91373 27.3773 6.99216 26.9579 6.98536C26.1208 6.9901 25.3154 6.66857 24.7159 6.09028C24.1164 5.512 23.771 4.72344 23.7543 3.89511V3.81498C23.7474 3.39994 23.8267 2.98792 23.9872 2.6044C24.1476 2.22088 24.3859 1.87402 24.6872 1.58527C24.9831 1.28755 25.3368 1.05224 25.7271 0.893565C26.1173 0.734885 26.536 0.656121 26.9579 0.662028C27.3773 0.655231 27.7936 0.733658 28.1812 0.892459C28.5687 1.05126 28.9192 1.28706 29.211 1.58527Z" fill="#DC0000"/>
<path fill-rule="evenodd" clip-rule="evenodd" d="M143.537 25.9901V31.1289H127.818V3.81492H134.208V25.9901H143.537ZM112.769 3.81492L123.823 31.1289H117.75L115.585 25.2759H104.284L102.102 31.1289H96.1697L107.189 3.81492H112.769ZM106.044 20.5204H113.825L109.952 10.0686L106.044 20.5204ZM85.9076 3.81492H92.2268V31.1289H86.9814L73.2341 14.5628V31.1289H66.8973V3.81492H72.1779L85.9076 20.381V3.81492ZM50.4569 8.72726C49.202 8.71076 47.9549 8.92335 46.778 9.35436C45.7121 9.75038 44.741 10.3614 43.9264 11.1486C43.1148 11.9284 42.4842 12.8734 42.0782 13.9183C41.6389 15.0517 41.4238 16.2581 41.4445 17.4719C41.4234 18.6801 41.6385 19.8808 42.0782 21.0081C42.4935 22.0534 43.1227 23.0023 43.9264 23.7952C44.7266 24.5878 45.6861 25.205 46.7428 25.6069C47.9072 26.0391 49.143 26.2518 50.3864 26.234C51.6385 26.2353 52.882 26.0292 54.0653 25.6243C54.5072 25.4707 54.9367 25.2844 55.3503 25.0669V17.0538H61.1766V28.1153C59.5981 29.2681 57.8292 30.1404 55.9487 30.6934C54.0283 31.2873 52.0288 31.5926 50.0168 31.5992C47.9737 31.6206 45.9444 31.2662 44.0321 30.5541C42.2502 29.9032 40.6168 28.9084 39.2267 27.6276C37.8859 26.3509 36.8148 24.8232 36.0759 23.1333C35.3216 21.3403 34.9443 19.414 34.9669 17.4719C34.964 16.6555 35.0252 15.8402 35.15 15.0332C35.7461 14.5953 36.3085 14.1144 36.8328 13.5943C38.9137 11.5845 40.2736 8.95649 40.7053 6.11083C41.7389 5.38888 42.8631 4.8033 44.0497 4.36886C45.988 3.66437 48.04 3.31607 50.1048 3.3411C52.367 3.33433 54.6109 3.74184 56.7232 4.54306C57.3381 4.76726 57.9378 5.03026 58.5186 5.33043C58.7193 5.43494 59.089 5.65095 59.6276 5.97495V11.8105C58.7566 11.1745 57.8387 10.6039 56.8816 10.1034C56.2521 9.80615 55.5985 9.56142 54.9278 9.37178C54.2117 9.17105 53.4824 9.01972 52.7451 8.91887C51.9883 8.79862 51.2234 8.73457 50.4569 8.72726V8.72726ZM23.7544 17.2803C24.8233 17.5165 25.9156 17.6333 27.0108 17.6287C28.0637 17.632 29.114 17.5245 30.144 17.3082V31.1289H23.7544V17.2803ZM19.125 23.3493C19.1053 24.7299 18.7297 26.0826 18.0337 27.2792C17.2182 28.7517 15.9421 29.9228 14.3971 30.6168C12.6056 31.459 10.6216 31.8195 8.64467 31.662C6.48312 31.5296 4.72877 31.1614 3.38162 30.5576C2.40202 30.1492 1.47155 29.6339 0.607518 29.0211V22.4017C1.82148 23.5467 3.20737 24.4986 4.71586 25.2237C6.21322 25.939 7.39843 26.3339 8.2715 26.4082C9.11044 26.4857 9.9566 26.4029 10.764 26.1643C11.4253 25.9799 12.0223 25.6182 12.489 25.1191C12.8461 24.6936 13.0394 24.1567 13.0346 23.6036C13.0449 23.2634 12.973 22.9256 12.8248 22.6184C12.6766 22.3112 12.4565 22.0434 12.1827 21.8373C11.5077 21.3297 10.7709 20.9084 9.98947 20.5831C9.10584 20.1964 8.12716 19.7957 7.06047 19.3811C6.05833 18.9962 5.09432 18.5204 4.18076 17.9597C3.36152 17.4561 2.63032 16.8243 2.01569 16.0888C1.44622 15.4146 1.04467 14.6174 0.843387 13.7615C0.640948 12.9404 0.53813 12.0983 0.537109 11.2531C0.577614 10.2241 0.791797 9.20903 1.17079 8.24996C1.65808 7.02851 2.47376 5.96226 3.52948 5.16668C4.6701 4.25389 6.23317 3.72782 8.21869 3.57801C9.8337 3.44806 11.459 3.53006 13.0522 3.82189V3.82189C13.0302 5.8049 13.4409 7.76925 14.2562 9.58082C13.6765 9.32474 13.0803 9.1071 12.4714 8.92933C11.5118 8.60904 10.5015 8.46384 9.48957 8.5008C8.92431 8.52297 8.36706 8.64081 7.84201 8.84919C7.56366 8.97531 7.31534 9.15813 7.11328 9.38572C6.94341 9.58753 6.80026 9.80998 6.68731 10.0477C6.57067 10.311 6.4856 10.587 6.43384 10.8699C6.3711 11.223 6.35924 11.5831 6.39863 11.9394C6.44433 12.2609 6.56028 12.5686 6.73843 12.8412C6.91657 13.1137 7.15261 13.3446 7.43012 13.5177C8.0934 13.9962 8.83045 14.3657 9.61279 14.6116C10.4295 14.881 11.4857 15.2619 12.7812 15.7543C13.9493 16.1701 15.0627 16.7234 16.0974 17.4022C17.0229 18.0518 17.7696 18.9201 18.2695 19.9281C18.8175 20.9879 19.1103 22.1589 19.125 23.3493V23.3493Z" fill="#DC0000"/>
</svg>
