<svg width="92" height="19" viewBox="0 0 92 19" fill="none" xmlns="http://www.w3.org/2000/svg">
<g clip-path="url(#clip0_202_2922)">
<path d="M10.1269 5.0498H0.00585938V15.8498H2.82287V12.3361H8.22068L10.6835 15.8498H13.8379L11.1221 12.32C11.9655 12.1905 12.5727 11.8828 12.9439 11.397C13.3149 10.9113 13.5005 10.1341 13.5005 9.09779V8.28822C13.5005 7.67289 13.4331 7.18716 13.3149 6.8147C13.1969 6.44231 12.9945 6.11846 12.7077 5.82702C12.4041 5.55175 12.0667 5.35745 11.6619 5.22791C11.257 5.11457 10.7509 5.0498 10.1269 5.0498ZM9.67144 9.95596H2.82287V7.43H9.67144C10.0594 7.43 10.3293 7.49478 10.4642 7.60812C10.5991 7.72145 10.6835 7.93196 10.6835 8.23962V9.14639C10.6835 9.47024 10.5991 9.6807 10.4642 9.79403C10.3293 9.90736 10.0594 9.95596 9.67144 9.95596Z" fill="#DC0000"/>
<path d="M18.0284 12.66V5.0498H15.293V12.5953C15.293 13.2105 15.3421 13.7125 15.4568 14.0849C15.5714 14.4735 15.768 14.7973 16.0628 15.0726C16.3413 15.3641 16.6689 15.5583 17.062 15.6717C17.4551 15.8013 17.9465 15.8498 18.569 15.8498H25.121C25.727 15.8498 26.2184 15.8013 26.6115 15.6717C27.0047 15.5583 27.3323 15.3641 27.6271 15.0726C27.9056 14.7973 28.1021 14.4735 28.2168 14.0849C28.3315 13.7125 28.397 13.2105 28.397 12.5953V5.0498H25.6615V12.66C25.6615 12.9838 25.5796 13.1944 25.4486 13.3077C25.3175 13.421 25.0554 13.4696 24.6787 13.4696H19.0112C18.6181 13.4696 18.356 13.421 18.225 13.3077C18.0939 13.1944 18.0284 12.9838 18.0284 12.66Z" fill="#DC0000"/>
<path d="M37.7514 15.8498V7.43H42.9575V5.0498H29.8535V7.43H35.0596V15.8498H37.7514Z" fill="#DC0000"/>
<path d="M47.1495 12.66V5.0498H44.4141V12.5953C44.4141 13.2105 44.4633 13.7125 44.5779 14.0849C44.6925 14.4735 44.8891 14.7973 45.1839 15.0726C45.4624 15.3641 45.79 15.5583 46.1831 15.6717C46.5762 15.8013 47.0676 15.8498 47.6901 15.8498H54.2421C54.8481 15.8498 55.3395 15.8013 55.7326 15.6717C56.1258 15.5583 56.4534 15.3641 56.7482 15.0726C57.0267 14.7973 57.2232 14.4735 57.3379 14.0849C57.4525 13.7125 57.5181 13.2105 57.5181 12.5953V5.0498H54.7826V12.66C54.7826 12.9838 54.7007 13.1944 54.5697 13.3077C54.4385 13.421 54.1765 13.4696 53.7998 13.4696H48.1323C47.7392 13.4696 47.4771 13.421 47.3461 13.3077C47.215 13.1944 47.1495 12.9838 47.1495 12.66Z" fill="#DC0000"/>
<path d="M71.5355 8.19102V7.98057C71.5355 6.97665 71.2732 6.23181 70.748 5.76225C70.2232 5.29268 69.387 5.0498 68.2719 5.0498H58.9727V15.8498H68.813C69.928 15.8498 70.7644 15.6231 71.2896 15.1536C71.8144 14.684 72.0767 13.9391 72.0767 12.9353V12.7086C72.0767 11.7047 71.8144 10.9923 71.2896 10.5713C71.191 10.5065 71.0925 10.4579 70.9944 10.4093C70.8958 10.3607 70.748 10.296 70.5678 10.2312C70.9287 10.0369 71.1746 9.77783 71.3219 9.48637C71.4534 9.19492 71.5355 8.75773 71.5355 8.19102ZM61.7117 9.37304V7.43H67.8288C68.2226 7.43 68.4849 7.49478 68.6164 7.60812C68.7472 7.72145 68.813 7.93196 68.813 8.23962V8.56348C68.813 8.88733 68.7472 9.09779 68.6164 9.21112C68.4849 9.32452 68.2226 9.37304 67.8288 9.37304H61.7117ZM61.7117 13.4696V11.5266H68.3864C68.7637 11.5266 69.026 11.5913 69.1574 11.7047C69.2883 11.818 69.3705 12.0285 69.3705 12.3361V12.66C69.3705 12.9838 69.2883 13.1944 69.1574 13.3077C69.026 13.421 68.7637 13.4696 68.3864 13.4696H61.7117Z" fill="#DC0000"/>
<path d="M76.3285 7.43H85.4598V5.0498H73.5352V15.8498H85.9112V13.4696H76.3285V11.64H85.2421L85.4598 9.25972H76.3285V7.43Z" fill="#DC0000"/>
<path d="M88.591 4.51118C89.6436 4.51118 90.4976 3.66462 90.4976 2.62033C90.4976 1.57605 89.6436 0.729492 88.591 0.729492C87.5375 0.729492 86.6836 1.57605 86.6836 2.62033C86.6836 3.66462 87.5375 4.51118 88.591 4.51118Z" fill="#F41240"/>
</g>
<defs>
<clipPath id="clip0_202_2922">
<rect width="91" height="18" fill="white" transform="translate(0.00585938 0.729492)"/>
</clipPath>
</defs>
</svg>
