<svg width="512" height="512" fill="none" xmlns="http://www.w3.org/2000/svg"><path d="M25.7 255.664c-.384 116.676 24.383 211.319 123.068 211.607 116.924.287 336.948-124.531 337.14-210.457.192-85.83-219.16-211.702-335.988-212.085h-.384c-87.358 0-123.548 94.451-123.836 210.935" fill="url(#paint0_linear)"/><path opacity=".8" d="M160.478 65.899c105.213.287 302.582 113.61 302.39 190.819-.192 77.209-198.137 189.67-303.35 189.383-88.797-.288-111.068-85.447-110.78-190.436.288-104.894 33.023-189.958 111.74-189.67" stroke="#F8B3DC" stroke-width="2.667" stroke-miterlimit="10"/><path d="M83.297 171.654l78.429 39.658c3.648 1.916 4.128 6.993.768 9.484L85.601 273.29c-3.744 2.683-8.256.479-8.16-4.119l-.672-25.481 19.68 9.963-4.417-2.203a13.09 13.09 0 007.623.654 13.061 13.061 0 006.681-3.72c2.976-3.257 6.72-8.142 4.416-13.028-2.304-4.789-8.064-5.747-13.92-1.628-5.28 3.64-6.528 10.154-5.76 11.495l-9.6-4.789.193-32.378 41.278 20.882-8.063-4.023c2.975 1.533 9.503 2.682 15.359-3.448 4.992-5.077 5.568-11.783 3.072-15.615-2.112-3.257-8.448-6.035-15.935.192-3.744 3.161-6.048 9.867-4.896 11.878l-37.055-18.679-.192-22.703a5.566 5.566 0 015.343-5.471 5.576 5.576 0 012.72.585m151.677 97.323c-.576-.576-.672-3.84-.672-3.84l-.96-39.263h-39.838c-.48.288.192 30.815.192 39.935 0 .768-.672 2.304-.96 2.88-.288.768-1.632 1.632-3.456 1.632h-2.88c-.96 0-2.304-.384-2.304-.384s-1.92-.192-2.592-.864c-.576-.576-1.344-1.632-1.536-2.304-.288-.96-.576-4.224-.576-5.376v-82.557s.384-2.112.768-2.88a9.61 9.61 0 011.536-2.208c.384-.384 1.824-1.152 1.824-1.152s.96-.672 1.536-.768c1.92-.384 5.28-.096 6.72 1.344.384.48.96 2.016 1.152 3.552 1.152 8.928.576 38.015.576 38.015h39.934v-35.903s.192-2.592.48-3.36c.288-.864.576-1.728.864-2.016.384-.576 1.344-1.536 1.92-1.824 1.44-.48 3.744-.384 6.336-.288 2.016.192 3.264 1.152 3.744 2.112.48.96.864 4.416.864 4.416v87.069s-.768 3.744-.96 4.032c-.384.384-.96 1.152-1.344 1.344-1.44.576-6.048.576-6.048.576l-2.688-.576c-.96-.288-1.44-1.056-1.632-1.344" fill="#fff"/><path d="M234.973 268.977c-.576-.576-.672-3.84-.672-3.84l-.96-39.263h-39.838c-.48.288.192 30.815.192 39.935 0 .768-.672 2.304-.96 2.88-.288.768-1.632 1.632-3.456 1.632h-2.88c-.96 0-2.304-.384-2.304-.384s-1.92-.192-2.592-.864c-.576-.576-1.344-1.632-1.536-2.304-.288-.96-.576-4.224-.576-5.376v-82.557s.384-2.112.768-2.88a9.61 9.61 0 011.536-2.208c.384-.384 1.824-1.152 1.824-1.152s.96-.672 1.536-.768c1.92-.384 5.28-.096 6.72 1.344.384.48.96 2.016 1.152 3.552 1.152 8.928.576 38.015.576 38.015h39.934v-35.903s.192-2.592.48-3.36c.288-.864.576-1.728.864-2.016.384-.576 1.344-1.536 1.92-1.824 1.44-.48 3.744-.384 6.336-.288 2.016.192 3.264 1.152 3.744 2.112.48.96.864 4.416.864 4.416v87.069s-.768 3.744-.96 4.032c-.384.384-.96 1.152-1.344 1.344-1.44.576-6.048.576-6.048.576l-2.688-.576c-.96-.288-1.44-1.056-1.632-1.344v0z" stroke="#fff" stroke-width="5.333" stroke-miterlimit="10"/><path d="M262.332 269.937c-.96-.384-3.456-2.112-4.32-5.952l.48-84.573c.192 0-.288-2.016.576-5.28.192-.672 1.248-2.112 2.4-2.304 1.152-.192 3.264-.576 5.28-.48 1.92.096 3.168.576 4.032 2.112.96 1.824.384 16.896.384 16.896l.576 62.206s0 3.167.672 4.415c.48.96 1.632 2.208 4.992 2.304 7.871.192 19.295.48 24.479.288 3.456-.192 5.76-2.88 6.528-3.552 1.727-1.727 1.919-4.607 1.919-7.199l-.096-61.822c0-6.72-.864-11.136 2.016-13.536.576-.48 2.592-1.344 3.552-1.536 1.248-.192 2.208-.192 4.32.192 2.4.48 4.032 3.072 4.128 3.456l.192 3.072v80.637s3.648 0 4.896.384c.48.096.672.48 1.056.672.96.768 1.824 3.936 1.536 3.84v26.879s0 1.728-.96 2.784l-2.304 1.152h-3.84c.096.192-2.88-.288-3.552-.768-.48-.288-1.056-2.88-.96-3.84v-20.063h-51.358s-4.896.288-6.624-.384" fill="#fff"/><path d="M262.332 269.937c-.96-.384-3.456-2.112-4.32-5.952l.48-84.573c.192 0-.288-2.016.576-5.28.192-.672 1.248-2.112 2.4-2.304 1.152-.192 3.264-.576 5.28-.48 1.92.096 3.168.576 4.032 2.112.96 1.824.384 16.896.384 16.896l.576 62.206s0 3.167.672 4.415c.48.96 1.632 2.208 4.992 2.304 7.871.192 19.295.48 24.479.288 3.456-.192 5.76-2.88 6.528-3.552 1.727-1.727 1.919-4.607 1.919-7.199l-.096-61.822c0-6.72-.864-11.136 2.016-13.536.576-.48 2.592-1.344 3.552-1.536 1.248-.192 2.208-.192 4.32.192 2.4.48 4.032 3.072 4.128 3.456l.192 3.072v80.637s3.648 0 4.896.384c.48.096.672.48 1.056.672.96.768 1.824 3.936 1.536 3.84v26.879s0 1.728-.96 2.784l-2.304 1.152h-3.84c.096.192-2.88-.288-3.552-.768-.48-.288-1.056-2.88-.96-3.84v-20.063h-51.358s-4.896.288-6.624-.384v0z" stroke="#fff" stroke-width="5.333" stroke-miterlimit="10"/><path d="M378.776 185.844l-15.072 49.054h30.911l-15.839-49.054zm27.935 84.861a10.551 10.551 0 01-1.248-2.4l-7.392-22.655h-37.247l-7.295 22.079s-1.344 2.4-1.92 2.688c-1.152.576-3.072.768-3.072.768l-5.472-.288s-2.784-.288-3.072-.576c-.288-.48-.288-2.496-.096-3.264 4.224-22.655 28.223-87.645 28.223-87.645s1.92-3.84 2.496-4.512a15.368 15.368 0 016.24-2.88s2.784-.48 4.32-.192c1.464.384 2.881.931 4.223 1.632l.864.48c.864.576 1.728 1.632 1.92 2.016.576.672 1.44 2.496 1.44 2.496l29.567 89.277c.288.48-.192 2.112-.288 2.4-.192.384-1.44.96-1.632.768l-1.92.288h-6.431s-1.728-.096-2.208-.48" fill="#fff"/><path d="M378.776 185.844l-15.072 49.054h30.911l-15.839-49.054zm27.935 84.861a10.551 10.551 0 01-1.248-2.4l-7.392-22.655h-37.247l-7.295 22.079s-1.344 2.4-1.92 2.688c-1.152.576-3.072.768-3.072.768l-5.472-.288s-2.784-.288-3.072-.576c-.288-.48-.288-2.496-.096-3.264 4.224-22.655 28.223-87.645 28.223-87.645s1.92-3.84 2.496-4.512a15.368 15.368 0 016.24-2.88s2.784-.48 4.32-.192c1.464.384 2.881.931 4.223 1.632l.864.48c.864.576 1.728 1.632 1.92 2.016.576.672 1.44 2.496 1.44 2.496l29.567 89.277c.288.48-.192 2.112-.288 2.4-.192.384-1.44.96-1.632.768l-1.92.288h-6.431s-1.728-.096-2.208-.48v0z" stroke="#fff" stroke-width="5.333" stroke-miterlimit="10"/><path d="M76.77 303.536h7.968v-8.832h2.304v20.735h-2.4v-9.983h-7.968v9.887H74.37v-20.735h2.304l.096 8.928zm31.679 7.968c0 1.344.576 2.399 2.016 2.399 2.304 0 2.88-1.535 2.88-3.167v-3.648c-2.304 1.248-4.896 1.44-4.896 4.416zm-1.728-7.296c0-3.168 1.632-4.608 4.512-4.608 3.072 0 4.224 1.92 4.224 3.936v9.12c0 .672.288 1.247.96 1.247l.384-.095v1.631l-.96.192c-1.248 0-1.92-.192-2.304-2.303a3.843 3.843 0 01-3.456 2.495c-2.688 0-3.84-1.44-3.84-4.223 0-2.784 1.056-3.744 3.84-4.8.96-.288 2.4-.96 2.688-1.152.48-.192.576-.96.576-1.728 0-1.824-.576-2.4-2.4-2.4-1.632 0-2.208.96-2.208 2.688h-2.016zm30.815 9.408h5.472V300.08h2.208v13.44h1.44v6.047h-1.92v-4.128h-9.408V300.08h2.208v13.536zm29.759-13.536v11.616l-.192 1.92.48-1.92 5.088-11.616h2.592v15.359h-2.112v-11.711l.192-1.92-.48 1.92-5.088 11.711h-2.688V300.08h2.208zm29.663 7.872c0 3.552.576 6.047 3.168 6.047s3.168-2.495 3.168-6.047c0-4.8-.96-6.432-3.168-6.432-2.4 0-3.264 1.728-3.264 6.432h.096zm8.64-.288c0 6.335-2.112 8.159-5.472 8.159-3.36 0-5.568-1.92-5.568-8.159 0-5.088 1.728-8.064 5.568-8.064s5.472 2.88 5.472 8.064zm21.503-1.248h5.472v-6.336h2.112v15.359h-2.112v-7.199h-5.472v7.199h-2.304V300.08h2.208l.096 6.336zm28.895 5.088c0 1.344.576 2.399 2.016 2.399 2.304 0 2.88-1.535 2.88-3.167v-3.648c-2.304 1.248-4.896 1.44-4.896 4.416zm-1.632-7.296c0-3.168 1.536-4.608 4.416-4.608 3.072 0 4.32 1.92 4.32 3.936v9.12c0 .672.192 1.247.768 1.247l.48-.095v1.631l-.864.192c-1.344 0-2.016-.192-2.4-2.303a3.843 3.843 0 01-3.456 2.495c-2.592 0-3.84-1.44-3.84-4.223 0-2.784 1.056-3.744 3.84-4.8.96-.288 2.4-.96 2.688-1.152.48-.192.576-.96.576-1.728 0-1.824-.576-2.4-2.4-2.4-1.632 0-2.208.96-2.208 2.688h-1.92zm38.495-4.128v15.359h-2.208v-13.535h-4.8v6.048c0 4.512-.576 7.679-3.264 7.679-.576 0-.96-.096-1.344-.288v-1.727l.96.096c1.152 0 1.632-.96 1.632-5.856v-7.776h9.024zm22.079 13.536h2.304c2.016 0 2.784-.96 2.784-2.688 0-1.632-.768-2.688-2.688-2.688h-2.304l-.096 5.376zm0-7.2h3.072c2.496 0 4.224 1.92 4.224 4.608 0 2.687-1.728 4.415-4.224 4.415h-5.28V300.08h2.208v6.336zm28.895 0h5.376v-6.336h2.208v15.359h-2.208v-7.199h-5.472v7.199h-2.208V300.08h2.208l.096 6.336zm41.663 9.023h-2.304V300.08h2.208l.096 15.359zM373.4 313.52h2.304c2.112 0 2.88-.864 2.88-2.592 0-1.632-.768-2.688-2.688-2.688H373.4v5.28zm0-7.104h3.168c2.496 0 4.224 1.92 4.224 4.608 0 2.687-1.824 4.415-4.224 4.415h-5.28V300.08h2.112v6.336zm34.751-11.328c.288 1.344 1.152 1.92 2.4 1.92s2.016-.48 2.304-1.92h1.152c-.096 2.4-1.536 3.36-3.552 3.36-1.92 0-3.36-.96-3.456-3.36h1.152zm-.576 4.992v11.616l-.288 1.92.48-1.92 5.088-11.616h2.688v15.359h-2.208v-11.711l.288-1.92-.48 1.92-5.184 11.711h-2.592V300.08h2.208zM76.578 338.095h7.68v-17.952h2.208v17.952h1.632v6.719h-2.112v-4.799H74.37v-19.968h2.208v18.048zm35.615-12.768v11.232c0 .576-.096 1.248-.288 1.824l.48-1.824 4.992-11.232h2.496v14.88h-2.112v-11.328l.288-1.92-.48 1.92-4.992 11.328h-2.496v-14.88h2.112zm40.606 7.392c0 2.88.192 6.048 2.88 6.048 2.112 0 2.88-2.304 2.88-6.336 0-1.92-.288-5.76-2.88-5.76-2.688 0-2.88 3.456-2.88 6.048zm-7.871 0c0 2.88.192 6.048 2.88 6.048 2.208 0 2.88-2.304 2.88-6.336 0-1.92-.192-5.76-2.88-5.76-2.688 0-2.88 3.456-2.88 6.048zm7.871-12.576v6.816c.672-1.344 1.92-2.016 3.072-2.016 3.744 0 4.8 3.456 4.8 7.488 0 4.32-.96 8.16-4.8 8.16-1.44 0-2.304-.768-3.072-1.92v6.527h-2.111v-6.623c-.864 1.248-1.728 1.92-3.168 1.92-4.032 0-4.8-3.84-4.8-8.064 0-4.032 1.152-7.488 4.896-7.488 1.152 0 2.4.576 3.072 1.92v-6.72h2.111zm32.831 12.576c0 2.88.192 6.048 2.88 6.048 2.208 0 2.88-2.304 2.88-6.336 0-1.92-.192-5.76-2.88-5.76-2.592 0-2.88 3.456-2.88 6.048zm0-5.76c.768-1.344 2.112-2.016 3.072-2.016 3.84 0 4.896 3.36 4.896 7.488 0 4.512-.96 8.16-4.8 8.16-1.44 0-2.304-.768-3.168-1.92v6.719h-2.112v-20.159h2.112v1.728zm32.447 5.952c0 3.456.672 5.856 3.072 5.856 2.592 0 3.168-2.4 3.168-5.856 0-4.512-.96-6.24-3.168-6.24s-3.072 1.728-3.072 6.24zm8.448-.192c0 6.048-2.112 7.872-5.376 7.872-3.168 0-5.28-1.824-5.28-7.872 0-4.992 1.632-7.776 5.28-7.776 3.744 0 5.376 2.784 5.376 7.68v.096zm24.959 5.664h2.4c1.92 0 2.496-.864 2.496-2.592 0-1.728-.96-2.592-2.496-2.592h-2.4v5.184zm0-6.912h2.208c1.632 0 2.304-.672 2.304-2.304 0-1.44-.672-2.112-2.208-2.112h-2.304v4.416zm-2.112-6.144h4.8c2.208 0 4.032 1.344 4.032 3.456 0 1.92-.96 3.264-2.304 3.552 1.632.48 2.592 1.728 2.592 3.84 0 2.496-1.728 4.032-3.648 4.032h-5.472v-14.88zm33.599 7.584c0 3.456.672 5.856 3.168 5.856s3.072-2.4 3.072-5.856c0-4.512-.96-6.24-3.072-6.24-2.304 0-3.168 1.728-3.168 6.24zm8.448-.192c0 6.048-2.016 7.872-5.28 7.872-3.264 0-5.376-1.824-5.376-7.872 0-4.992 1.632-7.776 5.376-7.776 3.648 0 5.28 2.784 5.28 7.68v.096zm25.535-12.288c.288 1.344 1.152 1.92 2.304 1.92 1.248 0 1.92-.48 2.304-1.92h1.056c0 2.4-1.536 3.36-3.456 3.36-1.728 0-3.168-.96-3.264-3.36h1.056zm-.576 4.8v11.328l-.192 1.824.48-1.824 4.8-11.232h2.688v14.88h-2.112v-11.328l.192-1.92-.48 1.92-4.896 11.328h-2.592v-14.88l2.112-.096zM81.474 347.118l-2.592 10.176h5.088l-2.496-10.176zm-1.344-1.536h2.88l5.376 19.296h-2.4l-1.536-5.568h-6.048l-1.44 5.664h-2.4l5.568-19.392zm30.239 4.992v1.728h-5.568v12.576h-2.016v-14.4l7.584.096zm16.319 7.104c0 2.784.192 5.856 2.784 5.856 2.112 0 2.784-2.208 2.784-6.048 0-1.92-.192-5.568-2.88-5.568-2.4 0-2.688 3.264-2.688 5.76zm0-5.472c.672-1.344 1.92-2.016 2.976-2.016 3.648 0 4.8 3.264 4.8 7.296 0 4.32-.96 7.776-4.608 7.776-1.536 0-2.4-.672-3.168-1.92v6.528h-1.92v-19.296h1.92v1.632zm29.472 4.32c0-2.208-.288-4.608-2.4-4.608-2.208 0-2.496 2.688-2.496 4.608h4.896zm2.112 3.552c0 2.88-1.344 5.184-4.32 5.184-3.072 0-4.8-1.824-4.8-7.584 0-3.552.864-7.488 4.608-7.488 4.032 0 4.512 4.224 4.512 8.064h-7.008c0 3.264.192 5.28 2.592 5.28 1.92 0 2.4-1.824 2.4-3.456h2.016zm22.846-9.504v1.728h-5.471v12.576h-2.112v-14.4l7.583.096zm15.744 10.656c0 1.248.48 2.208 1.92 2.208 2.112 0 2.592-1.44 2.592-2.88v-3.456c-2.112 1.248-4.512 1.344-4.512 4.128zm-1.632-6.816c0-2.88 1.44-4.224 4.128-4.224 2.88 0 4.032 1.728 4.032 3.648v8.448c0 .672.287 1.152.767 1.152h.48v1.44c-.269.13-.564.196-.863.192-1.152 0-1.92-.192-2.208-2.112a3.657 3.657 0 01-3.168 2.304c-2.496 0-3.744-1.344-3.744-3.936 0-2.592 1.152-3.456 3.648-4.416l2.496-1.056c.576-.288.576-.96.576-1.728 0-1.632-.576-2.208-2.208-2.208-1.536 0-2.112.864-2.112 2.496h-1.824zm26.303 10.56v-12.672h-3.84v-1.728h9.6v1.728h-3.744v12.576l-2.016.096zm21.695-7.104c0 3.36.672 5.76 3.072 5.76s2.88-2.4 2.88-5.76c0-4.32-.768-5.952-2.88-5.952-2.208 0-3.072 1.632-3.072 5.952zm8.16-.192c0 5.856-1.92 7.68-5.088 7.68s-5.184-1.824-5.184-7.68c0-4.8 1.632-7.488 5.184-7.488 3.456 0 5.088 2.688 5.088 7.488zm17.376 0c0 2.784.192 5.856 2.688 5.856 2.208 0 2.88-2.208 2.88-6.048 0-1.92-.288-5.568-2.88-5.568-2.496 0-2.688 3.264-2.688 5.76zm0-5.472c.672-1.344 1.92-2.016 2.88-2.016 3.648 0 4.8 3.264 4.8 7.296 0 4.32-.96 7.776-4.608 7.776-1.44 0-2.304-.672-3.072-1.92v6.528h-2.016v-19.296h1.92l.096 1.632z" fill="#fff"/><defs><linearGradient id="paint0_linear" x1="16.466" y1="275.267" x2="472.954" y2="216.665" gradientUnits="userSpaceOnUse"><stop stop-color="#C73498"/><stop offset=".1" stop-color="#C73498"/><stop offset="1" stop-color="#FF0098"/></linearGradient></defs></svg>