<svg width="774" height="600" fill="none" xmlns="http://www.w3.org/2000/svg"><path d="M550.004 170.744a161.745 161.745 0 01-22.43 82.348s-56.6 19.968-140.068 19.968c-83.466 0-140.069-19.968-140.069-19.968A162.484 162.484 0 01418.741 11.3a162.475 162.475 0 01114.427 87.44 162.477 162.477 0 0116.83 72.004z" fill="#ff6a00"/><path d="M460.31 189.005a4.5 4.5 0 00-1.317-3.18 4.5 4.5 0 00-3.179-1.316h-8.836V74.166a4.497 4.497 0 00-4.496-4.496h-88.83a20.68 20.68 0 00-5.946.678 8.005 8.005 0 00-4.15 2.569 8.637 8.637 0 00-1.583 5.483v11.893c0 3.964-.059 8.29-.178 12.975-.13 4.65-.417 27.913-.868 32.765s-1.106 9.67-1.962 14.438a91.089 91.089 0 01-3.509 13.558 57.473 57.473 0 01-5.53 11.751 33.063 33.063 0 01-5.947 7.135 7.563 7.563 0 01-3.83 1.82 9.009 9.009 0 00-3.46 1.285c-1.356.903-2.022 2.818-2.022 5.756v39.676a4.495 4.495 0 004.496 4.495h26.366a4.496 4.496 0 004.496-4.495v-18.268h74.653v18.268c0 1.192.474 2.336 1.317 3.178a4.492 4.492 0 003.179 1.317h26.617a4.492 4.492 0 003.178-1.317 4.492 4.492 0 001.318-3.178v-42.34zm-48.702-4.496H361.43a51.865 51.865 0 006.494-13.463 116.944 116.944 0 004.032-16.091 167.726 167.726 0 002.082-16.163c.404-5.257.605-28.353.605-32.266v-7.909h36.965z" fill="#fff"/><path d="M254.865 264.517a162.362 162.362 0 00207.276 50.489 162.374 162.374 0 0057.94-50.49s-65.697 22.502-132.632 22.502-132.582-22.501-132.582-22.501z" fill="#74af0d"/><path d="M387.497 287.015c66.934 0 132.632-22.501 132.632-22.501s-55.718 45.003-133.612 45.003-131.652-45.003-131.652-45.003 65.685 22.501 132.632 22.501z" fill="#94cc00"/><g fill="#ff6a00"><path d="M116.065 535.638H60.302a57.373 57.373 0 007.197-14.963 131.692 131.692 0 004.492-17.895 192.362 192.362 0 002.314-17.957c.452-5.85.678-31.54.678-35.891v-8.845h41.124zm49.143 0h-9.849V412.831a5.006 5.006 0 00-3.084-4.618 5.005 5.005 0 00-1.912-.38H59.458a471.4 471.4 0 01-7.813-.061 22.9 22.9 0 00-6.652.75 9.044 9.044 0 00-4.626 2.849c-1.121 1.367-1.697 3.445-1.697 6.262v13.196c0 4.45-.068 9.248-.205 14.397-.134 5.143-.453 31.039-.956 36.427a191.527 191.527 0 01-2.18 16.095 102.27 102.27 0 01-3.897 15.097 63.662 63.662 0 01-6.168 13.061 36.692 36.692 0 01-6.806 8.155 7.559 7.559 0 01-3.825 1.75 10.01 10.01 0 00-4.06 1.46c-1.488.993-2.232 3.126-2.232 6.396v44.12a5.003 5.003 0 004.997 4.997h29.311a4.995 4.995 0 004.997-4.997v-20.312h82.967v20.312a5.004 5.004 0 004.996 4.997h29.59a5 5 0 003.529-1.466 5.013 5.013 0 001.467-3.531v-47.154a5.013 5.013 0 00-1.467-3.531 5 5 0 00-3.53-1.467m264.837-58.827l51.405-58.342a6.175 6.175 0 001.021-6.66 6.171 6.171 0 00-5.678-3.624H445.17a6.172 6.172 0 00-4.698 2.16l-54.242 63.144v-59.124a6.174 6.174 0 00-6.17-6.17h-26.422a6.168 6.168 0 00-6.168 6.17v150.853a6.167 6.167 0 006.168 6.17l26.402.001a6.17 6.17 0 006.169-6.17v-42.021l17.303-19.089 38.84 64.319a6.173 6.173 0 005.316 2.992h29.949a6.169 6.169 0 005.263-9.472z"/><path d="M607.844 527.652a6.175 6.175 0 00-6.065-.227 91.426 91.426 0 01-41.998 9.997c-27.471 0-47.417-20.023-47.417-47.636 0-28.046 19.761-47.637 48.044-47.637 13.694 0 26.884 3.342 40.322 10.212a6.169 6.169 0 009.047-5.522V422.32a6.167 6.167 0 00-3.146-5.4c-4.77-2.694-22.228-11.487-47.23-11.487-49.02 0-85.99 36.262-85.99 84.33s36.692 84.332 85.332 84.332c28.21 0 46.89-10.13 48.927-11.314a6.172 6.172 0 003.145-5.399V532.96a6.164 6.164 0 00-2.96-5.297m-410.921-119.5h25.97a6.17 6.17 0 016.169 6.17v80.104l84.695-86.716a6.236 6.236 0 014.43-1.861h.843a6.17 6.17 0 016.169 6.17v153.18a6.17 6.17 0 01-6.17 6.171h-25.917a6.17 6.17 0 01-6.169-6.17v-80.279l-84.868 86.922a6.17 6.17 0 01-4.442 1.862h-.628a6.17 6.17 0 01-6.168-6.171V414.364a6.17 6.17 0 016.168-6.17m441.333-.031h25.97a6.17 6.17 0 016.169 6.17v80.104l84.704-86.716a6.23 6.23 0 014.432-1.861h.833a6.167 6.167 0 016.167 6.17v153.18a6.167 6.167 0 01-6.168 6.17l-25.97.001a6.17 6.17 0 01-6.169-6.17l.001-80.279-84.87 86.922a6.166 6.166 0 01-4.44 1.862h-.628a6.17 6.17 0 01-6.168-6.171V414.364a6.17 6.17 0 016.168-6.17"/></g></svg>