<svg version="1.1" id="Layer_1" xmlns="http://www.w3.org/2000/svg" x="0" y="0" viewBox="0 0 75.001 31.84" xml:space="preserve"><g id="Document" transform="scale(1 -1)"><g id="Spread" transform="translate(0 -31.84)"><g id="Layer_1_1_"><g id="Group"><g id="Group_1"><path d="M0 15.92c0 8.787 7.116 15.92 15.883 15.92 8.766 0 15.881-7.133 15.881-15.92S24.649 0 15.883 0C7.116 0 0 7.133 0 15.92zm29.603 0c0 7.591-6.147 13.753-13.72 13.753-7.575 0-13.721-6.162-13.721-13.753S8.308 2.167 15.883 2.167c7.573 0 13.72 6.162 13.72 13.753zm-20.7-8.174l1.338 3.02c3.061-1.515 9.85-1.67 7.69 2.03h5.102c.78-4.637-6.137-7.986-14.13-5.05zm3.629 5.891l-2.064 1.435h11.519c.656-.378.946-1.144.966-1.435H12.532zm-3.321 2.196l-2.064 1.435h11.034a19.095 19.095 0 002.956-1.435H9.211zM6.06 18.029l-2.064 1.435h11.991c-.12-.644.019-1.139.494-1.435H6.06zm5.478 2.299c1.032 3.766 7.389 5.325 12.666 3.342l-1.338-3.019c-2.912 1.054-5.294 1.081-6.776-.323h-4.552z" fill="#52b8e9"/><g id="Group_2"><path d="M37.485 20.363l.388.785c.209-.122 2.496-.74 2.337.021-.079.377-.792.376-1.186.481-.453.114-.865.282-1.164.598a.826.826 0 00-.211.558c0 .242.341 1.987 3.681.834l-.357-.721c-.192.112-2.291.68-2.145-.019.072-.346.727-.346 1.089-.442.591-.092 1.069-.266 1.347-.578a.905.905 0 00.23-.609c0-.263-.371-2.165-4.009-.908zm4.577-.293v3.969h1.093V22.22l1.645 1.819h1.372l-1.934-1.893 1.693-1.698 1.495 3.583h1.495l1.653-3.961h-1.087l-.34.815H47.2l-.34-.815h-1.965l-1.74 1.814V20.07h-1.093zm8.602.001v3.969h1.853c1.576 0 2.365-.645 2.365-1.935 0-.403-.085-2.034-2.324-2.034h-1.894zm2.97 2.022c0 1.148-.929 1.189-1.842 1.189v-2.467c1.331 0 1.842.159 1.842 1.278zm-4.833-.379l-.628 1.504-.627-1.504h1.255z"/><g id="Group_3"><path d="M38.037 17.975H37.5v-3.784h2.85v.495h-2.313v3.289zm3.397 0h-.536v-3.784h.536v3.784zm3.951-1.194h.546a1.22 1.22 0 01-.172.514 1.411 1.411 0 01-.382.409 1.794 1.794 0 01-.553.271 2.3 2.3 0 01-.685.098c-.313 0-.594-.047-.841-.141a1.733 1.733 0 01-.631-.4 1.737 1.737 0 01-.396-.628 2.342 2.342 0 01-.138-.822c.001-.3.047-.571.138-.815a1.73 1.73 0 011.005-1.032c.238-.094.505-.143.801-.143.334 0 .625.063.872.187s.444.307.591.547l.052-.635h.376v2.026h-1.699v-.495h1.198a1.222 1.222 0 00-.215-.595 1.2 1.2 0 00-.479-.391 1.645 1.645 0 00-.691-.139c-.289.001-.536.062-.743.182s-.367.291-.479.512a1.764 1.764 0 00-.17.791c.001.309.057.574.169.795.112.222.273.392.482.511.209.119.462.18.756.18.346-.001.629-.07.849-.205a.981.981 0 00.439-.582zm2.002 1.194h-.536v-3.784h.536v1.788h2.303v-1.788h.537v3.784h-.537v-1.502h-2.303v1.502zm3.273-.001v-.495h1.444v-3.288h.536v3.288h1.444v.495H50.66zm5.165-3.783h.568l.5 1.078h1.933l.479-1.078h.558l-1.683 3.784h-.557l-1.798-3.784zm1.292 1.573l.766 1.611.724-1.611h-1.49zm3.715 2.211h-.536v-3.784h2.85v.495h-2.314v3.289zm3.356 0h-.536v-3.784h2.85v.495h-2.314v3.289zm2.611-1.893c.001-.302.048-.575.142-.819.095-.244.231-.453.409-.628.18-.174.396-.308.651-.401.255-.094.544-.142.867-.142a2.5 2.5 0 01.868.142c.257.093.474.227.653.401.179.175.316.384.41.628.094.244.142.517.142.819 0 .303-.048.576-.142.82a1.729 1.729 0 01-1.06 1.029 2.493 2.493 0 01-.866.142c-.324 0-.614-.048-.87-.142a1.814 1.814 0 01-.652-.401 1.755 1.755 0 01-.41-.628 2.286 2.286 0 01-.142-.82zm.557 0c.001.311.061.577.179.798.118.221.29.391.514.51.225.118.498.178.819.178.322 0 .595-.06.821-.178.226-.119.397-.289.516-.51.119-.221.179-.487.179-.798 0-.308-.06-.573-.178-.795a1.197 1.197 0 00-.513-.51c-.224-.119-.498-.179-.82-.18-.322 0-.597.06-.822.178a1.21 1.21 0 00-.516.51 1.684 1.684 0 00-.179.797zm3.732 1.893l1.693-2.205v-1.579h.537v1.579l1.683 2.205h-.642l-1.318-1.762-1.303 1.762h-.65z" id="Group_4"/><path d="M37.083 12.051l1.271-3.784h.636l1.048 3.263 1.057-3.263h.636l1.272 3.784h-.568l-1.053-3.31-1.032 3.31h-.615l-1.032-3.31-1.052 3.31h-.568zm6.91 0h-.536V8.267h.536v1.788h2.303V8.267h.537v3.784h-.537v-1.502h-2.303v1.502zm3.705-3.784h3.043v.495h-2.506v1.193h2.319v.495h-2.319v1.105h2.47v.495h-3.007V8.267zm3.725 0h3.043v.495H51.96v1.193h2.318v.495H51.96v1.105h2.47v.495h-3.007V8.267zm4.262 3.784h-.537V8.267h2.85v.495h-2.313v3.289zm5.873-1.099c-.001.255-.06.472-.175.65a1.083 1.083 0 01-.51.407 2.16 2.16 0 01-.822.141c-.35-.001-.642-.047-.879-.139a1.129 1.129 0 01-.535-.391 1.035 1.035 0 01-.18-.611.929.929 0 01.119-.486.88.88 0 01.362-.325c.162-.085.366-.147.613-.191l.933-.166c.224-.037.389-.097.494-.181a.423.423 0 00.158-.356.53.53 0 00-.268-.469c-.178-.113-.438-.17-.78-.172-.39-.001-.684.071-.88.217s-.299.367-.309.664h-.567c.001-.455.147-.797.438-1.028.291-.232.72-.347 1.286-.348.355.001.656.049.899.144.244.096.428.231.554.408.126.176.188.386.189.631 0 .21-.042.382-.128.515a.884.884 0 01-.389.32 2.893 2.893 0 01-.66.192l-.829.161a1.96 1.96 0 00-.378.105.515.515 0 00-.222.16.41.41 0 00-.073.251c0 .192.083.339.249.443.166.104.413.155.742.157.328.001.574-.056.741-.17.166-.115.258-.293.275-.533h.532z" id="Group_5"/></g></g></g></g></g></g></g></svg>