<svg width="131" height="29" fill="none" xmlns="http://www.w3.org/2000/svg"><g clip-path="url(#clip0_3773_492)" fill-rule="evenodd" clip-rule="evenodd" fill="#F41240"><path d="M26.623 1.534a2.763 2.763 0 01.85 2.031v.073a2.77 2.77 0 01-.85 1.975 2.795 2.795 0 01-2.053.841 2.919 2.919 0 01-2.043-.816 2.859 2.859 0 01-.876-2v-.073a2.74 2.74 0 01.85-2.031A2.848 2.848 0 0124.57.692a2.82 2.82 0 012.053.842zM130.794 23.77v4.683h-14.322V3.565h5.822v20.206h8.5zM102.759 3.566l10.072 24.888h-5.534l-1.972-5.333H95.028l-1.989 5.333h-5.405l10.04-24.888h5.085zm-6.127 15.222h7.089l-3.529-9.524-3.56 9.524zM78.283 3.565h5.758v24.888h-4.78L66.737 13.358v15.095h-5.774V3.565h4.811l12.51 15.095V3.565zm-32.3 4.476a9.39 9.39 0 00-3.352.572 7.493 7.493 0 00-2.599 1.635 7.03 7.03 0 00-1.684 2.523 8.553 8.553 0 00-.577 3.238c-.02 1.1.177 2.195.577 3.222a7.412 7.412 0 004.25 4.19 9.164 9.164 0 003.32.572 10.334 10.334 0 003.353-.556 8.54 8.54 0 001.17-.508v-7.3h5.31v10.078a15.482 15.482 0 01-4.764 2.35 18.54 18.54 0 01-5.405.825 15.178 15.178 0 01-5.453-.953 13.089 13.089 0 01-4.379-2.666 12.659 12.659 0 01-2.87-4.095 12.914 12.914 0 01-1.011-5.159 14.19 14.19 0 01.167-2.222 13.663 13.663 0 001.533-1.311 11.979 11.979 0 003.528-6.819 13.32 13.32 0 013.048-1.587 15.6 15.6 0 015.517-.937 16.865 16.865 0 016.03 1.096c.56.204 1.107.444 1.636.717.183.095.52.292 1.01.587v5.318a19.81 19.81 0 00-2.501-1.556 11.66 11.66 0 00-1.78-.667 14.8 14.8 0 00-1.99-.412 14.12 14.12 0 00-2.084-.175zm-24.33 7.793c.973.216 1.968.322 2.966.318a13.69 13.69 0 002.855-.292v12.593h-5.822V15.835zm-4.22 5.53a7.328 7.328 0 01-.993 3.581 7.118 7.118 0 01-3.314 3.041 10.384 10.384 0 01-5.242.953c-1.97-.12-3.568-.456-4.795-1.007a13.05 13.05 0 01-2.528-1.4v-6.031a14.797 14.797 0 003.744 2.571c1.364.652 2.444 1.012 3.24 1.08a6.051 6.051 0 002.27-.223 3.403 3.403 0 001.572-.952 2.12 2.12 0 00.498-1.38 1.932 1.932 0 00-.777-1.61 9.228 9.228 0 00-1.998-1.143 69.534 69.534 0 00-2.669-1.095 15.945 15.945 0 01-2.624-1.296 8.092 8.092 0 01-1.973-1.704 5.093 5.093 0 01-1.068-2.12 9.596 9.596 0 01-.279-2.286 8.337 8.337 0 01.577-2.737 6.566 6.566 0 012.15-2.81c1.039-.83 2.463-1.31 4.272-1.447a16.917 16.917 0 014.405.223 12.446 12.446 0 001.097 5.247 13.135 13.135 0 00-1.627-.594 7.695 7.695 0 00-2.717-.39 4.554 4.554 0 00-1.5.317c-.254.115-.48.282-.665.49a2.81 2.81 0 00-.388.602 3.33 3.33 0 00-.263 1.724 2.023 2.023 0 00.94 1.438 6.972 6.972 0 001.989.997c.744.245 1.706.592 2.887 1.041 1.064.379 2.079.883 3.021 1.502a6.155 6.155 0 011.98 2.301c.499.966.765 2.033.779 3.117z"/></g><defs><clipPath id="clip0_3773_492"><path fill="#fff" transform="translate(.496 .692)" d="M0 0h130.298v28.246H0z"/></clipPath></defs></svg>