<svg width="132" height="29" fill="none" xmlns="http://www.w3.org/2000/svg"><g clip-path="url(#clip0_3773_59)" fill-rule="evenodd" clip-rule="evenodd"><path d="M26.976 1.534a2.764 2.764 0 01.85 2.031v.073a2.767 2.767 0 01-.85 1.975 2.796 2.796 0 01-2.053.841 2.92 2.92 0 01-2.043-.816 2.859 2.859 0 01-.876-2v-.073a2.74 2.74 0 01.85-2.031 2.848 2.848 0 012.07-.842 2.82 2.82 0 012.052.842z" fill="#EB5C60"/><path d="M131.148 23.77v4.683h-14.323V3.565h5.822v20.206h8.501zM103.112 3.566l10.072 24.888h-5.533l-1.973-5.333H95.381l-1.988 5.333h-5.405l10.04-24.888h5.084zm-6.127 15.222h7.089l-3.528-9.524-3.56 9.524zM78.637 3.565h5.758v24.888h-4.78L67.09 13.358v15.095h-5.774V3.565h4.812l12.51 15.095V3.565zM46.335 8.041a9.39 9.39 0 00-3.352.572 7.493 7.493 0 00-2.598 1.635A7.032 7.032 0 0038.7 12.77a8.555 8.555 0 00-.578 3.238 8.459 8.459 0 00.578 3.222 7.412 7.412 0 004.25 4.19 9.163 9.163 0 003.32.572c1.14.001 2.274-.187 3.352-.556.403-.14.794-.31 1.171-.508v-7.3h5.309v10.078a15.482 15.482 0 01-4.764 2.35 18.54 18.54 0 01-5.405.825 15.185 15.185 0 01-5.453-.953 13.087 13.087 0 01-4.378-2.666 12.66 12.66 0 01-2.871-4.095 12.914 12.914 0 01-1.01-5.159 14.19 14.19 0 01.166-2.222 13.663 13.663 0 001.533-1.311 11.979 11.979 0 003.529-6.819 13.32 13.32 0 013.047-1.587 15.6 15.6 0 015.517-.937 16.865 16.865 0 016.031 1.096c.56.204 1.107.444 1.636.717.183.095.52.292 1.01.587v5.318a19.71 19.71 0 00-2.502-1.556 11.582 11.582 0 00-1.78-.667 14.8 14.8 0 00-1.989-.412c-.69-.11-1.386-.168-2.085-.175zm-24.33 7.793c.974.216 1.969.322 2.967.318a13.69 13.69 0 002.855-.292v12.593h-5.822V15.835zm-4.219 5.53a7.328 7.328 0 01-.994 3.581 7.118 7.118 0 01-3.314 3.041 10.385 10.385 0 01-5.241.953c-1.97-.12-3.568-.456-4.796-1.007a13.05 13.05 0 01-2.527-1.4v-6.031a14.797 14.797 0 003.743 2.571c1.365.652 2.444 1.012 3.24 1.08a6.051 6.051 0 002.271-.223 3.403 3.403 0 001.572-.952 2.12 2.12 0 00.497-1.38 1.933 1.933 0 00-.776-1.61 9.226 9.226 0 00-1.999-1.143 69.534 69.534 0 00-2.668-1.095 15.945 15.945 0 01-2.624-1.296 8.092 8.092 0 01-1.973-1.704 5.093 5.093 0 01-1.068-2.12 9.596 9.596 0 01-.28-2.286 8.337 8.337 0 01.578-2.737 6.566 6.566 0 012.15-2.81c1.038-.83 2.463-1.31 4.272-1.447a16.917 16.917 0 014.404.223 12.446 12.446 0 001.097 5.247 13.135 13.135 0 00-1.626-.594 7.695 7.695 0 00-2.717-.39 4.554 4.554 0 00-1.501.317c-.254.115-.48.282-.664.49a2.81 2.81 0 00-.388.602 3.33 3.33 0 00-.264 1.724 2.022 2.022 0 00.94 1.438 6.972 6.972 0 001.99.997c.743.245 1.706.592 2.886 1.041 1.064.379 2.079.883 3.022 1.502a6.154 6.154 0 011.979 2.301c.5.966.766 2.033.78 3.117z" fill="#283238"/></g><defs><clipPath id="clip0_3773_59"><path fill="#fff" transform="translate(.85 .692)" d="M0 0h130.298v28.246H0z"/></clipPath></defs></svg>