<svg width="51" height="50" fill="none" xmlns="http://www.w3.org/2000/svg"><circle cx="25.891" cy="25" r="25" fill="#000"/><path d="M29.087 19.616H16.744V32.94h3.436v-4.335h6.582l3.004 4.335h3.846L30.3 28.585c1.03-.16 1.77-.539 2.222-1.138.453-.6.679-1.558.679-2.837v-.999c0-.76-.082-1.358-.226-1.818a3.019 3.019 0 00-.74-1.218 3.37 3.37 0 00-1.276-.74c-.494-.14-1.111-.22-1.872-.22zm-.556 6.053H20.18v-3.117h8.351c.474 0 .803.08.967.22.165.14.268.4.268.78v1.118c0 .4-.103.66-.268.799-.164.14-.494.2-.967.2z" fill="#fff"/><path d="M36.969 18.951a2.33 2.33 0 002.325-2.332 2.33 2.33 0 00-2.325-2.333 2.33 2.33 0 00-2.326 2.333 2.33 2.33 0 002.326 2.332z" fill="#F41240"/></svg>