<svg width="512" height="512" viewBox="0 0 512 512" fill="none" xmlns="http://www.w3.org/2000/svg">
<path d="M25.6997 255.664C25.3157 372.34 50.0829 466.983 148.768 467.271C265.692 467.558 485.716 342.74 485.908 256.814C486.1 170.984 266.748 45.1118 149.92 44.7286H149.536C62.1785 44.7286 25.9877 139.18 25.6997 255.664" fill="url(#paint0_linear)"/>
<g opacity="0.8">
<path opacity="0.8" d="M160.478 65.8989C265.691 66.1862 463.06 179.509 462.868 256.718C462.676 333.927 264.731 446.388 159.518 446.101C70.7214 445.813 48.4501 360.654 48.7381 255.665C49.0261 150.771 81.761 65.7073 160.478 65.9946" stroke="#F8B3DC" stroke-width="2.66666" stroke-miterlimit="10"/>
</g>
<path d="M83.2967 171.654L161.726 211.312C165.374 213.228 165.854 218.305 162.494 220.796L85.6006 273.29C81.8567 275.973 77.3448 273.769 77.4408 269.171L76.7689 243.69L96.4482 253.653L92.0324 251.45C94.4507 252.422 97.1055 252.65 99.6548 252.104C102.204 251.558 104.531 250.262 106.336 248.384C109.312 245.127 113.056 240.242 110.752 235.356C108.448 230.567 102.688 229.609 96.8322 233.728C91.5524 237.368 90.3044 243.882 91.0724 245.223L81.4727 240.434L81.6647 208.056L122.943 228.938L114.88 224.915C117.855 226.448 124.383 227.597 130.239 221.467C135.231 216.39 135.807 209.684 133.311 205.852C131.199 202.595 124.863 199.817 117.376 206.044C113.632 209.205 111.328 215.911 112.48 217.922L75.4249 199.243L75.2329 176.54C75.2466 175.599 75.4995 174.677 75.9678 173.861C76.4362 173.044 77.1046 172.36 77.9106 171.871C78.7165 171.383 79.6335 171.107 80.5755 171.069C81.5176 171.031 82.4539 171.232 83.2967 171.654" fill="white"/>
<path d="M234.973 268.977C234.397 268.401 234.301 265.137 234.301 265.137L233.341 225.874H193.503C193.023 226.162 193.695 256.689 193.695 265.809C193.695 266.577 193.023 268.113 192.735 268.689C192.447 269.457 191.103 270.321 189.279 270.321H186.399C185.439 270.321 184.095 269.937 184.095 269.937C184.095 269.937 182.175 269.745 181.503 269.073C180.927 268.497 180.159 267.441 179.967 266.769C179.679 265.809 179.391 262.545 179.391 261.393V178.836C179.391 178.836 179.775 176.724 180.159 175.956C180.565 175.152 181.082 174.408 181.695 173.748C182.079 173.364 183.519 172.596 183.519 172.596C183.519 172.596 184.479 171.924 185.055 171.828C186.975 171.444 190.335 171.732 191.775 173.172C192.159 173.652 192.735 175.188 192.927 176.724C194.079 185.652 193.503 214.739 193.503 214.739H233.437V178.836C233.437 178.836 233.629 176.244 233.917 175.476C234.205 174.612 234.493 173.748 234.781 173.46C235.165 172.884 236.125 171.924 236.701 171.636C238.141 171.156 240.445 171.252 243.037 171.348C245.053 171.54 246.301 172.5 246.781 173.46C247.261 174.42 247.645 177.876 247.645 177.876V264.945C247.645 264.945 246.877 268.689 246.685 268.977C246.301 269.361 245.725 270.129 245.341 270.321C243.901 270.897 239.293 270.897 239.293 270.897L236.605 270.321C235.645 270.033 235.165 269.265 234.973 268.977" fill="white"/>
<path d="M234.973 268.977C234.397 268.401 234.301 265.137 234.301 265.137L233.341 225.874H193.503C193.023 226.162 193.695 256.689 193.695 265.809C193.695 266.577 193.023 268.113 192.735 268.689C192.447 269.457 191.103 270.321 189.279 270.321H186.399C185.439 270.321 184.095 269.937 184.095 269.937C184.095 269.937 182.175 269.745 181.503 269.073C180.927 268.497 180.159 267.441 179.967 266.769C179.679 265.809 179.391 262.545 179.391 261.393V178.836C179.391 178.836 179.775 176.724 180.159 175.956C180.565 175.152 181.082 174.408 181.695 173.748C182.079 173.364 183.519 172.596 183.519 172.596C183.519 172.596 184.479 171.924 185.055 171.828C186.975 171.444 190.335 171.732 191.775 173.172C192.159 173.652 192.735 175.188 192.927 176.724C194.079 185.652 193.503 214.739 193.503 214.739H233.437V178.836C233.437 178.836 233.629 176.244 233.917 175.476C234.205 174.612 234.493 173.748 234.781 173.46C235.165 172.884 236.125 171.924 236.701 171.636C238.141 171.156 240.445 171.252 243.037 171.348C245.053 171.54 246.301 172.5 246.781 173.46C247.261 174.42 247.645 177.876 247.645 177.876V264.945C247.645 264.945 246.877 268.689 246.685 268.977C246.301 269.361 245.725 270.129 245.341 270.321C243.901 270.897 239.293 270.897 239.293 270.897L236.605 270.321C235.645 270.033 235.165 269.265 234.973 268.977V268.977Z" stroke="white" stroke-width="5.33332" stroke-miterlimit="10"/>
<path d="M262.332 269.937C261.372 269.553 258.876 267.825 258.012 263.985L258.492 179.412C258.684 179.412 258.204 177.396 259.068 174.132C259.26 173.46 260.316 172.02 261.468 171.828C262.62 171.636 264.732 171.252 266.748 171.348C268.668 171.444 269.916 171.924 270.78 173.46C271.74 175.284 271.164 190.356 271.164 190.356L271.74 252.562C271.74 252.562 271.74 255.729 272.412 256.977C272.892 257.937 274.044 259.185 277.404 259.281C285.275 259.473 296.699 259.761 301.883 259.569C305.339 259.377 307.643 256.689 308.411 256.017C310.138 254.29 310.33 251.41 310.33 248.818L310.234 186.996C310.234 180.276 309.37 175.86 312.25 173.46C312.826 172.98 314.842 172.116 315.802 171.924C317.05 171.732 318.01 171.732 320.122 172.116C322.522 172.596 324.154 175.188 324.25 175.572L324.442 178.644V259.281C324.442 259.281 328.09 259.281 329.338 259.665C329.818 259.761 330.01 260.145 330.394 260.337C331.354 261.105 332.218 264.273 331.93 264.177V291.056C331.93 291.056 331.93 292.784 330.97 293.84L328.666 294.992H324.826C324.922 295.184 321.946 294.704 321.274 294.224C320.794 293.936 320.218 291.344 320.314 290.384V270.321H268.956C268.956 270.321 264.06 270.609 262.332 269.937" fill="white"/>
<path d="M262.332 269.937C261.372 269.553 258.876 267.825 258.012 263.985L258.492 179.412C258.684 179.412 258.204 177.396 259.068 174.132C259.26 173.46 260.316 172.02 261.468 171.828C262.62 171.636 264.732 171.252 266.748 171.348C268.668 171.444 269.916 171.924 270.78 173.46C271.74 175.284 271.164 190.356 271.164 190.356L271.74 252.562C271.74 252.562 271.74 255.729 272.412 256.977C272.892 257.937 274.044 259.185 277.404 259.281C285.275 259.473 296.699 259.761 301.883 259.569C305.339 259.377 307.643 256.689 308.411 256.017C310.138 254.29 310.33 251.41 310.33 248.818L310.234 186.996C310.234 180.276 309.37 175.86 312.25 173.46C312.826 172.98 314.842 172.116 315.802 171.924C317.05 171.732 318.01 171.732 320.122 172.116C322.522 172.596 324.154 175.188 324.25 175.572L324.442 178.644V259.281C324.442 259.281 328.09 259.281 329.338 259.665C329.818 259.761 330.01 260.145 330.394 260.337C331.354 261.105 332.218 264.273 331.93 264.177V291.056C331.93 291.056 331.93 292.784 330.97 293.84L328.666 294.992H324.826C324.922 295.184 321.946 294.704 321.274 294.224C320.794 293.936 320.218 291.344 320.314 290.384V270.321H268.956C268.956 270.321 264.06 270.609 262.332 269.937V269.937Z" stroke="white" stroke-width="5.33332" stroke-miterlimit="10"/>
<path d="M378.776 185.844L363.704 234.898H394.615L378.776 185.844ZM406.711 270.705C406.194 269.962 405.774 269.155 405.463 268.305L398.071 245.65H360.824L353.529 267.729C353.529 267.729 352.185 270.129 351.609 270.417C350.457 270.993 348.537 271.185 348.537 271.185L343.065 270.897C343.065 270.897 340.281 270.609 339.993 270.321C339.705 269.841 339.705 267.825 339.897 267.057C344.121 244.402 368.12 179.412 368.12 179.412C368.12 179.412 370.04 175.572 370.616 174.9C372.452 173.481 374.585 172.497 376.856 172.02C376.856 172.02 379.64 171.54 381.176 171.828C382.64 172.212 384.057 172.759 385.399 173.46L386.263 173.94C387.127 174.516 387.991 175.572 388.183 175.956C388.759 176.628 389.623 178.452 389.623 178.452L419.19 267.729C419.478 268.209 418.998 269.841 418.902 270.129C418.71 270.513 417.462 271.089 417.27 270.897L415.35 271.185H408.919C408.919 271.185 407.191 271.089 406.711 270.705" fill="white"/>
<path d="M378.776 185.844L363.704 234.898H394.615L378.776 185.844ZM406.711 270.705C406.194 269.962 405.774 269.155 405.463 268.305L398.071 245.65H360.824L353.529 267.729C353.529 267.729 352.185 270.129 351.609 270.417C350.457 270.993 348.537 271.185 348.537 271.185L343.065 270.897C343.065 270.897 340.281 270.609 339.993 270.321C339.705 269.841 339.705 267.825 339.897 267.057C344.121 244.402 368.12 179.412 368.12 179.412C368.12 179.412 370.04 175.572 370.616 174.9C372.452 173.481 374.585 172.497 376.856 172.02C376.856 172.02 379.64 171.54 381.176 171.828C382.64 172.212 384.057 172.759 385.399 173.46L386.263 173.94C387.127 174.516 387.991 175.572 388.183 175.956C388.759 176.628 389.623 178.452 389.623 178.452L419.19 267.729C419.478 268.209 418.998 269.841 418.902 270.129C418.71 270.513 417.462 271.089 417.27 270.897L415.35 271.185H408.919C408.919 271.185 407.191 271.089 406.711 270.705V270.705Z" stroke="white" stroke-width="5.33332" stroke-miterlimit="10"/>
<path d="M76.77 303.536H84.7378V294.704H87.0417V315.439H84.6418V305.456H76.674V315.343H74.3701V294.608H76.674L76.77 303.536ZM108.449 311.504C108.449 312.848 109.025 313.903 110.465 313.903C112.769 313.903 113.345 312.368 113.345 310.736V307.088C111.041 308.336 108.449 308.528 108.449 311.504ZM106.721 304.208C106.721 301.04 108.353 299.6 111.233 299.6C114.305 299.6 115.457 301.52 115.457 303.536V312.656C115.457 313.328 115.745 313.903 116.417 313.903L116.801 313.808V315.439L115.841 315.631C114.593 315.631 113.921 315.439 113.537 313.328C113.272 314.038 112.802 314.655 112.187 315.099C111.572 315.543 110.839 315.795 110.081 315.823C107.393 315.823 106.241 314.383 106.241 311.6C106.241 308.816 107.297 307.856 110.081 306.8C111.041 306.512 112.481 305.84 112.769 305.648C113.249 305.456 113.345 304.688 113.345 303.92C113.345 302.096 112.769 301.52 110.945 301.52C109.313 301.52 108.737 302.48 108.737 304.208H106.721ZM137.536 313.616H143.008V300.08H145.216V313.52H146.656V319.567H144.736V315.439H135.328V300.08H137.536V313.616ZM167.295 300.08V311.696L167.103 313.616L167.583 311.696L172.671 300.08H175.263V315.439H173.151V303.728L173.343 301.808L172.863 303.728L167.775 315.439H165.087V300.08H167.295ZM196.958 307.952C196.958 311.504 197.534 313.999 200.126 313.999C202.718 313.999 203.294 311.504 203.294 307.952C203.294 303.152 202.334 301.52 200.126 301.52C197.726 301.52 196.862 303.248 196.862 307.952H196.958ZM205.598 307.664C205.598 313.999 203.486 315.823 200.126 315.823C196.766 315.823 194.558 313.903 194.558 307.664C194.558 302.576 196.286 299.6 200.126 299.6C203.966 299.6 205.598 302.48 205.598 307.664ZM227.101 306.416H232.573V300.08H234.685V315.439H232.573V308.24H227.101V315.439H224.797V300.08H227.005L227.101 306.416ZM255.996 311.504C255.996 312.848 256.572 313.903 258.012 313.903C260.316 313.903 260.892 312.368 260.892 310.736V307.088C258.588 308.336 255.996 308.528 255.996 311.504ZM254.364 304.208C254.364 301.04 255.9 299.6 258.78 299.6C261.852 299.6 263.1 301.52 263.1 303.536V312.656C263.1 313.328 263.292 313.903 263.868 313.903L264.348 313.808V315.439L263.484 315.631C262.14 315.631 261.468 315.439 261.084 313.328C260.819 314.038 260.349 314.655 259.734 315.099C259.119 315.543 258.386 315.795 257.628 315.823C255.036 315.823 253.788 314.383 253.788 311.6C253.788 308.816 254.844 307.856 257.628 306.8C258.588 306.512 260.028 305.84 260.316 305.648C260.796 305.456 260.892 304.688 260.892 303.92C260.892 302.096 260.316 301.52 258.492 301.52C256.86 301.52 256.284 302.48 256.284 304.208H254.364ZM292.859 300.08V315.439H290.651V301.904H285.851V307.952C285.851 312.464 285.275 315.631 282.587 315.631C282.011 315.631 281.627 315.535 281.243 315.343V313.616L282.203 313.712C283.355 313.712 283.835 312.752 283.835 307.856V300.08H292.859ZM314.938 313.616H317.242C319.258 313.616 320.026 312.656 320.026 310.928C320.026 309.296 319.258 308.24 317.338 308.24H315.034L314.938 313.616ZM314.938 306.416H318.01C320.506 306.416 322.234 308.336 322.234 311.024C322.234 313.711 320.506 315.439 318.01 315.439H312.73V300.08H314.938V306.416ZM343.833 306.416H349.209V300.08H351.417V315.439H349.209V308.24H343.737V315.439H341.529V300.08H343.737L343.833 306.416ZM385.496 315.439H383.192V300.08H385.4L385.496 315.439ZM373.4 313.52H375.704C377.816 313.52 378.584 312.656 378.584 310.928C378.584 309.296 377.816 308.24 375.896 308.24H373.4V313.52ZM373.4 306.416H376.568C379.064 306.416 380.792 308.336 380.792 311.024C380.792 313.711 378.968 315.439 376.568 315.439H371.288V300.08H373.4V306.416ZM408.151 295.088C408.439 296.432 409.303 297.008 410.551 297.008C411.799 297.008 412.567 296.528 412.855 295.088H414.007C413.911 297.488 412.471 298.448 410.455 298.448C408.535 298.448 407.095 297.488 406.999 295.088H408.151ZM407.575 300.08V311.696L407.287 313.616L407.767 311.696L412.855 300.08H415.543V315.439H413.335V303.728L413.623 301.808L413.143 303.728L407.959 315.439H405.367V300.08H407.575ZM76.578 338.095H84.2578V320.143H86.4657V338.095H88.0977V344.814H85.9857V340.015H74.3701V320.047H76.578V338.095ZM112.193 325.327V336.559C112.193 337.135 112.097 337.807 111.905 338.383L112.385 336.559L117.377 325.327H119.873V340.207H117.761V328.879L118.049 326.959L117.569 328.879L112.577 340.207H110.081V325.327H112.193ZM152.799 332.719C152.799 335.599 152.991 338.767 155.679 338.767C157.791 338.767 158.559 336.463 158.559 332.431C158.559 330.511 158.271 326.671 155.679 326.671C152.991 326.671 152.799 330.127 152.799 332.719ZM144.928 332.719C144.928 335.599 145.12 338.767 147.808 338.767C150.016 338.767 150.688 336.463 150.688 332.431C150.688 330.511 150.496 326.671 147.808 326.671C145.12 326.671 144.928 330.127 144.928 332.719ZM152.799 320.143V326.959C153.471 325.615 154.719 324.943 155.871 324.943C159.615 324.943 160.671 328.399 160.671 332.431C160.671 336.751 159.711 340.591 155.871 340.591C154.431 340.591 153.567 339.823 152.799 338.671V345.198H150.688V338.575C149.824 339.823 148.96 340.495 147.52 340.495C143.488 340.495 142.72 336.655 142.72 332.431C142.72 328.399 143.872 324.943 147.616 324.943C148.768 324.943 150.016 325.519 150.688 326.863V320.143H152.799ZM185.63 332.719C185.63 335.599 185.822 338.767 188.51 338.767C190.718 338.767 191.39 336.463 191.39 332.431C191.39 330.511 191.198 326.671 188.51 326.671C185.918 326.671 185.63 330.127 185.63 332.719ZM185.63 326.959C186.398 325.615 187.742 324.943 188.702 324.943C192.542 324.943 193.598 328.303 193.598 332.431C193.598 336.943 192.638 340.591 188.798 340.591C187.358 340.591 186.494 339.823 185.63 338.671V345.39H183.518V325.231H185.63V326.959ZM218.077 332.911C218.077 336.367 218.749 338.767 221.149 338.767C223.741 338.767 224.317 336.367 224.317 332.911C224.317 328.399 223.357 326.671 221.149 326.671C218.941 326.671 218.077 328.399 218.077 332.911ZM226.525 332.719C226.525 338.767 224.413 340.591 221.149 340.591C217.981 340.591 215.869 338.767 215.869 332.719C215.869 327.727 217.501 324.943 221.149 324.943C224.893 324.943 226.525 327.727 226.525 332.623V332.719ZM251.484 338.383H253.884C255.804 338.383 256.38 337.519 256.38 335.791C256.38 334.063 255.42 333.199 253.884 333.199H251.484V338.383ZM251.484 331.471H253.692C255.324 331.471 255.996 330.799 255.996 329.167C255.996 327.727 255.324 327.055 253.788 327.055H251.484V331.471ZM249.372 325.327H254.172C256.38 325.327 258.204 326.671 258.204 328.783C258.204 330.703 257.244 332.047 255.9 332.335C257.532 332.815 258.492 334.063 258.492 336.175C258.492 338.671 256.764 340.207 254.844 340.207H249.372V325.327ZM282.971 332.911C282.971 336.367 283.643 338.767 286.139 338.767C288.635 338.767 289.211 336.367 289.211 332.911C289.211 328.399 288.251 326.671 286.139 326.671C283.835 326.671 282.971 328.399 282.971 332.911ZM291.419 332.719C291.419 338.767 289.403 340.591 286.139 340.591C282.875 340.591 280.763 338.767 280.763 332.719C280.763 327.727 282.395 324.943 286.139 324.943C289.787 324.943 291.419 327.727 291.419 332.623V332.719ZM316.954 320.431C317.242 321.775 318.106 322.351 319.258 322.351C320.506 322.351 321.178 321.871 321.562 320.431H322.618C322.618 322.831 321.082 323.791 319.162 323.791C317.434 323.791 315.994 322.831 315.898 320.431H316.954ZM316.378 325.231V336.559L316.186 338.383L316.666 336.559L321.466 325.327H324.154V340.207H322.042V328.879L322.234 326.959L321.754 328.879L316.858 340.207H314.266V325.327L316.378 325.231ZM81.4739 347.118L78.882 357.294H83.9698L81.4739 347.118ZM80.1299 345.582H83.0098L88.3856 364.878H85.9857L84.4498 359.31H78.402L76.962 364.974H74.5621L80.1299 345.582ZM110.369 350.574V352.302H104.801V364.878H102.785V350.478L110.369 350.574ZM126.688 357.678C126.688 360.462 126.88 363.534 129.472 363.534C131.584 363.534 132.256 361.326 132.256 357.486C132.256 355.566 132.064 351.918 129.376 351.918C126.976 351.918 126.688 355.182 126.688 357.678V357.678ZM126.688 352.206C127.36 350.862 128.608 350.19 129.664 350.19C133.312 350.19 134.464 353.454 134.464 357.486C134.464 361.806 133.504 365.262 129.856 365.262C128.32 365.262 127.456 364.59 126.688 363.342V369.87H124.768V350.574H126.688V352.206Z" fill="white"/>
<path d="M156.16 356.526C156.16 354.318 155.872 351.918 153.76 351.918C151.552 351.918 151.264 354.606 151.264 356.526H156.16ZM158.272 360.078C158.272 362.958 156.928 365.262 153.952 365.262C150.88 365.262 149.152 363.438 149.152 357.678C149.152 354.126 150.016 350.19 153.76 350.19C157.792 350.19 158.272 354.414 158.272 358.254H151.264C151.264 361.518 151.456 363.534 153.856 363.534C155.776 363.534 156.256 361.71 156.256 360.078H158.272Z" fill="white"/>
<path d="M181.118 350.574V352.302H175.647V364.878H173.535V350.478L181.118 350.574Z" fill="white"/>
<path d="M196.862 361.23C196.862 362.478 197.342 363.438 198.782 363.438C200.894 363.438 201.374 361.998 201.374 360.558V357.102C199.262 358.35 196.862 358.446 196.862 361.23ZM195.23 354.414C195.23 351.534 196.67 350.19 199.358 350.19C202.238 350.19 203.39 351.918 203.39 353.838V362.286C203.39 362.958 203.677 363.438 204.157 363.438H204.637V364.878C204.368 365.008 204.073 365.074 203.774 365.07C202.622 365.07 201.854 364.878 201.566 362.958C201.311 363.603 200.878 364.163 200.317 364.571C199.756 364.979 199.09 365.219 198.398 365.262C195.902 365.262 194.654 363.918 194.654 361.326C194.654 358.734 195.806 357.87 198.302 356.91L200.798 355.854C201.374 355.566 201.374 354.894 201.374 354.126C201.374 352.494 200.798 351.918 199.166 351.918C197.63 351.918 197.054 352.782 197.054 354.414H195.23Z" fill="white"/>
<path d="M221.533 364.974V352.302H217.693V350.574H227.293V352.302H223.549V364.878L221.533 364.974Z" fill="white"/>
<path d="M243.228 357.87C243.228 361.23 243.9 363.63 246.3 363.63C248.7 363.63 249.18 361.23 249.18 357.87C249.18 353.55 248.412 351.918 246.3 351.918C244.092 351.918 243.228 353.55 243.228 357.87ZM251.388 357.678C251.388 363.534 249.468 365.358 246.3 365.358C243.132 365.358 241.116 363.534 241.116 357.678C241.116 352.878 242.748 350.19 246.3 350.19C249.756 350.19 251.388 352.878 251.388 357.678Z" fill="white"/>
<path d="M268.764 357.678C268.764 360.462 268.956 363.534 271.452 363.534C273.66 363.534 274.332 361.326 274.332 357.486C274.332 355.566 274.044 351.918 271.452 351.918C268.956 351.918 268.764 355.182 268.764 357.678ZM268.764 352.206C269.436 350.862 270.684 350.19 271.644 350.19C275.292 350.19 276.444 353.454 276.444 357.486C276.444 361.806 275.484 365.262 271.836 365.262C270.396 365.262 269.532 364.59 268.764 363.342V369.87H266.748V350.574H268.668L268.764 352.206Z" fill="white"/>
<defs>
<linearGradient id="paint0_linear" x1="16.4661" y1="275.267" x2="472.954" y2="216.665" gradientUnits="userSpaceOnUse">
<stop stop-color="#C73498"/>
<stop offset="0.1" stop-color="#C73498"/>
<stop offset="1" stop-color="#FF0098"/>
</linearGradient>
</defs>
</svg>
