<?xml version="1.0" encoding="iso-8859-1"?>
<!-- Generator: Adobe Illustrator 22.0.1, SVG Export Plug-In . SVG Version: 6.00 Build 0)  -->
<svg version="1.1" id="Layer_1" xmlns="http://www.w3.org/2000/svg" xmlns:xlink="http://www.w3.org/1999/xlink" x="0px" y="0px"
	 viewBox="0 0 75.001 31.84" style="enable-background:new 0 0 75.001 31.84;" xml:space="preserve">
<g id="Document" transform="scale(1 -1)">
	<g id="Spread" transform="translate(0 -31.84)">
		<g id="Layer_1_1_">
			<g id="Group">
				<g id="Group_1">
					<path marker-start="none" marker-end="none" style="fill:#52B8E9;" d="M0,15.92c0,8.787,7.116,15.92,15.883,15.92
						c8.766,0,15.881-7.133,15.881-15.92S24.649,0,15.883,0C7.116,0,0,7.133,0,15.92z M29.603,15.92
						c0,7.591-6.147,13.753-13.72,13.753c-7.575,0-13.721-6.162-13.721-13.753S8.308,2.167,15.883,2.167
						C23.456,2.167,29.603,8.329,29.603,15.92z M8.903,7.746l1.338,3.02c3.061-1.515,9.85-1.67,7.69,2.03h5.102
						C23.813,8.159,16.896,4.81,8.903,7.746z M12.532,13.637l-2.064,1.435h11.519c0.656-0.378,0.946-1.144,0.966-1.435H12.532z
						 M9.211,15.833l-2.064,1.435h11.034c1.284-0.486,2.481-1.139,2.956-1.435H9.211z M6.06,18.029l-2.064,1.435h11.991
						c-0.12-0.644,0.019-1.139,0.494-1.435H6.06z M11.538,20.328c1.032,3.766,7.389,5.325,12.666,3.342l-1.338-3.019
						c-2.912,1.054-5.294,1.081-6.776-0.323H11.538z"/>
					<g id="Group_2">
						<path marker-start="none" marker-end="none" d="M37.485,20.363l0.388,0.785c0.209-0.122,2.496-0.74,2.337,0.021
							c-0.079,0.377-0.792,0.376-1.186,0.481c-0.453,0.114-0.865,0.282-1.164,0.598c-0.14,0.161-0.211,0.347-0.211,0.558
							c0,0.242,0.341,1.987,3.681,0.834l-0.357-0.721c-0.192,0.112-2.291,0.68-2.145-0.019c0.072-0.346,0.727-0.346,1.089-0.442
							c0.591-0.092,1.069-0.266,1.347-0.578c0.153-0.177,0.23-0.38,0.23-0.609C41.494,21.008,41.123,19.106,37.485,20.363z
							 M42.062,20.07v3.969h1.093V22.22l1.645,1.819h1.372l-1.934-1.893l1.693-1.698l1.495,3.583h1.495l1.653-3.961h-1.087
							l-0.34,0.815H47.2l-0.34-0.815h-1.965l-1.74,1.814V20.07H42.062z M50.664,20.071v3.969h1.853c1.576,0,2.365-0.645,2.365-1.935
							c0-0.403-0.085-2.034-2.324-2.034H50.664z M53.634,22.093c0,1.148-0.929,1.189-1.842,1.189v-2.467
							C53.123,20.815,53.634,20.974,53.634,22.093z M48.801,21.714l-0.628,1.504l-0.627-1.504H48.801z"/>
						<g id="Group_3">
							<g id="Group_4">
								<path marker-start="none" marker-end="none" d="M38.037,17.975H37.5v-3.784h2.85v0.495h-2.313V17.975z"/>
								<path marker-start="none" marker-end="none" d="M41.434,17.975h-0.536v-3.784h0.536V17.975z"/>
								<path marker-start="none" marker-end="none" d="M45.385,16.781h0.546c-0.019,0.186-0.077,0.357-0.172,0.514
									c-0.096,0.157-0.223,0.294-0.382,0.409c-0.159,0.117-0.343,0.208-0.553,0.271c-0.209,0.065-0.438,0.098-0.685,0.098
									c-0.313,0-0.594-0.047-0.841-0.141c-0.248-0.093-0.458-0.226-0.631-0.4c-0.174-0.175-0.305-0.384-0.396-0.628
									c-0.092-0.245-0.137-0.518-0.138-0.822c0.001-0.3,0.047-0.571,0.138-0.815c0.091-0.243,0.222-0.452,0.392-0.628
									c0.17-0.175,0.375-0.31,0.613-0.404c0.238-0.094,0.505-0.143,0.801-0.143c0.334,0,0.625,0.063,0.872,0.187
									c0.247,0.124,0.444,0.307,0.591,0.547l0.052-0.635h0.376v2.026h-1.699v-0.495h1.198c-0.023-0.229-0.096-0.427-0.215-0.595
									c-0.12-0.168-0.28-0.298-0.479-0.391c-0.199-0.092-0.429-0.138-0.691-0.139c-0.289,0.001-0.536,0.062-0.743,0.182
									s-0.367,0.291-0.479,0.512c-0.112,0.222-0.168,0.486-0.17,0.791c0.001,0.309,0.057,0.574,0.169,0.795
									c0.112,0.222,0.273,0.392,0.482,0.511c0.209,0.119,0.462,0.18,0.756,0.18c0.346-0.001,0.629-0.07,0.849-0.205
									C45.166,17.227,45.312,17.033,45.385,16.781z"/>
								<path marker-start="none" marker-end="none" d="M47.387,17.975h-0.536v-3.784h0.536v1.788h2.303v-1.788h0.537v3.784H49.69
									v-1.502h-2.303V17.975z"/>
								<path marker-start="none" marker-end="none" d="M50.66,17.974v-0.495h1.444v-3.288h0.536v3.288h1.444v0.495H50.66z"/>
								<path marker-start="none" marker-end="none" d="M55.825,14.191h0.568l0.5,1.078h1.933l0.479-1.078h0.558l-1.683,3.784
									h-0.557L55.825,14.191z M57.117,15.764l0.766,1.611l0.724-1.611H57.117z"/>
								<path marker-start="none" marker-end="none" d="M60.832,17.975h-0.536v-3.784h2.85v0.495h-2.314V17.975z"/>
								<path marker-start="none" marker-end="none" d="M64.188,17.975h-0.536v-3.784h2.85v0.495h-2.314V17.975z"/>
								<path marker-start="none" marker-end="none" d="M66.799,16.082c0.001-0.302,0.048-0.575,0.142-0.819
									c0.095-0.244,0.231-0.453,0.409-0.628c0.18-0.174,0.396-0.308,0.651-0.401c0.255-0.094,0.544-0.142,0.867-0.142
									c0.323,0,0.613,0.048,0.868,0.142c0.257,0.093,0.474,0.227,0.653,0.401c0.179,0.175,0.316,0.384,0.41,0.628
									c0.094,0.244,0.142,0.517,0.142,0.819c0,0.303-0.048,0.576-0.142,0.82c-0.094,0.244-0.23,0.453-0.41,0.628
									c-0.178,0.174-0.395,0.308-0.65,0.401c-0.255,0.094-0.544,0.142-0.866,0.142c-0.324,0-0.614-0.048-0.87-0.142
									c-0.255-0.093-0.473-0.227-0.652-0.401c-0.179-0.175-0.315-0.384-0.41-0.628C66.847,16.658,66.8,16.385,66.799,16.082z
									 M67.356,16.082c0.001,0.311,0.061,0.577,0.179,0.798c0.118,0.221,0.29,0.391,0.514,0.51
									c0.225,0.118,0.498,0.178,0.819,0.178c0.322,0,0.595-0.06,0.821-0.178c0.226-0.119,0.397-0.289,0.516-0.51
									c0.119-0.221,0.179-0.487,0.179-0.798c0-0.308-0.06-0.573-0.178-0.795c-0.117-0.221-0.288-0.392-0.513-0.51
									c-0.224-0.119-0.498-0.179-0.82-0.18c-0.322,0-0.597,0.06-0.822,0.178c-0.226,0.119-0.398,0.289-0.516,0.51
									C67.417,15.506,67.357,15.772,67.356,16.082z"/>
								<path marker-start="none" marker-end="none" d="M71.088,17.975l1.693-2.205v-1.579h0.537v1.579l1.683,2.205h-0.642
									l-1.318-1.762l-1.303,1.762H71.088z"/>
							</g>
							<g id="Group_5">
								<path marker-start="none" marker-end="none" d="M37.083,12.051l1.271-3.784h0.636l1.048,3.263l1.057-3.263h0.636
									l1.272,3.784h-0.568l-1.053-3.31l-1.032,3.31h-0.615l-1.032-3.31l-1.052,3.31H37.083z"/>
								<path marker-start="none" marker-end="none" d="M43.993,12.051h-0.536V8.267h0.536v1.788h2.303V8.267h0.537v3.784h-0.537
									v-1.502h-2.303V12.051z"/>
								<path marker-start="none" marker-end="none" d="M47.698,8.267h3.043v0.495h-2.506v1.193h2.319v0.495h-2.319v1.105h2.47
									v0.495h-3.007V8.267z"/>
								<path marker-start="none" marker-end="none" d="M51.423,8.267h3.043v0.495H51.96v1.193h2.318v0.495H51.96v1.105h2.47v0.495
									h-3.007V8.267z"/>
								<path marker-start="none" marker-end="none" d="M55.685,12.051h-0.537V8.267h2.85v0.495h-2.313V12.051z"/>
								<path marker-start="none" marker-end="none" d="M61.558,10.952c-0.001,0.255-0.06,0.472-0.175,0.65
									c-0.117,0.179-0.286,0.314-0.51,0.407c-0.224,0.093-0.497,0.14-0.822,0.141c-0.35-0.001-0.642-0.047-0.879-0.139
									c-0.236-0.091-0.415-0.221-0.535-0.391c-0.12-0.171-0.18-0.374-0.18-0.611c-0.001-0.191,0.04-0.352,0.119-0.486
									c0.08-0.133,0.2-0.241,0.362-0.325c0.162-0.085,0.366-0.147,0.613-0.191l0.933-0.166c0.224-0.037,0.389-0.097,0.494-0.181
									c0.106-0.083,0.159-0.202,0.158-0.356c-0.001-0.2-0.09-0.357-0.268-0.469c-0.178-0.113-0.438-0.17-0.78-0.172
									c-0.39-0.001-0.684,0.071-0.88,0.217s-0.299,0.367-0.309,0.664h-0.567c0.001-0.455,0.147-0.797,0.438-1.028
									c0.291-0.232,0.72-0.347,1.286-0.348c0.355,0.001,0.656,0.049,0.899,0.144c0.244,0.096,0.428,0.231,0.554,0.408
									c0.126,0.176,0.188,0.386,0.189,0.631c0,0.21-0.042,0.382-0.128,0.515c-0.085,0.133-0.215,0.24-0.389,0.32
									c-0.174,0.079-0.395,0.143-0.66,0.192l-0.829,0.161c-0.153,0.029-0.279,0.064-0.378,0.105
									c-0.1,0.042-0.174,0.095-0.222,0.16c-0.049,0.066-0.073,0.15-0.073,0.251c0,0.192,0.083,0.339,0.249,0.443
									c0.166,0.104,0.413,0.155,0.742,0.157c0.328,0.001,0.574-0.056,0.741-0.17c0.166-0.115,0.258-0.293,0.275-0.533H61.558z"/>
							</g>
						</g>
					</g>
				</g>
			</g>
		</g>
	</g>
</g>
</svg>
