<svg width="144" height="32" fill="none" xmlns="http://www.w3.org/2000/svg"><g clip-path="url(#clip0_3773_42)" fill-rule="evenodd" clip-rule="evenodd"><path d="M29.006 1.49a3.007 3.007 0 01.933 2.23v.079a3.038 3.038 0 01-.933 2.167 3.069 3.069 0 01-2.253.923 3.204 3.204 0 01-2.242-.895 3.138 3.138 0 01-.962-2.195v-.08a3.008 3.008 0 01.933-2.23 3.124 3.124 0 012.27-.923 3.094 3.094 0 012.254.923z" fill="#EB5C60"/><path d="M143.332 25.894v5.139h-15.719V3.719h6.39v22.175h9.329zM112.563 3.719l11.055 27.314h-6.073l-2.165-5.853h-11.301l-2.182 5.853h-5.932l11.019-27.314h5.579zm-6.724 16.705h7.781l-3.873-10.452-3.908 10.452zM85.703 3.72h6.319v27.314h-5.246L73.03 14.467v16.566h-6.337V3.719h5.28l13.73 16.566V3.719zM50.252 8.63a10.306 10.306 0 00-3.68.627 8.224 8.224 0 00-2.85 1.794 7.718 7.718 0 00-1.849 2.77 9.389 9.389 0 00-.633 3.554 9.283 9.283 0 00.633 3.536 8.135 8.135 0 004.665 4.599c1.164.432 2.4.645 3.643.627a11.328 11.328 0 003.68-.61c.441-.153.87-.34 1.284-.557v-8.013h5.826v11.061a16.992 16.992 0 01-5.227 2.578c-1.92.594-3.92.9-5.932.906a16.655 16.655 0 01-5.985-1.045 14.365 14.365 0 01-4.805-2.927 13.894 13.894 0 01-3.151-4.494 14.17 14.17 0 01-1.11-5.661c-.002-.817.06-1.632.184-2.439a14.984 14.984 0 001.683-1.439A13.147 13.147 0 0040.5 6.015a14.617 14.617 0 013.345-1.742A17.121 17.121 0 0149.9 3.245c2.262-.007 4.506.4 6.618 1.202a15.41 15.41 0 011.796.787c.2.105.57.32 1.108.645v5.835a21.744 21.744 0 00-2.745-1.707 12.62 12.62 0 00-1.954-.731 16.235 16.235 0 00-2.183-.453 15.528 15.528 0 00-2.288-.192zm-26.703 8.553c1.07.236 2.162.353 3.257.348a15.017 15.017 0 003.133-.32v13.82h-6.39V17.185zm-4.63 6.07a8.043 8.043 0 01-1.09 3.929 7.812 7.812 0 01-3.637 3.338 11.397 11.397 0 01-5.752 1.045c-2.162-.133-3.916-.5-5.263-1.105a14.31 14.31 0 01-2.775-1.536v-6.62a16.242 16.242 0 004.109 2.823c1.497.715 2.682 1.11 3.555 1.184a6.64 6.64 0 002.493-.244 3.735 3.735 0 001.725-1.045c.357-.426.55-.962.546-1.516a2.12 2.12 0 00-.852-1.766 10.122 10.122 0 00-2.194-1.254 76.35 76.35 0 00-2.929-1.202 17.5 17.5 0 01-2.88-1.422 8.884 8.884 0 01-2.164-1.87 5.59 5.59 0 01-1.173-2.328 10.531 10.531 0 01-.306-2.508 9.15 9.15 0 01.634-3.003A7.206 7.206 0 013.324 5.07c1.141-.912 2.704-1.438 4.69-1.588 1.615-.13 3.24-.048 4.833.244a13.66 13.66 0 001.204 5.759 14.417 14.417 0 00-1.785-.652 8.446 8.446 0 00-2.982-.428 4.998 4.998 0 00-1.647.348 2.174 2.174 0 00-.729.537 3.07 3.07 0 00-.426.661 3.654 3.654 0 00-.288 1.892 2.22 2.22 0 001.031 1.579 7.65 7.65 0 002.183 1.093c.817.27 1.873.65 3.168 1.143 1.168.416 2.282.97 3.316 1.648a6.755 6.755 0 012.172 2.526c.549 1.06.841 2.23.856 3.421z" fill="#fff"/></g><defs><clipPath id="clip0_3773_42"><path fill="#fff" transform="translate(.332 .566)" d="M0 0h143v31H0z"/></clipPath></defs></svg>