<svg width="144" height="32" fill="none" xmlns="http://www.w3.org/2000/svg"><path fill-rule="evenodd" clip-rule="evenodd" d="M29.211 1.585a3.032 3.032 0 01.933 2.23v.08a3.04 3.04 0 01-.933 2.167 3.069 3.069 0 01-2.253.923 3.204 3.204 0 01-2.242-.895 3.138 3.138 0 01-.962-2.195v-.08a3.006 3.006 0 01.933-2.23 3.125 3.125 0 012.27-.923 3.095 3.095 0 012.254.923zM143.537 25.99v5.139h-15.719V3.815h6.39V25.99h9.329zM112.769 3.815l11.054 27.314h-6.073l-2.165-5.853h-11.301l-2.182 5.853H96.17l11.019-27.314h5.58zm-6.725 16.705h7.781l-3.873-10.451-3.908 10.451zM85.908 3.815h6.319v27.314H86.98L73.234 14.563v16.566h-6.337V3.815h5.28l13.73 16.566V3.815zM50.457 8.727a10.305 10.305 0 00-3.679.627 8.225 8.225 0 00-2.852 1.795 7.718 7.718 0 00-1.848 2.77 9.388 9.388 0 00-.634 3.553 9.283 9.283 0 00.634 3.536 8.135 8.135 0 004.665 4.599c1.164.432 2.4.645 3.643.627a11.329 11.329 0 003.68-.61c.441-.153.87-.34 1.284-.557v-8.013h5.827v11.061a16.992 16.992 0 01-5.228 2.578c-1.92.594-3.92.9-5.932.906a16.652 16.652 0 01-5.985-1.045 14.365 14.365 0 01-4.805-2.926 13.892 13.892 0 01-3.151-4.495 14.172 14.172 0 01-1.11-5.661c-.002-.817.06-1.632.184-2.439a14.993 14.993 0 001.683-1.439 13.147 13.147 0 003.872-7.483 14.615 14.615 0 013.345-1.742 17.12 17.12 0 016.055-1.028c2.262-.007 4.506.4 6.618 1.202a15.41 15.41 0 011.796.787c.2.105.57.32 1.109.645v5.835a21.738 21.738 0 00-2.746-1.707 12.613 12.613 0 00-1.954-.731 16.235 16.235 0 00-2.183-.453 15.526 15.526 0 00-2.288-.192zM23.754 17.28c1.07.236 2.162.353 3.257.349a15.017 15.017 0 003.133-.32v13.82h-6.39V17.28zm-4.629 6.07a8.043 8.043 0 01-1.091 3.93 7.813 7.813 0 01-3.637 3.337 11.397 11.397 0 01-5.752 1.045c-2.162-.132-3.916-.5-5.263-1.104A14.32 14.32 0 01.608 29.02V22.4a16.242 16.242 0 004.108 2.823c1.497.715 2.682 1.11 3.555 1.184a6.64 6.64 0 002.493-.244 3.734 3.734 0 001.725-1.045c.357-.425.55-.962.546-1.515a2.12 2.12 0 00-.21-.986 2.144 2.144 0 00-.642-.78 10.12 10.12 0 00-2.194-1.255A76.35 76.35 0 007.06 19.38a17.5 17.5 0 01-2.88-1.421 8.884 8.884 0 01-2.164-1.871 5.59 5.59 0 01-1.173-2.327 10.531 10.531 0 01-.306-2.509 9.15 9.15 0 01.634-3.003 7.206 7.206 0 012.358-3.083c1.141-.913 2.704-1.44 4.69-1.589 1.615-.13 3.24-.048 4.833.244a13.66 13.66 0 001.204 5.759 14.414 14.414 0 00-1.785-.652A8.446 8.446 0 009.49 8.5a4.998 4.998 0 00-1.648.348 2.174 2.174 0 00-.729.537c-.17.202-.313.424-.426.662a3.653 3.653 0 00-.288 1.891 2.22 2.22 0 001.031 1.579c.663.478 1.4.848 2.183 1.094.817.269 1.873.65 3.168 1.142 1.168.416 2.282.97 3.316 1.648a6.753 6.753 0 012.172 2.526c.549 1.06.841 2.23.856 3.421z" fill="#DC0000"/></svg>