<svg width="92" height="19" fill="none" xmlns="http://www.w3.org/2000/svg"><g clip-path="url(#clip0_202_2922)"><path d="M10.127 5.05H.006v10.8h2.817v-3.514H8.22l2.463 3.514h3.154l-2.716-3.53c.844-.13 1.45-.437 1.822-.923.37-.486.556-1.263.556-2.3v-.809c0-.615-.067-1.1-.185-1.473a2.441 2.441 0 00-.607-.988 2.772 2.772 0 00-1.046-.6c-.405-.112-.911-.177-1.535-.177zM9.67 9.956H2.823V7.43H9.67c.388 0 .658.065.793.178.135.113.22.324.22.632v.906c0 .324-.085.535-.22.648-.135.113-.405.162-.793.162zm8.358 2.704V5.05h-2.735v7.545c0 .615.05 1.117.164 1.49.114.388.311.712.606.988.278.291.606.485.999.599.393.13.884.178 1.507.178h6.552c.606 0 1.097-.049 1.49-.178a2.317 2.317 0 001.016-.6 2.25 2.25 0 00.59-.987c.114-.373.18-.875.18-1.49V5.05h-2.735v7.61c0 .324-.082.534-.213.648-.132.113-.394.162-.77.162H19.01c-.393 0-.655-.049-.786-.162-.131-.114-.197-.324-.197-.648zm19.723 3.19V7.43h5.207V5.05H29.854v2.38h5.206v8.42h2.691zm9.399-3.19V5.05h-2.736v7.545c0 .615.05 1.117.164 1.49.114.388.311.712.606.988.278.291.606.485 1 .599.392.13.884.178 1.506.178h6.552c.606 0 1.098-.049 1.49-.178a2.317 2.317 0 001.016-.6 2.25 2.25 0 00.59-.987c.114-.373.18-.875.18-1.49V5.05h-2.735v7.61c0 .324-.082.534-.213.648-.132.113-.394.162-.77.162h-5.668c-.393 0-.655-.049-.786-.162-.131-.114-.196-.324-.196-.648zm24.385-4.469v-.21c0-1.004-.262-1.75-.787-2.219-.525-.47-1.361-.712-2.476-.712h-9.3v10.8h9.841c1.115 0 1.951-.227 2.477-.696.524-.47.787-1.215.787-2.219v-.226c0-1.004-.263-1.717-.787-2.138-.099-.064-.198-.113-.296-.162a4.248 4.248 0 00-.426-.178c.36-.194.607-.453.754-.745.131-.291.213-.728.213-1.295zm-9.823 1.182V7.43h6.117c.394 0 .656.065.787.178.131.113.197.324.197.632v.323c0 .324-.066.535-.197.648-.131.114-.393.162-.787.162h-6.117zm0 4.097v-1.943h6.674c.378 0 .64.064.771.178.131.113.214.323.214.631v.324c0 .324-.083.534-.214.648-.131.113-.393.162-.77.162h-6.675zm14.617-6.04h9.13V5.05H73.536v10.8h12.376v-2.38H76.33v-1.83h8.913l.218-2.38H76.33V7.43z" fill="#DC0000"/><path d="M88.591 4.511a1.899 1.899 0 001.907-1.89A1.9 1.9 0 0088.591.729a1.9 1.9 0 00-1.907 1.891 1.9 1.9 0 001.907 1.891z" fill="#F41240"/></g><defs><clipPath id="clip0_202_2922"><path fill="#fff" transform="translate(.006 .73)" d="M0 0h91v18H0z"/></clipPath></defs></svg>