<svg width="92" height="19" fill="none" xmlns="http://www.w3.org/2000/svg"><g clip-path="url(#clip0_185_1817)"><path d="M10.225 4.589H.104v10.8H2.92v-3.514h5.397l2.463 3.514h3.154l-2.715-3.53c.843-.13 1.45-.437 1.821-.923.372-.486.557-1.263.557-2.3v-.809c0-.615-.067-1.1-.185-1.473a2.443 2.443 0 00-.608-.988 2.773 2.773 0 00-1.046-.599c-.404-.113-.91-.178-1.534-.178zm-.456 4.906H2.921V6.969h6.848c.388 0 .658.065.793.178.135.114.22.324.22.632v.906c0 .324-.085.535-.22.648-.135.113-.405.162-.793.162zm8.357 2.705V4.588h-2.735v7.545c0 .616.049 1.117.163 1.49.115.389.312.712.606.988.279.291.607.485 1 .599.393.13.884.178 1.507.178h6.552c.606 0 1.097-.049 1.49-.178.393-.114.72-.308 1.016-.6.278-.275.475-.598.59-.987.114-.373.18-.874.18-1.49V4.59h-2.736v7.61c0 .324-.082.534-.213.648-.13.113-.393.162-.77.162H19.11c-.393 0-.655-.049-.786-.162-.131-.114-.197-.324-.197-.648zm19.723 3.189v-8.42h5.206V4.59H29.951v2.38h5.206v8.42h2.692zm9.398-3.189V4.588h-2.735v7.545c0 .616.049 1.117.163 1.49.115.389.312.712.607.988.278.291.606.485.999.599.393.13.884.178 1.507.178h6.552c.606 0 1.097-.049 1.49-.178a2.323 2.323 0 001.016-.6c.278-.275.475-.598.59-.987.114-.373.18-.874.18-1.49V4.59H54.88v7.61c0 .324-.082.534-.213.648-.13.113-.393.162-.77.162H48.23c-.393 0-.655-.049-.786-.162-.131-.114-.197-.324-.197-.648zm24.386-4.47v-.21c0-1.004-.262-1.75-.787-2.219-.525-.47-1.361-.712-2.476-.712h-9.3v10.8h9.84c1.116 0 1.952-.227 2.477-.696.525-.47.787-1.215.787-2.219v-.226c0-1.004-.262-1.717-.787-2.138-.098-.064-.197-.113-.295-.162a4.258 4.258 0 00-.427-.178c.361-.194.607-.453.755-.745.131-.291.213-.728.213-1.295zM61.81 8.912V6.97h6.117c.394 0 .657.065.788.178.13.114.197.324.197.632v.324c0 .323-.066.534-.197.647-.131.114-.394.162-.788.162H61.81zm0 4.097v-1.943h6.675c.377 0 .64.064.771.178.131.113.213.324.213.631v.324c0 .324-.082.534-.213.648-.131.113-.394.162-.771.162H61.81zM76.426 6.97h9.132V4.588H73.633v10.8h12.376v-2.38h-9.583v-1.83h8.914l.218-2.38h-9.132v-1.83z" fill="#F2F2F2"/><path d="M88.689 4.05a1.899 1.899 0 001.906-1.89A1.899 1.899 0 0088.689.269a1.9 1.9 0 00-1.908 1.89A1.9 1.9 0 0088.69 4.05z" fill="#F41240"/></g><defs><clipPath id="clip0_185_1817"><path fill="#fff" transform="translate(.104 .269)" d="M0 0h91v18H0z"/></clipPath></defs></svg>