<svg width="142" height="50" viewBox="0 0 142 50" fill="none" xmlns="http://www.w3.org/2000/svg">
<rect x="0.289062" width="140.714" height="50" rx="25" fill="black"/>
<g clip-path="url(#clip0_202_2744)">
<path d="M28.2381 19.5999H16.0039V32.8856H19.4091V28.5632H25.9339L28.911 32.8856H32.7239L29.4411 28.5434C30.4606 28.384 31.1946 28.0055 31.6433 27.408C32.0918 26.8105 32.3161 25.8543 32.3161 24.5795V23.5836C32.3161 22.8267 32.2346 22.2291 32.0918 21.771C31.9491 21.3129 31.7044 20.9145 31.3578 20.5559C30.9907 20.2173 30.583 19.9783 30.0936 19.819C29.6042 19.6795 28.9924 19.5999 28.2381 19.5999ZM27.6876 25.6352H19.4091V22.5279H27.6876C28.1565 22.5279 28.4827 22.6076 28.6459 22.747C28.809 22.8864 28.911 23.1454 28.911 23.5238V24.6393C28.911 25.0377 28.809 25.2966 28.6459 25.436C28.4827 25.5754 28.1565 25.6352 27.6876 25.6352Z" fill="#FBFBFB"/>
<path d="M37.791 28.9616V19.5999H34.4844V28.882C34.4844 29.6388 34.5438 30.2563 34.6824 30.7144C34.821 31.1925 35.0586 31.5908 35.415 31.9295C35.7516 32.2881 36.1476 32.527 36.6228 32.6664C37.098 32.8259 37.692 32.8856 38.4444 32.8856H46.3644C47.097 32.8856 47.691 32.8259 48.1662 32.6664C48.6414 32.527 49.0374 32.2881 49.3938 31.9295C49.7304 31.5908 49.968 31.1925 50.1066 30.7144C50.2453 30.2563 50.3244 29.6388 50.3244 28.882V19.5999H47.0178V28.9616C47.0178 29.36 46.9188 29.619 46.7604 29.7584C46.602 29.8978 46.2852 29.9575 45.8298 29.9575H38.979C38.5038 29.9575 38.187 29.8978 38.0286 29.7584C37.8702 29.619 37.791 29.36 37.791 28.9616Z" fill="#FBFBFB"/>
<path d="M61.6308 32.8856V22.5279H67.924V19.5999H52.084V22.5279H58.377V32.8856H61.6308Z" fill="#FBFBFB"/>
<path d="M72.9902 28.9616V19.5999H69.6836V28.882C69.6836 29.6388 69.7431 30.2563 69.8816 30.7144C70.0202 31.1925 70.2578 31.5908 70.6142 31.9295C70.9508 32.2881 71.3468 32.527 71.822 32.6664C72.2972 32.8259 72.8912 32.8856 73.6436 32.8856H81.5636C82.2962 32.8856 82.8902 32.8259 83.3654 32.6664C83.8406 32.527 84.2366 32.2881 84.593 31.9295C84.9296 31.5908 85.1672 31.1925 85.3058 30.7144C85.4444 30.2563 85.5236 29.6388 85.5236 28.882V19.5999H82.217V28.9616C82.217 29.36 82.118 29.619 81.9596 29.7584C81.8011 29.8978 81.4844 29.9575 81.029 29.9575H74.1782C73.703 29.9575 73.3862 29.8978 73.2278 29.7584C73.0694 29.619 72.9902 29.36 72.9902 28.9616Z" fill="#FBFBFB"/>
<path d="M102.471 23.464V23.2052C102.471 21.9702 102.154 21.0539 101.519 20.4763C100.885 19.8986 99.8739 19.5999 98.526 19.5999H87.2852V32.8856H99.18C100.528 32.8856 101.539 32.6067 102.174 32.0291C102.808 31.4514 103.125 30.5351 103.125 29.3003V29.0214C103.125 27.7864 102.808 26.91 102.174 26.3921C102.055 26.3124 101.935 26.2526 101.817 26.1929C101.698 26.1331 101.519 26.0535 101.301 25.9738C101.737 25.7348 102.035 25.4161 102.213 25.0575C102.372 24.699 102.471 24.1612 102.471 23.464ZM90.5961 24.9181V22.5279H97.9904C98.4663 22.5279 98.7835 22.6076 98.9424 22.747C99.1006 22.8864 99.18 23.1454 99.18 23.5238V23.9222C99.18 24.3206 99.1006 24.5795 98.9424 24.7189C98.7835 24.8584 98.4663 24.9181 97.9904 24.9181H90.5961ZM90.5961 29.9575V27.5673H98.6643C99.1205 27.5673 99.4376 27.6469 99.5964 27.7864C99.7547 27.9258 99.854 28.1848 99.854 28.5632V28.9616C99.854 29.36 99.7547 29.619 99.5964 29.7584C99.4376 29.8978 99.1205 29.9575 98.6643 29.9575H90.5961Z" fill="#FBFBFB"/>
<path d="M108.261 22.5279H119.299V19.5999H104.885V32.8856H119.845V29.9575H108.261V27.7068H119.036L119.299 24.7787H108.261V22.5279Z" fill="#FBFBFB"/>
<path d="M123.085 18.9377C124.357 18.9377 125.39 17.8963 125.39 16.6117C125.39 15.327 124.357 14.2856 123.085 14.2856C121.812 14.2856 120.779 15.327 120.779 16.6117C120.779 17.8963 121.812 18.9377 123.085 18.9377Z" fill="#F41240"/>
</g>
<defs>
<clipPath id="clip0_202_2744">
<rect width="110" height="22.1429" fill="white" transform="translate(16.0039 14.2856)"/>
</clipPath>
</defs>
</svg>
