<svg width="1920" height="266" viewBox="0 0 1920 266" fill="none" xmlns="http://www.w3.org/2000/svg">
<rect x="0.463904" y="-0.53366" width="2526.99" height="69" transform="matrix(0.997564 -0.0697565 -0.0697565 -0.997564 -187.862 255.031)" fill="white"/>
<g clip-path="url(#clip0_185_2330)">
<path fill-rule="evenodd" clip-rule="evenodd" d="M57.8333 219.501L58.4165 227.842L32.9029 229.626L29.8028 185.292L40.1739 184.566L42.6908 220.56L57.8333 219.501ZM5.37483 187L26.4174 230.079L16.5605 230.769L12.382 221.514L-5.9604 222.797L-8.83885 232.545L-18.4671 233.218L-3.68208 187.633L5.37483 187ZM-3.64309 214.878L8.98515 213.995L1.51331 197.47L-3.64309 214.878ZM-38.224 190.049L-27.9671 189.331L-24.867 233.666L-33.3811 234.261L-57.575 208.932L-55.6948 235.821L-65.9802 236.541L-69.0804 192.206L-60.5091 191.607L-36.3438 216.938L-38.224 190.049ZM-95.2078 202.046C-97.2464 202.161 -99.2465 202.648 -101.108 203.481C-102.793 204.245 -104.3 205.347 -105.533 206.717C-106.762 208.075 -107.678 209.68 -108.218 211.422C-108.803 213.312 -109.015 215.295 -108.843 217.262C-108.741 219.226 -108.255 221.15 -107.414 222.93C-106.621 224.58 -105.492 226.048 -104.097 227.244C-102.709 228.44 -101.081 229.333 -99.3204 229.865C-97.3814 230.435 -95.3513 230.639 -93.3351 230.469C-91.3027 230.329 -89.3077 229.854 -87.433 229.062C-86.7332 228.763 -86.0572 228.412 -85.4106 228.012L-86.3201 215.005L-76.8632 214.344L-75.6077 232.298C-78.0389 234.349 -80.8111 235.965 -83.8006 237.076C-86.8502 238.258 -90.0612 238.981 -93.3261 239.22C-96.6399 239.486 -99.974 239.141 -103.159 238.203C-106.125 237.348 -108.889 235.919 -111.291 233.998C-113.612 232.078 -115.524 229.72 -116.915 227.061C-118.343 224.236 -119.174 221.152 -119.357 217.997C-119.455 216.673 -119.448 215.342 -119.337 214.018C-118.419 213.24 -117.561 212.396 -116.769 211.492C-113.62 207.993 -111.711 203.573 -111.333 198.906C-109.737 197.616 -107.979 196.538 -106.102 195.699C-103.036 194.335 -99.7448 193.537 -96.3905 193.343C-92.7195 193.075 -89.0311 193.482 -85.5116 194.543C-84.4881 194.837 -83.4849 195.196 -82.508 195.617C-82.1704 195.764 -81.5459 196.073 -80.6349 196.537L-79.9725 206.009C-81.4585 205.076 -83.0131 204.254 -84.6233 203.55C-85.6789 203.139 -86.7675 202.816 -87.8777 202.584C-89.0628 202.34 -90.2637 202.177 -91.4719 202.097C-92.714 201.988 -93.9628 201.97 -95.2078 202.046ZM-137.579 218.959C-135.817 219.221 -134.031 219.287 -132.254 219.155C-130.544 219.041 -128.852 218.747 -127.204 218.279L-125.636 240.712L-136.007 241.437L-137.579 218.959ZM-144.404 229.335C-144.279 231.578 -144.735 233.817 -145.729 235.838C-146.886 238.321 -148.824 240.366 -151.253 241.668C-154.065 243.238 -157.245 244.049 -160.471 244.017C-163.995 244.048 -166.884 243.649 -169.139 242.822C-170.776 242.271 -172.345 241.54 -173.817 240.643L-174.568 229.899C-172.468 231.62 -170.11 233.007 -167.579 234.013C-165.068 235.004 -163.099 235.511 -161.673 235.532C-160.303 235.563 -158.939 235.332 -157.656 234.853C-156.603 234.479 -155.675 233.824 -154.974 232.961C-154.443 232.23 -154.19 231.337 -154.261 230.439C-154.283 229.886 -154.438 229.346 -154.713 228.864C-154.988 228.382 -155.376 227.973 -155.844 227.669C-156.997 226.922 -158.241 226.322 -159.546 225.882C-161.024 225.355 -162.658 224.816 -164.437 224.264C-166.107 223.753 -167.726 223.09 -169.272 222.283C-170.659 221.559 -171.918 220.616 -172.999 219.492C-174 218.463 -174.742 217.214 -175.166 215.848C-175.587 214.538 -175.85 213.183 -175.948 211.811C-175.999 210.136 -175.766 208.465 -175.26 206.865C-174.608 204.827 -173.405 203.004 -171.781 201.593C-170.034 199.982 -167.556 198.95 -164.35 198.482C-161.744 198.088 -159.096 198.036 -156.477 198.329C-156.288 201.55 -155.398 204.692 -153.869 207.54C-154.839 207.19 -155.832 206.904 -156.84 206.685C-158.434 206.274 -160.091 206.153 -161.729 206.328C-162.644 206.428 -163.535 206.683 -164.364 207.08C-164.801 207.317 -165.183 207.642 -165.485 208.034C-165.738 208.381 -165.945 208.758 -166.102 209.157C-166.261 209.597 -166.368 210.055 -166.42 210.52C-166.482 211.1 -166.46 211.686 -166.356 212.26C-166.245 212.777 -166.022 213.263 -165.702 213.685C-165.382 214.107 -164.972 214.455 -164.502 214.705C-163.371 215.406 -162.133 215.922 -160.835 216.233C-159.479 216.577 -157.722 217.076 -155.563 217.728C-153.62 218.27 -151.75 219.042 -149.993 220.026C-148.417 220.975 -147.107 222.3 -146.181 223.879C-145.171 225.537 -144.563 227.405 -144.404 229.335Z" fill="#283238"/>
</g>
<g clip-path="url(#clip1_185_2330)">
<path fill-rule="evenodd" clip-rule="evenodd" d="M151.986 173.111C152.508 173.545 152.934 174.081 153.238 174.686C153.542 175.29 153.717 175.95 153.753 176.624L153.762 176.754C153.803 177.411 153.711 178.069 153.494 178.691C153.276 179.312 152.936 179.886 152.494 180.377C152.054 180.894 151.512 181.317 150.901 181.619C150.29 181.92 149.623 182.095 148.942 182.132C147.583 182.234 146.24 181.804 145.201 180.933C144.162 180.063 143.512 178.822 143.391 177.479L143.382 177.349C143.324 176.676 143.406 175.999 143.623 175.358C143.839 174.717 144.187 174.127 144.643 173.624C145.09 173.107 145.637 172.685 146.252 172.383C146.868 172.082 147.539 171.906 148.224 171.868C148.904 171.809 149.589 171.889 150.236 172.103C150.883 172.317 151.478 172.66 151.986 173.111Z" fill="#EB5C60"/>
<path fill-rule="evenodd" clip-rule="evenodd" d="M340.323 199.747L340.907 208.088L315.393 209.872L312.293 165.538L322.664 164.813L325.181 200.806L340.323 199.747ZM287.865 167.246L308.908 210.326L299.051 211.015L294.872 201.76L276.53 203.043L273.651 212.791L264.023 213.464L278.808 167.879L287.865 167.246ZM278.847 195.124L291.475 194.241L284.004 177.716L278.847 195.124ZM244.266 170.295L254.523 169.577L257.623 213.912L249.109 214.507L224.915 189.178L226.795 216.067L216.51 216.787L213.41 172.452L221.981 171.853L246.146 197.184L244.266 170.295ZM187.282 182.292C185.244 182.407 183.244 182.894 181.382 183.727C179.697 184.491 178.19 185.593 176.958 186.963C175.729 188.321 174.812 189.926 174.272 191.668C173.688 193.558 173.475 195.541 173.647 197.508C173.749 199.472 174.235 201.396 175.077 203.176C175.869 204.826 176.998 206.294 178.393 207.49C179.782 208.686 181.409 209.579 183.17 210.111C185.109 210.681 187.139 210.886 189.155 210.715C191.188 210.575 193.182 210.1 195.057 209.308C195.757 209.009 196.433 208.658 197.08 208.258L196.17 195.251L205.627 194.59L206.883 212.544C204.451 214.595 201.679 216.211 198.69 217.322C195.64 218.504 192.429 219.227 189.164 219.466C185.85 219.732 182.516 219.388 179.331 218.449C176.365 217.595 173.601 216.165 171.2 214.244C168.878 212.324 166.967 209.966 165.575 207.307C164.148 204.482 163.316 201.398 163.133 198.244C163.035 196.919 163.042 195.588 163.153 194.264C164.071 193.486 164.929 192.642 165.721 191.738C168.871 188.24 170.78 183.82 171.157 179.152C172.753 177.863 174.511 176.784 176.388 175.945C179.454 174.581 182.745 173.783 186.1 173.589C189.771 173.321 193.459 173.728 196.979 174.789C198.002 175.083 199.005 175.442 199.982 175.863C200.32 176.01 200.944 176.319 201.855 176.783L202.518 186.255C201.032 185.322 199.477 184.5 197.867 183.796C196.811 183.385 195.723 183.062 194.613 182.83C193.427 182.586 192.226 182.423 191.018 182.343C189.776 182.234 188.527 182.217 187.282 182.292ZM144.911 199.205C146.673 199.467 148.459 199.533 150.237 199.401C151.946 199.287 153.639 198.993 155.286 198.525L156.854 220.958L146.483 221.683L144.911 199.205ZM138.086 209.581C138.211 211.824 137.755 214.063 136.761 216.084C135.604 218.567 133.666 220.612 131.237 221.914C128.425 223.485 125.245 224.295 122.019 224.264C118.495 224.294 115.606 223.896 113.351 223.068C111.714 222.517 110.146 221.786 108.674 220.889L107.922 210.145C110.023 211.866 112.38 213.254 114.911 214.259C117.423 215.25 119.391 215.757 120.817 215.778C122.187 215.809 123.551 215.578 124.835 215.1C125.887 214.725 126.815 214.07 127.516 213.207C128.047 212.476 128.3 211.583 128.23 210.685C128.208 210.132 128.053 209.592 127.777 209.11C127.502 208.628 127.114 208.219 126.646 207.915C125.493 207.168 124.249 206.568 122.944 206.128C121.466 205.601 119.832 205.062 118.054 204.51C116.383 203.999 114.764 203.336 113.218 202.53C111.831 201.805 110.573 200.863 109.491 199.739C108.491 198.709 107.748 197.461 107.325 196.094C106.903 194.784 106.64 193.429 106.543 192.057C106.492 190.383 106.724 188.711 107.23 187.111C107.883 185.073 109.086 183.25 110.709 181.839C112.457 180.228 114.934 179.196 118.14 178.728C120.746 178.334 123.394 178.282 126.013 178.575C126.202 181.796 127.092 184.938 128.621 187.786C127.651 187.436 126.658 187.151 125.65 186.931C124.056 186.52 122.4 186.399 120.761 186.574C119.846 186.674 118.955 186.929 118.127 187.326C117.689 187.563 117.307 187.888 117.005 188.28C116.752 188.627 116.545 189.004 116.388 189.403C116.229 189.843 116.122 190.301 116.07 190.766C116.009 191.346 116.03 191.932 116.135 192.506C116.245 193.023 116.468 193.509 116.789 193.931C117.109 194.353 117.518 194.701 117.988 194.951C119.119 195.652 120.357 196.168 121.655 196.479C123.011 196.823 124.769 197.322 126.927 197.974C128.871 198.516 130.741 199.288 132.497 200.272C134.073 201.221 135.384 202.546 136.309 204.125C137.319 205.783 137.927 207.651 138.086 209.581Z" fill="#283238"/>
</g>
<g clip-path="url(#clip2_185_2330)">
<path fill-rule="evenodd" clip-rule="evenodd" d="M434.478 153.357C435 153.792 435.426 154.328 435.73 154.932C436.034 155.536 436.209 156.196 436.245 156.87L436.254 157C436.295 157.657 436.203 158.315 435.986 158.937C435.768 159.559 435.428 160.132 434.986 160.624C434.546 161.141 434.004 161.563 433.393 161.865C432.782 162.167 432.115 162.341 431.434 162.378C430.076 162.481 428.732 162.05 427.693 161.18C426.654 160.309 426.004 159.068 425.883 157.726L425.874 157.596C425.816 156.923 425.898 156.245 426.115 155.604C426.332 154.963 426.679 154.373 427.135 153.871C427.582 153.354 428.129 152.932 428.745 152.63C429.36 152.328 430.031 152.153 430.716 152.114C431.396 152.056 432.081 152.136 432.728 152.349C433.375 152.563 433.971 152.906 434.478 153.357Z" fill="#EB5C60"/>
<path fill-rule="evenodd" clip-rule="evenodd" d="M622.816 179.993L623.399 188.334L597.885 190.118L594.785 145.784L605.156 145.059L607.673 181.052L622.816 179.993ZM570.357 147.492L591.4 190.572L581.543 191.261L577.364 182.007L559.022 183.289L556.144 193.037L546.515 193.711L561.3 148.126L570.357 147.492ZM561.339 175.371L573.968 174.488L566.496 157.962L561.339 175.371ZM526.758 150.541L537.015 149.824L540.115 194.158L531.601 194.753L507.407 169.425L509.288 196.314L499.002 197.033L495.902 152.699L504.473 152.099L528.639 177.43L526.758 150.541ZM469.775 162.538C467.736 162.654 465.736 163.14 463.875 163.973C462.189 164.737 460.683 165.839 459.45 167.209C458.221 168.567 457.305 170.173 456.764 171.915C456.18 173.804 455.968 175.787 456.139 177.755C456.242 179.718 456.727 181.643 457.569 183.422C458.361 185.072 459.491 186.541 460.885 187.737C462.274 188.932 463.901 189.825 465.662 190.357C467.601 190.927 469.631 191.132 471.647 190.962C473.68 190.822 475.675 190.346 477.549 189.555C478.249 189.255 478.925 188.904 479.572 188.504L478.662 175.498L488.119 174.837L489.375 192.791C486.944 194.841 484.171 196.458 481.182 197.569C478.132 198.751 474.921 199.473 471.656 199.712C468.343 199.979 465.008 199.634 461.824 198.695C458.858 197.841 456.093 196.412 453.692 194.49C451.37 192.57 449.459 190.212 448.067 187.553C446.64 184.729 445.809 181.645 445.625 178.49C445.527 177.165 445.534 175.835 445.645 174.511C446.563 173.732 447.421 172.888 448.213 171.984C451.363 168.486 453.272 164.066 453.649 159.398C455.245 158.109 457.004 157.031 458.88 156.191C461.946 154.828 465.238 154.029 468.592 153.836C472.263 153.568 475.951 153.975 479.471 155.035C480.494 155.329 481.498 155.688 482.474 156.11C482.812 156.256 483.437 156.565 484.348 157.03L485.01 166.502C483.524 165.568 481.969 164.746 480.359 164.043C479.303 163.631 478.215 163.308 477.105 163.077C475.92 162.832 474.719 162.669 473.511 162.589C472.268 162.48 471.02 162.463 469.775 162.538ZM427.404 179.452C429.165 179.714 430.952 179.779 432.729 179.647C434.438 179.533 436.131 179.24 437.778 178.772L439.347 201.204L428.976 201.93L427.404 179.452ZM420.578 189.828C420.703 192.071 420.247 194.309 419.253 196.33C418.097 198.813 416.158 200.859 413.729 202.16C410.917 203.731 407.738 204.541 404.511 204.51C400.987 204.54 398.098 204.142 395.843 203.315C394.207 202.763 392.638 202.032 391.166 201.136L390.415 190.391C392.515 192.112 394.872 193.5 397.403 194.506C399.915 195.497 401.883 196.003 403.309 196.025C404.679 196.055 406.043 195.825 407.327 195.346C408.379 194.971 409.307 194.317 410.008 193.454C410.539 192.722 410.792 191.829 410.722 190.932C410.7 190.378 410.545 189.838 410.269 189.356C409.994 188.875 409.606 188.465 409.139 188.162C407.985 187.414 406.741 186.814 405.436 186.375C403.958 185.847 402.324 185.308 400.546 184.756C398.875 184.245 397.257 183.582 395.71 182.776C394.323 182.051 393.065 181.109 391.984 179.985C390.983 178.955 390.241 177.707 389.817 176.341C389.395 175.031 389.132 173.676 389.035 172.304C388.984 170.629 389.216 168.957 389.723 167.357C390.375 165.319 391.578 163.496 393.201 162.085C394.949 160.474 397.426 159.443 400.632 158.974C403.239 158.58 405.886 158.529 408.505 158.821C408.695 162.043 409.584 165.184 411.113 168.032C410.143 167.682 409.151 167.397 408.142 167.177C406.548 166.766 404.892 166.645 403.254 166.82C402.339 166.92 401.447 167.175 400.619 167.573C400.181 167.809 399.799 168.134 399.497 168.526C399.244 168.873 399.037 169.25 398.881 169.649C398.721 170.09 398.614 170.547 398.563 171.012C398.501 171.593 398.522 172.179 398.627 172.752C398.737 173.269 398.961 173.755 399.281 174.178C399.601 174.6 400.01 174.948 400.48 175.197C401.611 175.899 402.849 176.415 404.147 176.725C405.503 177.07 407.261 177.568 409.42 178.22C411.363 178.762 413.233 179.534 414.989 180.519C416.565 181.468 417.876 182.792 418.802 184.372C419.811 186.03 420.42 187.897 420.578 189.828Z" fill="#283238"/>
</g>
<g clip-path="url(#clip3_185_2330)">
<path fill-rule="evenodd" clip-rule="evenodd" d="M716.968 133.603C717.49 134.038 717.916 134.574 718.22 135.178C718.524 135.782 718.7 136.442 718.736 137.117L718.745 137.247C718.785 137.903 718.694 138.561 718.476 139.183C718.258 139.805 717.919 140.378 717.476 140.87C717.037 141.387 716.495 141.81 715.884 142.111C715.273 142.413 714.606 142.588 713.924 142.624C712.566 142.727 711.222 142.296 710.183 141.426C709.145 140.555 708.495 139.315 708.374 137.972L708.364 137.842C708.306 137.169 708.388 136.491 708.605 135.851C708.822 135.21 709.169 134.62 709.626 134.117C710.072 133.6 710.619 133.178 711.235 132.876C711.85 132.574 712.521 132.399 713.206 132.361C713.886 132.302 714.571 132.382 715.218 132.596C715.865 132.81 716.461 133.153 716.968 133.603Z" fill="#EB5C60"/>
<path fill-rule="evenodd" clip-rule="evenodd" d="M905.306 160.24L905.889 168.581L880.376 170.365L877.275 126.03L887.647 125.305L890.163 161.299L905.306 160.24ZM852.847 127.739L873.89 170.818L864.033 171.507L859.855 162.253L841.512 163.536L838.634 173.284L829.006 173.957L843.791 128.372L852.847 127.739ZM843.83 155.617L856.458 154.734L848.986 138.209L843.83 155.617ZM809.249 130.787L819.506 130.07L822.606 174.404L814.092 175L789.898 149.671L791.778 176.56L781.492 177.279L778.392 132.945L786.964 132.346L811.129 157.676L809.249 130.787ZM752.265 142.784C750.226 142.9 748.226 143.387 746.365 144.22C744.68 144.984 743.173 146.086 741.94 147.456C740.711 148.814 739.795 150.419 739.254 152.161C738.67 154.051 738.458 156.033 738.629 158.001C738.732 159.964 739.217 161.889 740.059 163.669C740.852 165.318 741.981 166.787 743.375 167.983C744.764 169.179 746.391 170.071 748.152 170.604C750.091 171.173 752.121 171.378 754.138 171.208C756.17 171.068 758.165 170.592 760.04 169.801C760.739 169.502 761.415 169.15 762.062 168.75L761.153 155.744L770.609 155.083L771.865 173.037C769.434 175.087 766.662 176.704 763.672 177.815C760.622 178.997 757.412 179.72 754.147 179.959C750.833 180.225 747.499 179.88 744.314 178.941C741.348 178.087 738.584 176.658 736.182 174.737C733.861 172.817 731.949 170.459 730.558 167.8C729.13 164.975 728.299 161.891 728.115 158.736C728.018 157.411 728.024 156.081 728.136 154.757C729.053 153.979 729.912 153.134 730.704 152.231C733.853 148.732 735.762 144.312 736.14 139.644C737.735 138.355 739.494 137.277 741.37 136.437C744.437 135.074 747.728 134.276 751.082 134.082C754.753 133.814 758.442 134.221 761.961 135.282C762.985 135.576 763.988 135.935 764.965 136.356C765.302 136.503 765.927 136.811 766.838 137.276L767.5 146.748C766.014 145.815 764.46 144.993 762.849 144.289C761.794 143.878 760.705 143.555 759.595 143.323C758.41 143.079 757.209 142.916 756.001 142.836C754.759 142.726 753.51 142.709 752.265 142.784ZM709.894 159.698C711.656 159.96 713.442 160.026 715.219 159.894C716.928 159.78 718.621 159.486 720.268 159.018L721.837 181.451L711.466 182.176L709.894 159.698ZM703.069 170.074C703.193 172.317 702.737 174.555 701.743 176.577C700.587 179.059 698.649 181.105 696.219 182.407C693.407 183.977 690.228 184.787 687.001 184.756C683.478 184.787 680.588 184.388 678.333 183.561C676.697 183.009 675.128 182.278 673.656 181.382L672.905 170.638C675.005 172.358 677.363 173.746 679.893 174.752C682.405 175.743 684.374 176.249 685.799 176.271C687.17 176.302 688.534 176.071 689.817 175.592C690.87 175.218 691.798 174.563 692.498 173.7C693.03 172.969 693.283 172.075 693.212 171.178C693.19 170.625 693.035 170.085 692.76 169.603C692.484 169.121 692.097 168.711 691.629 168.408C690.476 167.661 689.232 167.06 687.927 166.621C686.448 166.094 684.814 165.554 683.036 165.003C681.366 164.491 679.747 163.829 678.2 163.022C676.814 162.298 675.555 161.355 674.474 160.231C673.473 159.202 672.731 157.953 672.307 156.587C671.885 155.277 671.623 153.922 671.525 152.55C671.474 150.875 671.707 149.203 672.213 147.604C672.865 145.566 674.068 143.743 675.691 142.331C677.439 140.72 679.916 139.689 683.122 139.221C685.729 138.826 688.376 138.775 690.995 139.068C691.185 142.289 692.074 145.431 693.603 148.279C692.633 147.929 691.641 147.643 690.632 147.424C689.038 147.013 687.382 146.892 685.744 147.067C684.829 147.167 683.938 147.421 683.109 147.819C682.672 148.055 682.289 148.38 681.987 148.773C681.734 149.12 681.527 149.497 681.371 149.895C681.211 150.336 681.105 150.794 681.053 151.259C680.991 151.839 681.013 152.425 681.117 152.999C681.228 153.515 681.451 154.002 681.771 154.424C682.091 154.846 682.5 155.194 682.97 155.443C684.101 156.145 685.34 156.661 686.637 156.971C687.994 157.316 689.751 157.814 691.91 158.466C693.853 159.009 695.723 159.78 697.48 160.765C699.055 161.714 700.366 163.039 701.292 164.618C702.302 166.276 702.91 168.144 703.069 170.074Z" fill="#283238"/>
</g>
<g clip-path="url(#clip4_185_2330)">
<path fill-rule="evenodd" clip-rule="evenodd" d="M999.46 113.85C999.982 114.284 1000.41 114.82 1000.71 115.425C1001.02 116.029 1001.19 116.689 1001.23 117.363L1001.24 117.493C1001.28 118.15 1001.19 118.808 1000.97 119.43C1000.75 120.051 1000.41 120.625 999.969 121.116C999.529 121.633 998.987 122.056 998.376 122.358C997.765 122.659 997.098 122.834 996.416 122.871C995.058 122.973 993.714 122.543 992.676 121.672C991.637 120.802 990.987 119.561 990.866 118.218L990.857 118.088C990.798 117.415 990.88 116.738 991.097 116.097C991.314 115.456 991.661 114.866 992.118 114.363C992.564 113.846 993.112 113.424 993.727 113.122C994.342 112.821 995.013 112.645 995.699 112.607C996.379 112.548 997.063 112.628 997.71 112.842C998.357 113.056 998.953 113.399 999.46 113.85Z" fill="#EB5C60"/>
<path fill-rule="evenodd" clip-rule="evenodd" d="M1187.8 140.486L1188.38 148.827L1162.87 150.611L1159.77 106.277L1170.14 105.552L1172.66 141.545L1187.8 140.486ZM1135.34 107.985L1156.38 151.065L1146.53 151.754L1142.35 142.499L1124 143.782L1121.13 153.53L1111.5 154.203L1126.28 108.618L1135.34 107.985ZM1126.32 135.863L1138.95 134.98L1131.48 118.455L1126.32 135.863ZM1091.74 111.034L1102 110.316L1105.1 154.651L1096.58 155.246L1072.39 129.917L1074.27 156.806L1063.98 157.526L1060.88 113.191L1069.46 112.592L1093.62 137.923L1091.74 111.034ZM1034.76 123.031C1032.72 123.146 1030.72 123.633 1028.86 124.466C1027.17 125.23 1025.66 126.332 1024.43 127.702C1023.2 129.06 1022.29 130.665 1021.75 132.407C1021.16 134.297 1020.95 136.28 1021.12 138.247C1021.22 140.211 1021.71 142.135 1022.55 143.915C1023.34 145.565 1024.47 147.033 1025.87 148.229C1027.26 149.425 1028.88 150.318 1030.64 150.85C1032.58 151.42 1034.61 151.625 1036.63 151.454C1038.66 151.314 1040.66 150.839 1042.53 150.047C1043.23 149.748 1043.91 149.397 1044.55 148.997L1043.64 135.99L1053.1 135.329L1054.36 153.283C1051.93 155.334 1049.15 156.95 1046.16 158.061C1043.11 159.243 1039.9 159.966 1036.64 160.205C1033.32 160.471 1029.99 160.127 1026.81 159.188C1023.84 158.334 1021.08 156.904 1018.67 154.983C1016.35 153.063 1014.44 150.705 1013.05 148.046C1011.62 145.221 1010.79 142.137 1010.61 138.983C1010.51 137.658 1010.52 136.327 1010.63 135.003C1011.55 134.225 1012.4 133.381 1013.2 132.477C1016.35 128.979 1018.25 124.559 1018.63 119.891C1020.23 118.602 1021.99 117.524 1023.86 116.684C1026.93 115.32 1030.22 114.522 1033.57 114.328C1037.25 114.06 1040.93 114.467 1044.45 115.528C1045.48 115.822 1046.48 116.181 1047.46 116.602C1047.79 116.749 1048.42 117.058 1049.33 117.522L1049.99 126.994C1048.51 126.061 1046.95 125.239 1045.34 124.535C1044.29 124.124 1043.2 123.801 1042.09 123.569C1040.9 123.325 1039.7 123.162 1038.49 123.082C1037.25 122.973 1036 122.956 1034.76 123.031ZM992.386 139.944C994.148 140.206 995.934 140.272 997.711 140.14C999.421 140.026 1001.11 139.732 1002.76 139.264L1004.33 161.697L993.958 162.422L992.386 139.944ZM985.561 150.32C985.686 152.564 985.229 154.802 984.236 156.823C983.079 159.306 981.141 161.351 978.712 162.653C975.899 164.224 972.72 165.034 969.493 165.003C965.97 165.033 963.081 164.635 960.825 163.807C959.189 163.256 957.62 162.525 956.148 161.628L955.397 150.884C957.497 152.605 959.855 153.993 962.386 154.998C964.897 155.989 966.866 156.496 968.291 156.517C969.662 156.548 971.026 156.317 972.309 155.839C973.362 155.464 974.29 154.809 974.991 153.946C975.522 153.215 975.775 152.322 975.704 151.425C975.682 150.871 975.527 150.331 975.252 149.849C974.976 149.367 974.589 148.958 974.121 148.654C972.968 147.907 971.724 147.307 970.419 146.867C968.941 146.34 967.307 145.801 965.528 145.249C963.858 144.738 962.239 144.075 960.693 143.269C959.306 142.544 958.047 141.602 956.966 140.478C955.965 139.448 955.223 138.2 954.799 136.833C954.377 135.523 954.115 134.168 954.017 132.796C953.966 131.122 954.199 129.45 954.705 127.85C955.357 125.812 956.56 123.989 958.184 122.578C959.931 120.967 962.409 119.935 965.614 119.467C968.221 119.073 970.868 119.021 973.488 119.314C973.677 122.535 974.566 125.677 976.095 128.525C975.125 128.175 974.133 127.89 973.124 127.67C971.531 127.259 969.874 127.138 968.236 127.313C967.321 127.413 966.43 127.668 965.601 128.065C965.164 128.302 964.781 128.627 964.479 129.019C964.227 129.366 964.019 129.743 963.863 130.142C963.704 130.582 963.597 131.04 963.545 131.505C963.483 132.085 963.505 132.671 963.609 133.245C963.72 133.762 963.943 134.248 964.263 134.67C964.583 135.092 964.993 135.44 965.463 135.69C966.594 136.391 967.832 136.907 969.13 137.218C970.486 137.562 972.243 138.061 974.402 138.713C976.345 139.255 978.215 140.027 979.972 141.011C981.548 141.961 982.858 143.285 983.784 144.864C984.794 146.523 985.402 148.39 985.561 150.32Z" fill="#283238"/>
</g>
<g clip-path="url(#clip5_185_2330)">
<path fill-rule="evenodd" clip-rule="evenodd" d="M1281.95 94.0961C1282.47 94.5306 1282.9 95.0666 1283.2 95.6709C1283.51 96.2752 1283.68 96.9349 1283.72 97.6094L1283.73 97.7394C1283.77 98.396 1283.68 99.0541 1283.46 99.6759C1283.24 100.298 1282.9 100.871 1282.46 101.363C1282.02 101.88 1281.48 102.302 1280.87 102.604C1280.25 102.906 1279.59 103.08 1278.91 103.117C1277.55 103.22 1276.2 102.789 1275.17 101.919C1274.13 101.048 1273.48 99.8072 1273.36 98.4647L1273.35 98.3346C1273.29 97.6617 1273.37 96.9839 1273.59 96.3432C1273.8 95.7025 1274.15 95.1125 1274.61 94.6096C1275.05 94.0928 1275.6 93.6707 1276.22 93.3688C1276.83 93.067 1277.5 92.8916 1278.19 92.8533C1278.87 92.7947 1279.55 92.8747 1280.2 93.0885C1280.85 93.3023 1281.44 93.6452 1281.95 94.0961Z" fill="#EB5C60"/>
<path fill-rule="evenodd" clip-rule="evenodd" d="M1470.29 120.732L1470.87 129.073L1445.36 130.857L1442.26 86.5231L1452.63 85.7979L1455.15 121.791L1470.29 120.732ZM1417.83 88.2313L1438.87 131.311L1429.02 132L1424.84 122.746L1406.49 124.028L1403.62 133.776L1393.99 134.45L1408.77 88.8646L1417.83 88.2313ZM1408.81 116.11L1421.44 115.227L1413.97 98.7014L1408.81 116.11ZM1374.23 91.28L1384.49 90.5628L1387.59 134.897L1379.07 135.492L1354.88 110.164L1356.76 137.053L1346.47 137.772L1343.37 93.4377L1351.95 92.8383L1376.11 118.169L1374.23 91.28ZM1317.25 103.277C1315.21 103.393 1313.21 103.879 1311.35 104.712C1309.66 105.476 1308.16 106.578 1306.92 107.948C1305.69 109.306 1304.78 110.912 1304.24 112.654C1303.65 114.543 1303.44 116.526 1303.61 118.494C1303.71 120.457 1304.2 122.382 1305.04 124.161C1305.83 125.811 1306.96 127.28 1308.36 128.476C1309.75 129.671 1311.37 130.564 1313.13 131.097C1315.07 131.666 1317.1 131.871 1319.12 131.701C1321.15 131.561 1323.15 131.085 1325.02 130.294C1325.72 129.994 1326.4 129.643 1327.04 129.243L1326.13 116.237L1335.59 115.576L1336.85 133.53C1334.42 135.58 1331.64 137.197 1328.65 138.308C1325.6 139.49 1322.39 140.212 1319.13 140.451C1315.82 140.718 1312.48 140.373 1309.3 139.434C1306.33 138.58 1303.57 137.151 1301.16 135.229C1298.84 133.309 1296.93 130.951 1295.54 128.292C1294.11 125.468 1293.28 122.384 1293.1 119.229C1293 117.904 1293.01 116.574 1293.12 115.25C1294.04 114.471 1294.89 113.627 1295.69 112.723C1298.84 109.225 1300.74 104.805 1301.12 100.137C1302.72 98.8479 1304.48 97.7698 1306.35 96.93C1309.42 95.5665 1312.71 94.7683 1316.06 94.5746C1319.74 94.3068 1323.42 94.7136 1326.94 95.7743C1327.97 96.0684 1328.97 96.4272 1329.95 96.8485C1330.28 96.9954 1330.91 97.304 1331.82 97.7688L1332.48 107.241C1331 106.307 1329.44 105.485 1327.83 104.782C1326.78 104.37 1325.69 104.047 1324.58 103.816C1323.39 103.571 1322.19 103.408 1320.98 103.328C1319.74 103.219 1318.49 103.202 1317.25 103.277ZM1274.88 120.191C1276.64 120.453 1278.42 120.518 1280.2 120.386C1281.91 120.272 1283.6 119.979 1285.25 119.511L1286.82 141.943L1276.45 142.669L1274.88 120.191ZM1268.05 130.567C1268.18 132.81 1267.72 135.048 1266.73 137.069C1265.57 139.552 1263.63 141.598 1261.2 142.899C1258.39 144.47 1255.21 145.28 1251.98 145.249C1248.46 145.279 1245.57 144.881 1243.32 144.054C1241.68 143.502 1240.11 142.771 1238.64 141.875L1237.89 131.13C1239.99 132.851 1242.35 134.239 1244.88 135.245C1247.39 136.236 1249.36 136.742 1250.78 136.764C1252.15 136.794 1253.52 136.564 1254.8 136.085C1255.85 135.711 1256.78 135.056 1257.48 134.193C1258.01 133.461 1258.26 132.568 1258.19 131.671C1258.17 131.117 1258.02 130.577 1257.74 130.095C1257.47 129.614 1257.08 129.204 1256.61 128.901C1255.46 128.153 1254.21 127.553 1252.91 127.114C1251.43 126.586 1249.8 126.047 1248.02 125.495C1246.35 124.984 1244.73 124.321 1243.18 123.515C1241.8 122.79 1240.54 121.848 1239.46 120.724C1238.46 119.694 1237.71 118.446 1237.29 117.08C1236.87 115.77 1236.61 114.415 1236.51 113.043C1236.46 111.368 1236.69 109.696 1237.2 108.096C1237.85 106.058 1239.05 104.235 1240.67 102.824C1242.42 101.213 1244.9 100.182 1248.1 99.7132C1250.71 99.319 1253.36 99.2676 1255.98 99.5604C1256.17 102.782 1257.06 105.923 1258.59 108.771C1257.62 108.421 1256.62 108.136 1255.61 107.916C1254.02 107.505 1252.36 107.384 1250.73 107.559C1249.81 107.659 1248.92 107.914 1248.09 108.312C1247.65 108.548 1247.27 108.873 1246.97 109.265C1246.72 109.612 1246.51 109.99 1246.35 110.388C1246.19 110.829 1246.09 111.286 1246.04 111.751C1245.97 112.332 1246 112.918 1246.1 113.491C1246.21 114.008 1246.43 114.494 1246.75 114.917C1247.07 115.339 1247.48 115.687 1247.95 115.936C1249.08 116.638 1250.32 117.154 1251.62 117.464C1252.98 117.809 1254.73 118.307 1256.89 118.959C1258.84 119.501 1260.71 120.273 1262.46 121.258C1264.04 122.207 1265.35 123.531 1266.27 125.111C1267.28 126.769 1267.89 128.636 1268.05 130.567Z" fill="#283238"/>
</g>
<g clip-path="url(#clip6_185_2330)">
<path fill-rule="evenodd" clip-rule="evenodd" d="M1564.44 74.3425C1564.96 74.7769 1565.39 75.3129 1565.69 75.9172C1566 76.5215 1566.17 77.1813 1566.21 77.8557L1566.22 77.9858C1566.26 78.6423 1566.17 79.3004 1565.95 79.9222C1565.73 80.544 1565.39 81.1173 1564.95 81.609C1564.51 82.1261 1563.97 82.5487 1563.36 82.8504C1562.75 83.1521 1562.08 83.3267 1561.4 83.3633C1560.04 83.466 1558.7 83.0355 1557.66 82.1649C1556.62 81.2943 1555.97 80.0536 1555.85 78.711L1555.84 78.5809C1555.78 77.908 1555.86 77.2303 1556.08 76.5896C1556.3 75.9488 1556.64 75.3588 1557.1 74.8559C1557.55 74.3391 1558.09 73.917 1558.71 73.6152C1559.32 73.3133 1560 73.1379 1560.68 73.0997C1561.36 73.041 1562.05 73.1211 1562.69 73.3348C1563.34 73.5486 1563.94 73.8915 1564.44 74.3425Z" fill="#EB5C60"/>
<path fill-rule="evenodd" clip-rule="evenodd" d="M1752.78 100.979L1753.36 109.32L1727.85 111.104L1724.75 66.7694L1735.12 66.0442L1737.64 102.038L1752.78 100.979ZM1700.32 68.4776L1721.36 111.557L1711.51 112.246L1707.33 102.992L1688.99 104.275L1686.11 114.023L1676.48 114.696L1691.27 69.1109L1700.32 68.4776ZM1691.3 96.3559L1703.93 95.4729L1696.46 78.9478L1691.3 96.3559ZM1656.72 71.5263L1666.98 70.8091L1670.08 115.143L1661.57 115.739L1637.37 90.4101L1639.25 117.299L1628.97 118.018L1625.87 73.684L1634.44 73.0847L1658.6 98.4153L1656.72 71.5263ZM1599.74 83.5234C1597.7 83.639 1595.7 84.1256 1593.84 84.9588C1592.15 85.7226 1590.65 86.8245 1589.41 88.1947C1588.19 89.5526 1587.27 91.1581 1586.73 92.9002C1586.14 94.7897 1585.93 96.7723 1586.1 98.7401C1586.21 100.703 1586.69 102.628 1587.53 104.408C1588.33 106.057 1589.46 107.526 1590.85 108.722C1592.24 109.918 1593.87 110.811 1595.63 111.343C1597.57 111.912 1599.6 112.117 1601.61 111.947C1603.64 111.807 1605.64 111.332 1607.51 110.54C1608.21 110.241 1608.89 109.889 1609.54 109.489L1608.63 96.4832L1618.08 95.8219L1619.34 113.776C1616.91 115.826 1614.14 117.443 1611.15 118.554C1608.1 119.736 1604.89 120.459 1601.62 120.698C1598.31 120.964 1594.97 120.619 1591.79 119.68C1588.82 118.826 1586.06 117.397 1583.66 115.476C1581.34 113.556 1579.42 111.198 1578.03 108.539C1576.6 105.714 1575.77 102.63 1575.59 99.4753C1575.49 98.1505 1575.5 96.8201 1575.61 95.4961C1576.53 94.7178 1577.39 93.8733 1578.18 92.9696C1581.33 89.4712 1583.24 85.0513 1583.61 80.3834C1585.21 79.0943 1586.97 78.0162 1588.85 77.1764C1591.91 75.8129 1595.2 75.0146 1598.56 74.8209C1602.23 74.5532 1605.92 74.9599 1609.44 76.0206C1610.46 76.3148 1611.46 76.6736 1612.44 77.0949C1612.78 77.2417 1613.4 77.5504 1614.31 78.0152L1614.97 87.4871C1613.49 86.5536 1611.93 85.7316 1610.32 85.0279C1609.27 84.6168 1608.18 84.2938 1607.07 84.0621C1605.88 83.8176 1604.68 83.6547 1603.48 83.5747C1602.23 83.4654 1600.98 83.4483 1599.74 83.5234ZM1557.37 100.437C1559.13 100.699 1560.92 100.765 1562.69 100.633C1564.4 100.519 1566.1 100.225 1567.74 99.7569L1569.31 122.19L1558.94 122.915L1557.37 100.437ZM1550.54 110.813C1550.67 113.056 1550.21 115.294 1549.22 117.316C1548.06 119.798 1546.12 121.844 1543.69 123.146C1540.88 124.716 1537.7 125.526 1534.48 125.495C1530.95 125.526 1528.06 125.127 1525.81 124.3C1524.17 123.748 1522.6 123.017 1521.13 122.121L1520.38 111.377C1522.48 113.097 1524.84 114.485 1527.37 115.491C1529.88 116.482 1531.85 116.988 1533.27 117.01C1534.64 117.041 1536.01 116.81 1537.29 116.331C1538.34 115.957 1539.27 115.302 1539.97 114.439C1540.5 113.708 1540.76 112.814 1540.69 111.917C1540.66 111.364 1540.51 110.824 1540.23 110.342C1539.96 109.86 1539.57 109.45 1539.1 109.147C1537.95 108.4 1536.71 107.799 1535.4 107.36C1533.92 106.833 1532.29 106.293 1530.51 105.742C1528.84 105.231 1527.22 104.568 1525.68 103.761C1524.29 103.037 1523.03 102.094 1521.95 100.97C1520.95 99.9405 1520.21 98.6922 1519.78 97.3259C1519.36 96.016 1519.1 94.6609 1519 93.2891C1518.95 91.6143 1519.18 89.9424 1519.69 88.3427C1520.34 86.3048 1521.54 84.4816 1523.17 83.0704C1524.91 81.4594 1527.39 80.4281 1530.6 79.9595C1533.2 79.5653 1535.85 79.5139 1538.47 79.8068C1538.66 83.028 1539.55 86.1698 1541.08 89.0176C1540.11 88.6678 1539.12 88.3822 1538.11 88.1628C1536.51 87.7518 1534.86 87.6308 1533.22 87.8056C1532.3 87.9058 1531.41 88.1603 1530.58 88.5581C1530.15 88.7944 1529.76 89.1193 1529.46 89.5117C1529.21 89.8585 1529 90.2358 1528.85 90.6345C1528.69 91.0751 1528.58 91.5327 1528.53 91.9978C1528.47 92.578 1528.49 93.1639 1528.59 93.7378C1528.7 94.2544 1528.93 94.7407 1529.25 95.1629C1529.57 95.5851 1529.97 95.933 1530.45 96.1824C1531.58 96.884 1532.81 97.3999 1534.11 97.7103C1535.47 98.0549 1537.23 98.5533 1539.38 99.2055C1541.33 99.7478 1543.2 100.519 1544.95 101.504C1546.53 102.453 1547.84 103.778 1548.77 105.357C1549.78 107.015 1550.38 108.883 1550.54 110.813Z" fill="#283238"/>
</g>
<g clip-path="url(#clip7_185_2330)">
<path fill-rule="evenodd" clip-rule="evenodd" d="M1846.93 54.5886C1847.45 55.023 1847.88 55.559 1848.19 56.1633C1848.49 56.7676 1848.66 57.4274 1848.7 58.1018L1848.71 58.2319C1848.75 58.8884 1848.66 59.5465 1848.44 60.1683C1848.22 60.7901 1847.88 61.3634 1847.44 61.8551C1847 62.3722 1846.46 62.7948 1845.85 63.0965C1845.24 63.3982 1844.57 63.5728 1843.89 63.6094C1842.53 63.7121 1841.19 63.2816 1840.15 62.411C1839.11 61.5404 1838.46 60.2997 1838.34 58.9571L1838.33 58.827C1838.27 58.1541 1838.35 57.4764 1838.57 56.8357C1838.79 56.1949 1839.13 55.6049 1839.59 55.102C1840.04 54.5852 1840.58 54.1631 1841.2 53.8613C1841.82 53.5594 1842.49 53.384 1843.17 53.3457C1843.85 53.2871 1844.54 53.3672 1845.18 53.5809C1845.83 53.7947 1846.43 54.1376 1846.93 54.5886Z" fill="#EB5C60"/>
<path fill-rule="evenodd" clip-rule="evenodd" d="M2035.27 81.2248L2035.85 89.5657L2010.34 91.3498L2007.24 47.0155L2017.61 46.2903L2020.13 82.2836L2035.27 81.2248ZM1982.81 48.7237L2003.85 91.8033L1994 92.4926L1989.82 83.2381L1971.48 84.5207L1968.6 94.2687L1958.97 94.942L1973.76 49.357L1982.81 48.7237ZM1973.79 76.602L1986.42 75.719L1978.95 59.1939L1973.79 76.602ZM1939.21 51.7724L1949.47 51.0552L1952.57 95.3895L1944.06 95.9848L1919.86 70.6562L1921.74 97.5452L1911.46 98.2644L1908.36 53.9301L1916.93 53.3308L1941.09 78.6614L1939.21 51.7724ZM1882.23 63.7695C1880.19 63.8851 1878.19 64.3717 1876.33 65.2049C1874.64 65.9687 1873.14 67.0706 1871.9 68.4408C1870.68 69.7987 1869.76 71.4042 1869.22 73.1462C1868.63 75.0358 1868.42 77.0184 1868.59 78.9861C1868.7 80.9495 1869.18 82.8741 1870.02 84.6539C1870.82 86.3034 1871.95 87.7722 1873.34 88.9681C1874.73 90.1637 1876.36 91.0566 1878.12 91.5889C1880.06 92.1584 1882.09 92.3634 1884.1 92.1933C1886.13 92.0532 1888.13 91.5776 1890 90.7861C1890.7 90.4867 1891.38 90.1355 1892.03 89.7355L1891.12 76.7293L1900.57 76.068L1901.83 94.0222C1899.4 96.0724 1896.63 97.6892 1893.64 98.8002C1890.59 99.9821 1887.38 100.705 1884.11 100.944C1880.8 101.21 1877.46 100.865 1874.28 99.9265C1871.31 99.0723 1868.55 97.6431 1866.15 95.7219C1863.83 93.8018 1861.91 91.4438 1860.52 88.7847C1859.09 85.96 1858.26 82.8762 1858.08 79.7214C1857.98 78.3966 1857.99 77.0662 1858.1 75.7422C1859.02 74.9638 1859.88 74.1194 1860.67 73.2157C1863.82 69.7173 1865.73 65.2974 1866.1 60.6295C1867.7 59.3404 1869.46 58.2623 1871.34 57.4225C1874.4 56.059 1877.69 55.2607 1881.05 55.067C1884.72 54.7993 1888.41 55.206 1891.93 56.2667C1892.95 56.5609 1893.95 56.9197 1894.93 57.341C1895.27 57.4878 1895.89 57.7965 1896.8 58.2612L1897.46 67.7332C1895.98 66.7997 1894.42 65.9777 1892.81 65.274C1891.76 64.8629 1890.67 64.5399 1889.56 64.3082C1888.37 64.0637 1887.17 63.9008 1885.97 63.8208C1884.72 63.7115 1883.47 63.6944 1882.23 63.7695ZM1839.86 80.683C1841.62 80.945 1843.41 81.0107 1845.18 80.8789C1846.89 80.7647 1848.59 80.471 1850.23 80.003L1851.8 102.436L1841.43 103.161L1839.86 80.683ZM1833.03 91.0592C1833.16 93.3023 1832.7 95.5405 1831.71 97.5618C1830.55 100.044 1828.61 102.09 1826.18 103.392C1823.37 104.962 1820.19 105.773 1816.97 105.741C1813.44 105.772 1810.55 105.373 1808.3 104.546C1806.66 103.994 1805.09 103.264 1803.62 102.367L1802.87 91.6228C1804.97 93.3435 1807.33 94.7314 1809.86 95.737C1812.37 96.7282 1814.34 97.2345 1815.76 97.2561C1817.13 97.2866 1818.5 97.0562 1819.78 96.5773C1820.83 96.2029 1821.76 95.5481 1822.46 94.6851C1822.99 93.9539 1823.25 93.0605 1823.18 92.1633C1823.15 91.6098 1823 91.0697 1822.72 90.5879C1822.45 90.1061 1822.06 89.6964 1821.59 89.3929C1820.44 88.6458 1819.2 88.0454 1817.89 87.6061C1816.41 87.0787 1814.78 86.5395 1813 85.9876C1811.33 85.4766 1809.71 84.8137 1808.17 84.0073C1806.78 83.2829 1805.52 82.3404 1804.44 81.2164C1803.44 80.1866 1802.7 78.9383 1802.27 77.572C1801.85 76.2621 1801.59 74.907 1801.49 73.5352C1801.44 71.8604 1801.67 70.1885 1802.18 68.5888C1802.83 66.5509 1804.03 64.7276 1805.66 63.3165C1807.4 61.7054 1809.88 60.6741 1813.09 60.2056C1815.69 59.8114 1818.34 59.76 1820.96 60.0529C1821.15 63.274 1822.04 66.4159 1823.57 69.2637C1822.6 68.9139 1821.61 68.6283 1820.6 68.4088C1819 67.9979 1817.35 67.8769 1815.71 68.0517C1814.79 68.1519 1813.9 68.4064 1813.07 68.8042C1812.64 69.0405 1812.25 69.3654 1811.95 69.7578C1811.7 70.1046 1811.49 70.4819 1811.34 70.8806C1811.18 71.3212 1811.07 71.7788 1811.02 72.2439C1810.96 72.8241 1810.98 73.4099 1811.08 73.9839C1811.19 74.5005 1811.42 74.9868 1811.74 75.409C1812.06 75.8312 1812.47 76.1791 1812.94 76.4285C1814.07 77.13 1815.3 77.646 1816.6 77.9564C1817.96 78.301 1819.72 78.7994 1821.87 79.4516C1823.82 79.9939 1825.69 80.7656 1827.44 81.75C1829.02 82.6993 1830.33 84.0239 1831.26 85.6032C1832.27 87.2613 1832.87 89.1286 1833.03 91.0592Z" fill="#283238"/>
</g>
<rect x="0.463904" y="-0.53366" width="2526.99" height="69" transform="matrix(0.997564 -0.0697565 -0.0697565 -0.997564 -187.862 255.031)" stroke="#3E3737"/>
<rect width="1995.02" height="70" transform="matrix(0.999391 0.0348995 0.0348995 -0.999391 -37.9512 140.11)" fill="black"/>
<g clip-path="url(#clip8_185_2330)">
<path fill-rule="evenodd" clip-rule="evenodd" d="M82.5787 124.969L82.2869 133.326L56.6594 132.431L58.2104 88.0153L68.6279 88.379L67.3687 124.438L82.5787 124.969ZM33.6735 87.1584L50.1449 132.203L40.244 131.857L37.0465 122.217L18.6223 121.573L14.7313 130.967L5.06004 130.629L24.5761 86.8407L33.6735 87.1584ZM21.7621 113.94L34.4467 114.383L28.7266 97.1672L21.7621 113.94ZM-10.12 85.6291L0.182665 85.9889L-1.36836 130.404L-9.92043 130.106L-31.393 102.385L-32.3337 129.323L-42.6651 128.962L-41.1141 84.5468L-32.5046 84.8474L-11.0607 112.567L-10.12 85.6291ZM-68.1971 91.5987C-70.242 91.5005 -72.2874 91.7752 -74.2307 92.409C-75.991 92.9923 -77.6089 93.9306 -78.9817 95.1643C-80.3492 96.3861 -81.431 97.8869 -82.1522 99.5629C-82.9328 101.381 -83.352 103.33 -83.3872 105.305C-83.4903 107.269 -83.2077 109.234 -82.5548 111.092C-81.9372 112.815 -80.9652 114.394 -79.6998 115.729C-78.4403 117.063 -76.911 118.122 -75.211 118.835C-73.3372 119.605 -71.3344 120.021 -69.306 120.063C-67.2648 120.136 -65.2258 119.872 -63.2735 119.281C-62.5444 119.056 -61.8335 118.777 -61.1469 118.447L-60.6918 105.417L-51.1927 105.749L-51.8209 123.736C-54.4598 125.521 -57.3934 126.839 -60.4906 127.631C-63.6553 128.487 -66.9327 128.87 -70.2134 128.766C-73.5456 128.684 -76.834 127.992 -79.9114 126.726C-82.7795 125.566 -85.3861 123.855 -87.5798 121.693C-89.6934 119.541 -91.3528 116.996 -92.4616 114.206C-93.5895 111.247 -94.0953 108.093 -93.9481 104.937C-93.9066 103.609 -93.7605 102.286 -93.5112 100.981C-92.5145 100.303 -91.5702 99.5533 -90.6859 98.7374C-87.1791 95.5877 -84.8127 91.3917 -83.9474 86.7889C-82.2212 85.6738 -80.3549 84.7856 -78.3958 84.1467C-75.1956 83.1115 -71.8302 82.662 -68.4652 82.8202C-64.7767 82.938 -61.1414 83.7284 -57.743 85.1516C-56.7532 85.5511 -55.7904 86.0129 -54.8605 86.5341C-54.5392 86.7155 -53.9488 87.0878 -53.0891 87.6453L-53.4205 97.1346C-54.8044 96.0508 -56.2685 95.0706 -57.8004 94.2023C-58.81 93.6831 -59.8616 93.2479 -60.9444 92.9014C-62.1005 92.5342 -63.2809 92.2466 -64.4772 92.0406C-65.7044 91.802 -66.9478 91.6543 -68.1971 91.5987ZM-112.218 103.987C-110.489 104.432 -108.714 104.684 -106.929 104.739C-105.212 104.804 -103.494 104.689 -101.802 104.396L-102.587 126.87L-113.004 126.506L-112.218 103.987ZM-120.11 113.592C-120.221 115.836 -120.91 118.014 -122.113 119.92C-123.526 122.268 -125.673 124.1 -128.231 125.14C-131.2 126.408 -134.455 126.881 -137.669 126.512C-141.186 126.174 -144.025 125.476 -146.187 124.417C-147.761 123.697 -149.249 122.806 -150.623 121.761L-150.247 110.997C-148.333 112.928 -146.127 114.555 -143.709 115.819C-141.308 117.068 -139.398 117.777 -137.979 117.948C-136.616 118.122 -135.232 118.035 -133.902 117.693C-132.813 117.431 -131.819 116.877 -131.03 116.092C-130.424 115.42 -130.078 114.558 -130.054 113.659C-130.018 113.106 -130.116 112.553 -130.34 112.045C-130.565 111.537 -130.908 111.089 -131.343 110.738C-132.415 109.874 -133.592 109.147 -134.848 108.574C-136.266 107.894 -137.839 107.187 -139.555 106.452C-141.167 105.769 -142.711 104.941 -144.169 103.977C-145.476 103.111 -146.632 102.042 -147.593 100.811C-148.483 99.6826 -149.092 98.3635 -149.372 96.9603C-149.655 95.6135 -149.775 94.2384 -149.729 92.8639C-149.604 91.1929 -149.197 89.5545 -148.525 88.0165C-147.661 86.0581 -146.271 84.3707 -144.504 83.1371C-142.593 81.7177 -140.015 80.9513 -136.769 80.8207C-134.128 80.7014 -131.483 80.9272 -128.902 81.4925C-129.051 84.7158 -128.493 87.9334 -127.266 90.9257C-128.197 90.4763 -129.157 90.0884 -130.139 89.7647C-131.686 89.1892 -133.324 88.8956 -134.976 88.8981C-135.899 88.9019 -136.815 89.0618 -137.682 89.3708C-138.143 89.56 -138.559 89.8432 -138.901 90.2017C-139.189 90.5202 -139.435 90.8738 -139.633 91.2539C-139.838 91.6755 -139.993 92.1193 -140.093 92.5764C-140.215 93.147 -140.255 93.7319 -140.211 94.3137C-140.155 94.839 -139.983 95.346 -139.708 95.7993C-139.433 96.2527 -139.062 96.6415 -138.619 96.9387C-137.565 97.7547 -136.384 98.3974 -135.123 98.8419C-133.806 99.3265 -132.106 100.006 -130.022 100.88C-128.141 101.623 -126.357 102.586 -124.709 103.749C-123.237 104.858 -122.069 106.312 -121.311 107.98C-120.477 109.735 -120.067 111.655 -120.11 113.592Z" fill="white"/>
</g>
<g clip-path="url(#clip9_185_2330)">
<path fill-rule="evenodd" clip-rule="evenodd" d="M181.241 88.6815C181.716 89.1682 182.085 89.7458 182.325 90.3786C182.564 91.0114 182.67 91.6859 182.636 92.3604L182.631 92.4907C182.602 93.1478 182.442 93.7928 182.16 94.3884C181.878 94.9841 181.479 95.5186 180.987 95.9614C180.494 96.4297 179.909 96.7932 179.269 97.0293C178.628 97.2655 177.945 97.3693 177.261 97.3344C175.896 97.2944 174.601 96.7257 173.657 95.7512C172.712 94.7768 172.194 93.4748 172.214 92.1269L172.218 91.9966C172.23 91.3213 172.383 90.6559 172.666 90.0413C172.95 89.4268 173.358 88.8764 173.866 88.424C174.365 87.9567 174.955 87.5942 175.6 87.3584C176.246 87.1226 176.933 87.0184 177.62 87.052C178.304 87.0648 178.979 87.216 179.602 87.4963C180.224 87.7766 180.782 88.18 181.241 88.6815Z" fill="#EB5C60"/>
<path fill-rule="evenodd" clip-rule="evenodd" d="M366.251 134.876L365.959 143.232L340.331 142.337L341.882 97.9215L352.3 98.2853L351.041 134.345L366.251 134.876ZM317.345 97.0647L333.817 142.109L323.916 141.764L320.718 132.123L302.294 131.479L298.403 140.873L288.732 140.535L308.248 96.747L317.345 97.0647ZM305.434 123.847L318.119 124.29L312.399 107.073L305.434 123.847ZM273.552 95.5354L283.855 95.8951L282.304 140.311L273.751 140.012L252.279 112.291L251.338 139.229L241.007 138.868L242.558 94.453L251.167 94.7537L272.611 122.474L273.552 95.5354ZM215.475 101.505C213.43 101.407 211.385 101.681 209.441 102.315C207.681 102.899 206.063 103.837 204.69 105.071C203.323 106.292 202.241 107.793 201.52 109.469C200.739 111.287 200.32 113.237 200.285 115.212C200.182 117.175 200.464 119.14 201.117 120.998C201.735 122.721 202.707 124.3 203.972 125.635C205.232 126.97 206.761 128.028 208.461 128.742C210.335 129.511 212.338 129.927 214.366 129.969C216.407 130.042 218.446 129.778 220.398 129.187C221.128 128.962 221.838 128.684 222.525 128.354L222.98 115.324L232.479 115.655L231.851 133.642C229.212 135.427 226.278 136.745 223.181 137.537C220.017 138.393 216.739 138.776 213.459 138.672C210.126 138.591 206.838 137.899 203.76 136.632C200.892 135.472 198.286 133.761 196.092 131.6C193.978 129.447 192.319 126.902 191.21 124.112C190.082 121.153 189.577 118 189.724 114.843C189.765 113.515 189.911 112.193 190.161 110.888C191.157 110.21 192.102 109.46 192.986 108.644C196.493 105.494 198.859 101.298 199.725 96.6952C201.451 95.5801 203.317 94.6919 205.276 94.053C208.476 93.0178 211.842 92.5682 215.207 92.7265C218.895 92.8443 222.53 93.6347 225.929 95.0578C226.919 95.4574 227.881 95.9192 228.811 96.4404C229.133 96.6217 229.723 96.994 230.583 97.5516L230.251 107.041C228.867 105.957 227.403 104.977 225.871 104.109C224.862 103.589 223.81 103.154 222.727 102.808C221.571 102.44 220.391 102.153 219.195 101.947C217.967 101.708 216.724 101.561 215.475 101.505ZM171.454 113.893C173.183 114.338 174.957 114.59 176.743 114.645C178.46 114.71 180.178 114.595 181.87 114.302L181.085 136.776L170.668 136.412L171.454 113.893ZM163.562 123.498C163.451 125.742 162.762 127.92 161.559 129.826C160.146 132.174 157.999 134.006 155.441 135.047C152.472 136.314 149.217 136.787 146.003 136.419C142.486 136.08 139.647 135.382 137.485 134.323C135.911 133.603 134.423 132.712 133.049 131.667L133.425 120.903C135.339 122.834 137.545 124.461 139.963 125.726C142.363 126.974 144.273 127.684 145.693 127.854C147.056 128.028 148.44 127.942 149.77 127.6C150.859 127.337 151.853 126.783 152.642 125.998C153.248 125.327 153.594 124.465 153.618 123.565C153.654 123.012 153.556 122.459 153.331 121.951C153.107 121.443 152.764 120.995 152.329 120.644C151.257 119.78 150.08 119.053 148.824 118.48C147.406 117.801 145.833 117.093 144.117 116.359C142.505 115.676 140.961 114.847 139.503 113.883C138.196 113.018 137.04 111.949 136.079 110.718C135.189 109.589 134.58 108.27 134.3 106.867C134.017 105.52 133.897 104.145 133.943 102.77C134.068 101.099 134.475 99.4608 135.147 97.9228C136.011 95.9643 137.401 94.2769 139.168 93.0433C141.079 91.624 143.657 90.8575 146.903 90.727C149.543 90.6076 152.189 90.8335 154.77 91.3987C154.621 94.6221 155.179 97.8397 156.406 100.832C155.475 100.383 154.515 99.9946 153.533 99.6709C151.986 99.0955 150.347 98.8018 148.695 98.8043C147.773 98.8082 146.857 98.9681 145.989 99.277C145.529 99.4663 145.113 99.7494 144.771 100.108C144.482 100.426 144.236 100.78 144.039 101.16C143.834 101.582 143.679 102.026 143.579 102.483C143.457 103.053 143.417 103.638 143.461 104.22C143.517 104.745 143.689 105.252 143.964 105.706C144.239 106.159 144.61 106.548 145.053 106.845C146.107 107.661 147.288 108.304 148.549 108.748C149.866 109.233 151.566 109.912 153.65 110.787C155.531 111.529 157.315 112.492 158.963 113.655C160.435 114.764 161.603 116.219 162.361 117.886C163.194 119.641 163.605 121.562 163.562 123.498Z" fill="white"/>
</g>
<g clip-path="url(#clip10_185_2330)">
<path fill-rule="evenodd" clip-rule="evenodd" d="M464.915 98.5875C465.39 99.0742 465.759 99.6518 465.998 100.285C466.238 100.917 466.344 101.592 466.309 102.266L466.305 102.397C466.276 103.054 466.116 103.699 465.834 104.294C465.552 104.89 465.153 105.425 464.661 105.867C464.168 106.336 463.583 106.699 462.942 106.935C462.302 107.171 461.618 107.275 460.935 107.24C459.57 107.2 458.275 106.632 457.33 105.657C456.386 104.683 455.867 103.381 455.887 102.033L455.892 101.903C455.904 101.227 456.057 100.562 456.34 99.9473C456.624 99.3328 457.032 98.7824 457.54 98.33C458.039 97.8627 458.629 97.5002 459.274 97.2644C459.919 97.0286 460.607 96.9244 461.294 96.958C461.978 96.9708 462.653 97.122 463.275 97.4023C463.898 97.6826 464.456 98.086 464.915 98.5875Z" fill="#EB5C60"/>
<path fill-rule="evenodd" clip-rule="evenodd" d="M649.924 144.782L649.633 153.138L624.005 152.243L625.556 107.828L635.974 108.191L634.714 144.251L649.924 144.782ZM601.019 106.971L617.491 152.015L607.59 151.67L604.392 142.029L585.968 141.385L582.077 150.779L572.406 150.441L591.922 106.653L601.019 106.971ZM589.108 133.753L601.792 134.196L596.072 116.979L589.108 133.753ZM557.226 105.441L567.528 105.801L565.977 150.217L557.425 149.918L535.953 122.197L535.012 149.135L524.681 148.774L526.232 104.359L534.841 104.66L556.285 132.38L557.226 105.441ZM499.149 111.411C497.104 111.313 495.058 111.587 493.115 112.221C491.355 112.805 489.737 113.743 488.364 114.977C486.997 116.198 485.915 117.699 485.193 119.375C484.413 121.193 483.994 123.143 483.959 125.118C483.855 127.081 484.138 129.046 484.791 130.904C485.408 132.627 486.381 134.206 487.646 135.541C488.905 136.876 490.435 137.934 492.135 138.648C494.009 139.417 496.011 139.833 498.04 139.875C500.081 139.948 502.12 139.684 504.072 139.093C504.801 138.868 505.512 138.59 506.199 138.26L506.654 125.23L516.153 125.561L515.525 143.548C512.886 145.333 509.952 146.651 506.855 147.443C503.69 148.299 500.413 148.682 497.132 148.578C493.8 148.497 490.512 147.805 487.434 146.538C484.566 145.378 481.96 143.667 479.766 141.506C477.652 139.353 475.993 136.808 474.884 134.018C473.756 131.059 473.25 127.906 473.398 124.749C473.439 123.421 473.585 122.099 473.835 120.794C474.831 120.116 475.776 119.366 476.66 118.55C480.167 115.4 482.533 111.204 483.398 106.601C485.125 105.486 486.991 104.598 488.95 103.959C492.15 102.924 495.516 102.474 498.88 102.632C502.569 102.75 506.204 103.541 509.603 104.964C510.592 105.363 511.555 105.825 512.485 106.346C512.806 106.528 513.397 106.9 514.257 107.458L513.925 116.947C512.541 115.863 511.077 114.883 509.545 114.015C508.536 113.495 507.484 113.06 506.401 112.714C505.245 112.346 504.065 112.059 502.868 111.853C501.641 111.614 500.398 111.467 499.149 111.411ZM455.128 123.799C456.857 124.244 458.631 124.496 460.417 124.551C462.134 124.616 463.852 124.501 465.544 124.208L464.759 146.682L454.341 146.318L455.128 123.799ZM447.235 133.404C447.125 135.648 446.436 137.826 445.233 139.732C443.82 142.08 441.673 143.912 439.114 144.953C436.146 146.22 432.891 146.693 429.677 146.325C426.16 145.986 423.321 145.288 421.158 144.229C419.585 143.509 418.097 142.618 416.723 141.573L417.099 130.809C419.013 132.74 421.218 134.367 423.637 135.632C426.037 136.88 427.947 137.59 429.366 137.76C430.73 137.934 432.114 137.848 433.444 137.506C434.533 137.243 435.527 136.689 436.316 135.904C436.922 135.233 437.268 134.371 437.291 133.471C437.328 132.918 437.229 132.365 437.005 131.857C436.781 131.349 436.437 130.901 436.003 130.55C434.931 129.686 433.754 128.959 432.498 128.386C431.079 127.707 429.507 126.999 427.791 126.265C426.179 125.582 424.634 124.753 423.177 123.789C421.87 122.924 420.713 121.855 419.753 120.624C418.863 119.495 418.254 118.176 417.974 116.773C417.691 115.426 417.571 114.051 417.617 112.676C417.742 111.005 418.148 109.367 418.821 107.829C419.685 105.87 421.075 104.183 422.841 102.949C424.753 101.53 427.331 100.764 430.577 100.633C433.217 100.514 435.862 100.739 438.443 101.305C438.295 104.528 438.853 107.746 440.079 110.738C439.149 110.289 438.189 109.901 437.206 109.577C435.66 109.001 434.021 108.708 432.369 108.71C431.446 108.714 430.531 108.874 429.663 109.183C429.202 109.372 428.787 109.655 428.445 110.014C428.156 110.332 427.91 110.686 427.713 111.066C427.508 111.488 427.353 111.932 427.253 112.389C427.13 112.959 427.091 113.544 427.135 114.126C427.191 114.651 427.362 115.158 427.637 115.612C427.912 116.065 428.284 116.454 428.727 116.751C429.781 117.567 430.962 118.21 432.223 118.654C433.539 119.139 435.24 119.818 437.324 120.693C439.205 121.435 440.989 122.398 442.637 123.561C444.109 124.67 445.277 126.125 446.035 127.792C446.868 129.547 447.279 131.468 447.235 133.404Z" fill="white"/>
</g>
<g clip-path="url(#clip11_185_2330)">
<path fill-rule="evenodd" clip-rule="evenodd" d="M748.589 108.494C749.064 108.98 749.432 109.558 749.672 110.191C749.912 110.823 750.018 111.498 749.983 112.172L749.979 112.303C749.95 112.96 749.79 113.605 749.508 114.2C749.226 114.796 748.827 115.331 748.335 115.773C747.842 116.242 747.257 116.605 746.616 116.841C745.975 117.077 745.292 117.181 744.609 117.146C743.244 117.106 741.949 116.538 741.004 115.563C740.06 114.589 739.541 113.287 739.561 111.939L739.566 111.809C739.578 111.133 739.731 110.468 740.014 109.853C740.298 109.239 740.706 108.688 741.213 108.236C741.713 107.769 742.303 107.406 742.948 107.17C743.593 106.935 744.28 106.83 744.968 106.864C745.652 106.877 746.326 107.028 746.949 107.308C747.572 107.589 748.13 107.992 748.589 108.494Z" fill="#EB5C60"/>
<path fill-rule="evenodd" clip-rule="evenodd" d="M933.598 154.688L933.306 163.044L907.679 162.149L909.23 117.734L919.647 118.097L918.388 154.157L933.598 154.688ZM884.693 116.877L901.164 161.921L891.264 161.576L888.066 151.935L869.642 151.291L865.751 160.685L856.08 160.347L875.596 116.559L884.693 116.877ZM872.782 143.659L885.466 144.102L879.746 126.885L872.782 143.659ZM840.9 115.347L851.202 115.707L849.651 160.123L841.099 159.824L819.627 132.103L818.686 159.041L808.354 158.681L809.905 114.265L818.515 114.566L839.959 142.286L840.9 115.347ZM782.822 121.317C780.778 121.219 778.732 121.493 776.789 122.127C775.029 122.711 773.411 123.649 772.038 124.883C770.67 126.104 769.589 127.605 768.867 129.281C768.087 131.099 767.667 133.049 767.632 135.024C767.529 136.987 767.812 138.952 768.465 140.81C769.082 142.533 770.054 144.112 771.32 145.447C772.579 146.782 774.109 147.84 775.809 148.554C777.682 149.323 779.685 149.739 781.713 149.781C783.755 149.854 785.794 149.59 787.746 148.999C788.475 148.774 789.186 148.496 789.873 148.166L790.328 135.136L799.827 135.467L799.199 153.454C796.56 155.239 793.626 156.557 790.529 157.349C787.364 158.205 784.087 158.588 780.806 158.484C777.474 158.403 774.185 157.711 771.108 156.444C768.24 155.284 765.633 153.573 763.44 151.412C761.326 149.259 759.667 146.714 758.558 143.924C757.43 140.965 756.924 137.812 757.071 134.655C757.113 133.327 757.259 132.005 757.508 130.7C758.505 130.022 759.449 129.272 760.334 128.456C763.84 125.306 766.207 121.11 767.072 116.507C768.798 115.392 770.665 114.504 772.624 113.865C775.824 112.83 779.189 112.38 782.554 112.538C786.243 112.656 789.878 113.447 793.277 114.87C794.266 115.269 795.229 115.731 796.159 116.252C796.48 116.434 797.071 116.806 797.93 117.364L797.599 126.853C796.215 125.769 794.751 124.789 793.219 123.921C792.21 123.401 791.158 122.966 790.075 122.62C788.919 122.252 787.739 121.965 786.542 121.759C785.315 121.52 784.072 121.373 782.822 121.317ZM738.802 133.705C740.531 134.15 742.305 134.402 744.091 134.457C745.807 134.522 747.526 134.407 749.217 134.114L748.433 156.588L738.015 156.224L738.802 133.705ZM730.909 143.31C730.799 145.554 730.11 147.732 728.907 149.638C727.494 151.986 725.347 153.818 722.788 154.859C719.82 156.126 716.565 156.599 713.35 156.231C709.834 155.892 706.994 155.194 704.832 154.135C703.258 153.415 701.771 152.524 700.397 151.479L700.773 140.715C702.687 142.646 704.892 144.273 707.311 145.538C709.711 146.786 711.621 147.496 713.04 147.666C714.404 147.84 715.788 147.754 717.118 147.412C718.207 147.149 719.2 146.595 719.99 145.81C720.596 145.139 720.942 144.277 720.965 143.377C721.001 142.824 720.903 142.271 720.679 141.763C720.455 141.255 720.111 140.807 719.677 140.456C718.605 139.592 717.427 138.865 716.172 138.292C714.753 137.613 713.18 136.905 711.465 136.171C709.853 135.488 708.308 134.659 706.851 133.695C705.543 132.83 704.387 131.761 703.427 130.53C702.537 129.401 701.927 128.082 701.648 126.679C701.364 125.332 701.245 123.957 701.291 122.582C701.415 120.911 701.822 119.273 702.495 117.735C703.358 115.776 704.749 114.089 706.515 112.855C708.427 111.436 711.005 110.67 714.251 110.539C716.891 110.42 719.536 110.645 722.117 111.211C721.969 114.434 722.527 117.652 723.753 120.644C722.823 120.195 721.863 119.807 720.88 119.483C719.334 118.907 717.695 118.614 716.043 118.616C715.12 118.62 714.205 118.78 713.337 119.089C712.876 119.278 712.461 119.561 712.119 119.92C711.83 120.238 711.584 120.592 711.386 120.972C711.181 121.394 711.027 121.838 710.927 122.295C710.804 122.865 710.764 123.45 710.808 124.032C710.865 124.557 711.036 125.064 711.311 125.518C711.586 125.971 711.958 126.36 712.401 126.657C713.455 127.473 714.635 128.116 715.897 128.56C717.213 129.045 718.914 129.724 720.998 130.599C722.879 131.341 724.663 132.304 726.311 133.467C727.783 134.576 728.951 136.031 729.709 137.698C730.542 139.453 730.953 141.374 730.909 143.31Z" fill="white"/>
</g>
<g clip-path="url(#clip12_185_2330)">
<path fill-rule="evenodd" clip-rule="evenodd" d="M1032.26 118.4C1032.74 118.886 1033.1 119.464 1033.34 120.097C1033.58 120.73 1033.69 121.404 1033.66 122.079L1033.65 122.209C1033.62 122.866 1033.46 123.511 1033.18 124.107C1032.9 124.702 1032.5 125.237 1032.01 125.68C1031.51 126.148 1030.93 126.511 1030.29 126.748C1029.65 126.984 1028.96 127.088 1028.28 127.053C1026.92 127.013 1025.62 126.444 1024.68 125.47C1023.73 124.495 1023.21 123.193 1023.23 121.845L1023.24 121.715C1023.25 121.04 1023.4 120.374 1023.69 119.76C1023.97 119.145 1024.38 118.595 1024.89 118.142C1025.38 117.675 1025.97 117.312 1026.62 117.077C1027.27 116.841 1027.95 116.737 1028.64 116.77C1029.32 116.783 1030 116.934 1030.62 117.215C1031.24 117.495 1031.8 117.898 1032.26 118.4Z" fill="#EB5C60"/>
<path fill-rule="evenodd" clip-rule="evenodd" d="M1217.27 164.594L1216.98 172.95L1191.35 172.055L1192.9 127.64L1203.32 128.004L1202.06 164.063L1217.27 164.594ZM1168.36 126.783L1184.84 171.828L1174.94 171.482L1171.74 161.841L1153.31 161.198L1149.42 170.591L1139.75 170.253L1159.27 126.465L1168.36 126.783ZM1156.45 153.565L1169.14 154.008L1163.42 136.792L1156.45 153.565ZM1124.57 125.254L1134.87 125.613L1133.32 170.029L1124.77 169.73L1103.3 142.009L1102.36 168.948L1092.03 168.587L1093.58 124.171L1102.19 124.472L1123.63 152.192L1124.57 125.254ZM1066.49 131.223C1064.45 131.125 1062.4 131.4 1060.46 132.034C1058.7 132.617 1057.08 133.555 1055.71 134.789C1054.34 136.011 1053.26 137.511 1052.54 139.187C1051.76 141.005 1051.34 142.955 1051.3 144.93C1051.2 146.893 1051.48 148.858 1052.14 150.716C1052.75 152.44 1053.73 154.018 1054.99 155.354C1056.25 156.688 1057.78 157.746 1059.48 158.46C1061.35 159.229 1063.36 159.645 1065.39 159.687C1067.43 159.76 1069.47 159.496 1071.42 158.905C1072.15 158.681 1072.86 158.402 1073.54 158.072L1074 145.042L1083.5 145.373L1082.87 163.361C1080.23 165.145 1077.3 166.463 1074.2 167.255C1071.04 168.112 1067.76 168.494 1064.48 168.39C1061.15 168.309 1057.86 167.617 1054.78 166.35C1051.91 165.19 1049.31 163.48 1047.11 161.318C1045 159.165 1043.34 156.62 1042.23 153.83C1041.1 150.872 1040.6 147.718 1040.74 144.561C1040.78 143.233 1040.93 141.911 1041.18 140.606C1042.18 139.928 1043.12 139.178 1044.01 138.362C1047.51 135.212 1049.88 131.016 1050.74 126.413C1052.47 125.298 1054.34 124.41 1056.3 123.771C1059.5 122.736 1062.86 122.286 1066.23 122.445C1069.91 122.563 1073.55 123.353 1076.95 124.776C1077.94 125.176 1078.9 125.637 1079.83 126.159C1080.15 126.34 1080.74 126.712 1081.6 127.27L1081.27 136.759C1079.89 135.675 1078.42 134.695 1076.89 133.827C1075.88 133.308 1074.83 132.872 1073.75 132.526C1072.59 132.159 1071.41 131.871 1070.21 131.665C1068.99 131.426 1067.74 131.279 1066.49 131.223ZM1022.47 143.611C1024.2 144.056 1025.98 144.308 1027.76 144.363C1029.48 144.428 1031.2 144.313 1032.89 144.02L1032.1 166.494L1021.69 166.13L1022.47 143.611ZM1014.58 153.216C1014.47 155.46 1013.78 157.638 1012.58 159.545C1011.17 161.893 1009.02 163.724 1006.46 164.765C1003.49 166.032 1000.24 166.506 997.022 166.137C993.506 165.799 990.666 165.1 988.504 164.041C986.93 163.322 985.442 162.431 984.069 161.385L984.444 150.621C986.359 152.552 988.564 154.179 990.982 155.444C993.383 156.692 995.293 157.402 996.712 157.573C998.076 157.746 999.46 157.66 1000.79 157.318C1001.88 157.056 1002.87 156.501 1003.66 155.717C1004.27 155.045 1004.61 154.183 1004.64 153.283C1004.67 152.73 1004.58 152.177 1004.35 151.669C1004.13 151.161 1003.78 150.713 1003.35 150.362C1002.28 149.499 1001.1 148.772 999.844 148.198C998.425 147.519 996.852 146.812 995.137 146.077C993.525 145.394 991.98 144.565 990.522 143.601C989.215 142.736 988.059 141.667 987.099 140.436C986.209 139.307 985.599 137.988 985.32 136.585C985.036 135.238 984.916 133.863 984.963 132.488C985.087 130.817 985.494 129.179 986.166 127.641C987.03 125.683 988.421 123.995 990.187 122.762C992.099 121.342 994.677 120.576 997.922 120.445C1000.56 120.326 1003.21 120.552 1005.79 121.117C1005.64 124.34 1006.2 127.558 1007.43 130.55C1006.49 130.101 1005.53 129.713 1004.55 129.389C1003.01 128.814 1001.37 128.52 999.715 128.523C998.792 128.526 997.877 128.686 997.009 128.995C996.548 129.185 996.133 129.468 995.79 129.826C995.502 130.145 995.256 130.498 995.058 130.878C994.853 131.3 994.699 131.744 994.598 132.201C994.476 132.772 994.436 133.356 994.48 133.938C994.537 134.463 994.708 134.97 994.983 135.424C995.258 135.877 995.63 136.266 996.072 136.563C997.127 137.379 998.307 138.022 999.569 138.466C1000.89 138.951 1002.59 139.631 1004.67 140.505C1006.55 141.248 1008.33 142.211 1009.98 143.373C1011.45 144.482 1012.62 145.937 1013.38 147.604C1014.21 149.359 1014.62 151.28 1014.58 153.216Z" fill="white"/>
</g>
<g clip-path="url(#clip13_185_2330)">
<path fill-rule="evenodd" clip-rule="evenodd" d="M1315.93 128.306C1316.41 128.793 1316.78 129.37 1317.02 130.003C1317.26 130.636 1317.36 131.31 1317.33 131.985L1317.32 132.115C1317.3 132.772 1317.14 133.417 1316.85 134.013C1316.57 134.608 1316.17 135.143 1315.68 135.586C1315.19 136.054 1314.6 136.417 1313.96 136.654C1313.32 136.89 1312.64 136.994 1311.95 136.959C1310.59 136.919 1309.29 136.35 1308.35 135.376C1307.41 134.401 1306.89 133.099 1306.91 131.751L1306.91 131.621C1306.92 130.946 1307.08 130.28 1307.36 129.666C1307.64 129.051 1308.05 128.501 1308.56 128.048C1309.06 127.581 1309.65 127.218 1310.29 126.983C1310.94 126.747 1311.63 126.643 1312.31 126.676C1313 126.689 1313.67 126.84 1314.29 127.121C1314.92 127.401 1315.48 127.804 1315.93 128.306Z" fill="#EB5C60"/>
<path fill-rule="evenodd" clip-rule="evenodd" d="M1500.94 174.5L1500.65 182.856L1475.02 181.961L1476.58 137.546L1486.99 137.91L1485.73 173.969L1500.94 174.5ZM1452.04 136.689L1468.51 181.734L1458.61 181.388L1455.41 171.747L1436.99 171.104L1433.1 180.497L1423.43 180.159L1442.94 136.371L1452.04 136.689ZM1440.13 163.471L1452.81 163.914L1447.09 146.698L1440.13 163.471ZM1408.25 135.16L1418.55 135.519L1417 179.935L1408.44 179.636L1386.97 151.915L1386.03 178.854L1375.7 178.493L1377.25 134.077L1385.86 134.378L1407.3 162.098L1408.25 135.16ZM1350.17 141.129C1348.12 141.031 1346.08 141.306 1344.13 141.94C1342.37 142.523 1340.76 143.461 1339.38 144.695C1338.02 145.917 1336.93 147.417 1336.21 149.093C1335.43 150.912 1335.01 152.861 1334.98 154.836C1334.87 156.799 1335.16 158.764 1335.81 160.622C1336.43 162.346 1337.4 163.924 1338.67 165.26C1339.92 166.594 1341.45 167.652 1343.15 168.366C1345.03 169.135 1347.03 169.551 1349.06 169.593C1351.1 169.666 1353.14 169.402 1355.09 168.811C1355.82 168.587 1356.53 168.308 1357.22 167.978L1357.67 154.948L1367.17 155.279L1366.54 173.267C1363.91 175.051 1360.97 176.369 1357.87 177.161C1354.71 178.018 1351.43 178.4 1348.15 178.296C1344.82 178.215 1341.53 177.523 1338.45 176.256C1335.59 175.096 1332.98 173.386 1330.79 171.224C1328.67 169.071 1327.01 166.526 1325.9 163.736C1324.78 160.778 1324.27 157.624 1324.42 154.467C1324.46 153.139 1324.6 151.817 1324.85 150.512C1325.85 149.834 1326.8 149.084 1327.68 148.268C1331.19 145.118 1333.55 140.922 1334.42 136.319C1336.14 135.204 1338.01 134.316 1339.97 133.677C1343.17 132.642 1346.54 132.192 1349.9 132.351C1353.59 132.469 1357.22 133.259 1360.62 134.682C1361.61 135.082 1362.57 135.543 1363.5 136.065C1363.83 136.246 1364.42 136.618 1365.28 137.176L1364.94 146.665C1363.56 145.581 1362.1 144.601 1360.56 143.733C1359.56 143.214 1358.5 142.778 1357.42 142.432C1356.26 142.065 1355.08 141.777 1353.89 141.571C1352.66 141.332 1351.42 141.185 1350.17 141.129ZM1306.15 153.517C1307.88 153.962 1309.65 154.214 1311.44 154.269C1313.15 154.334 1314.87 154.219 1316.56 153.926L1315.78 176.4L1305.36 176.036L1306.15 153.517ZM1298.26 163.122C1298.14 165.366 1297.46 167.544 1296.25 169.451C1294.84 171.799 1292.69 173.63 1290.13 174.671C1287.17 175.938 1283.91 176.412 1280.7 176.043C1277.18 175.705 1274.34 175.006 1272.18 173.947C1270.6 173.228 1269.12 172.337 1267.74 171.291L1268.12 160.527C1270.03 162.458 1272.24 164.085 1274.66 165.35C1277.06 166.598 1278.97 167.308 1280.39 167.479C1281.75 167.652 1283.13 167.566 1284.46 167.224C1285.55 166.962 1286.55 166.407 1287.34 165.623C1287.94 164.951 1288.29 164.089 1288.31 163.189C1288.35 162.636 1288.25 162.083 1288.02 161.575C1287.8 161.067 1287.46 160.619 1287.02 160.268C1285.95 159.405 1284.77 158.678 1283.52 158.104C1282.1 157.425 1280.53 156.718 1278.81 155.983C1277.2 155.3 1275.65 154.471 1274.2 153.507C1272.89 152.642 1271.73 151.573 1270.77 150.342C1269.88 149.213 1269.27 147.894 1268.99 146.491C1268.71 145.144 1268.59 143.769 1268.64 142.394C1268.76 140.723 1269.17 139.085 1269.84 137.547C1270.7 135.589 1272.09 133.901 1273.86 132.668C1275.77 131.248 1278.35 130.482 1281.6 130.351C1284.24 130.232 1286.88 130.458 1289.46 131.023C1289.31 134.246 1289.87 137.464 1291.1 140.456C1290.17 140.007 1289.21 139.619 1288.23 139.295C1286.68 138.72 1285.04 138.426 1283.39 138.429C1282.47 138.432 1281.55 138.592 1280.68 138.901C1280.22 139.091 1279.81 139.374 1279.46 139.732C1279.18 140.051 1278.93 140.404 1278.73 140.784C1278.53 141.206 1278.37 141.65 1278.27 142.107C1278.15 142.678 1278.11 143.262 1278.15 143.844C1278.21 144.369 1278.38 144.876 1278.66 145.33C1278.93 145.783 1279.3 146.172 1279.75 146.469C1280.8 147.285 1281.98 147.928 1283.24 148.372C1284.56 148.857 1286.26 149.537 1288.34 150.411C1290.22 151.154 1292.01 152.117 1293.66 153.279C1295.13 154.388 1296.3 155.843 1297.05 157.51C1297.89 159.265 1298.3 161.186 1298.26 163.122Z" fill="white"/>
</g>
<g clip-path="url(#clip14_185_2330)">
<path fill-rule="evenodd" clip-rule="evenodd" d="M1599.61 138.212C1600.08 138.699 1600.45 139.276 1600.69 139.909C1600.93 140.542 1601.04 141.216 1601 141.891L1601 142.021C1600.97 142.678 1600.81 143.323 1600.53 143.919C1600.25 144.514 1599.85 145.049 1599.35 145.492C1598.86 145.96 1598.28 146.323 1597.64 146.56C1596.99 146.796 1596.31 146.9 1595.63 146.865C1594.26 146.825 1592.97 146.256 1592.02 145.282C1591.08 144.307 1590.56 143.005 1590.58 141.657L1590.59 141.527C1590.6 140.852 1590.75 140.186 1591.03 139.572C1591.32 138.957 1591.73 138.407 1592.23 137.954C1592.73 137.487 1593.32 137.124 1593.97 136.889C1594.61 136.653 1595.3 136.549 1595.99 136.582C1596.67 136.595 1597.35 136.746 1597.97 137.027C1598.59 137.307 1599.15 137.71 1599.61 138.212Z" fill="#EB5C60"/>
<path fill-rule="evenodd" clip-rule="evenodd" d="M1784.62 184.406L1784.33 192.762L1758.7 191.867L1760.25 147.452L1770.67 147.816L1769.41 183.875L1784.62 184.406ZM1735.71 146.595L1752.18 191.64L1742.28 191.294L1739.09 181.653L1720.66 181.01L1716.77 190.403L1707.1 190.065L1726.62 146.277L1735.71 146.595ZM1723.8 173.377L1736.49 173.82L1730.77 156.604L1723.8 173.377ZM1691.92 145.066L1702.22 145.425L1700.67 189.841L1692.12 189.542L1670.65 161.821L1669.71 188.76L1659.37 188.399L1660.93 143.983L1669.53 144.284L1690.98 172.004L1691.92 145.066ZM1633.84 151.035C1631.8 150.937 1629.75 151.212 1627.81 151.846C1626.05 152.429 1624.43 153.367 1623.06 154.601C1621.69 155.823 1620.61 157.323 1619.89 158.999C1619.11 160.818 1618.69 162.767 1618.65 164.742C1618.55 166.705 1618.83 168.67 1619.48 170.528C1620.1 172.252 1621.07 173.83 1622.34 175.166C1623.6 176.5 1625.13 177.558 1626.83 178.272C1628.7 179.041 1630.7 179.457 1632.73 179.499C1634.77 179.572 1636.81 179.308 1638.77 178.717C1639.49 178.493 1640.21 178.214 1640.89 177.884L1641.35 164.854L1650.85 165.185L1650.22 183.173C1647.58 184.957 1644.65 186.275 1641.55 187.067C1638.38 187.924 1635.11 188.306 1631.83 188.202C1628.49 188.121 1625.21 187.429 1622.13 186.162C1619.26 185.002 1616.65 183.292 1614.46 181.13C1612.35 178.977 1610.69 176.432 1609.58 173.642C1608.45 170.684 1607.94 167.53 1608.09 164.373C1608.13 163.045 1608.28 161.723 1608.53 160.418C1609.52 159.74 1610.47 158.99 1611.35 158.174C1614.86 155.024 1617.23 150.828 1618.09 146.225C1619.82 145.11 1621.68 144.222 1623.64 143.583C1626.84 142.548 1630.21 142.098 1633.57 142.257C1637.26 142.375 1640.9 143.165 1644.3 144.588C1645.29 144.988 1646.25 145.449 1647.18 145.971C1647.5 146.152 1648.09 146.524 1648.95 147.082L1648.62 156.571C1647.23 155.487 1645.77 154.507 1644.24 153.639C1643.23 153.12 1642.18 152.684 1641.09 152.338C1639.94 151.971 1638.76 151.683 1637.56 151.477C1636.33 151.238 1635.09 151.091 1633.84 151.035ZM1589.82 163.423C1591.55 163.868 1593.32 164.12 1595.11 164.175C1596.83 164.24 1598.55 164.125 1600.24 163.832L1599.45 186.306L1589.03 185.942L1589.82 163.423ZM1581.93 173.028C1581.82 175.272 1581.13 177.45 1579.93 179.357C1578.51 181.705 1576.37 183.536 1573.81 184.577C1570.84 185.844 1567.58 186.318 1564.37 185.949C1560.85 185.611 1558.01 184.912 1555.85 183.853C1554.28 183.134 1552.79 182.243 1551.42 181.197L1551.79 170.433C1553.71 172.364 1555.91 173.991 1558.33 175.256C1560.73 176.504 1562.64 177.214 1564.06 177.385C1565.42 177.558 1566.81 177.472 1568.14 177.13C1569.23 176.868 1570.22 176.313 1571.01 175.529C1571.62 174.857 1571.96 173.995 1571.98 173.095C1572.02 172.542 1571.92 171.989 1571.7 171.481C1571.47 170.973 1571.13 170.525 1570.7 170.174C1569.62 169.311 1568.45 168.584 1567.19 168.01C1565.77 167.331 1564.2 166.624 1562.48 165.889C1560.87 165.206 1559.33 164.377 1557.87 163.413C1556.56 162.548 1555.41 161.479 1554.45 160.248C1553.56 159.119 1552.95 157.8 1552.67 156.397C1552.38 155.05 1552.26 153.675 1552.31 152.3C1552.43 150.629 1552.84 148.991 1553.51 147.453C1554.38 145.495 1555.77 143.807 1557.53 142.574C1559.45 141.154 1562.02 140.388 1565.27 140.257C1567.91 140.138 1570.56 140.364 1573.14 140.929C1572.99 144.152 1573.55 147.37 1574.77 150.362C1573.84 149.913 1572.88 149.525 1571.9 149.201C1570.35 148.626 1568.71 148.332 1567.06 148.335C1566.14 148.338 1565.22 148.498 1564.36 148.807C1563.9 148.997 1563.48 149.28 1563.14 149.638C1562.85 149.957 1562.6 150.31 1562.41 150.69C1562.2 151.112 1562.05 151.556 1561.95 152.013C1561.82 152.584 1561.78 153.168 1561.83 153.75C1561.88 154.275 1562.06 154.782 1562.33 155.236C1562.61 155.689 1562.98 156.078 1563.42 156.375C1564.47 157.191 1565.65 157.834 1566.92 158.278C1568.23 158.763 1569.93 159.443 1572.02 160.317C1573.9 161.06 1575.68 162.023 1577.33 163.185C1578.8 164.294 1579.97 165.749 1580.73 167.416C1581.56 169.171 1581.97 171.092 1581.93 173.028Z" fill="white"/>
</g>
<g clip-path="url(#clip15_185_2330)">
<path fill-rule="evenodd" clip-rule="evenodd" d="M1883.28 148.118C1883.76 148.605 1884.13 149.182 1884.37 149.815C1884.61 150.448 1884.71 151.122 1884.68 151.797L1884.67 151.927C1884.64 152.584 1884.48 153.229 1884.2 153.825C1883.92 154.421 1883.52 154.955 1883.03 155.398C1882.54 155.866 1881.95 156.23 1881.31 156.466C1880.67 156.702 1879.99 156.806 1879.3 156.771C1877.94 156.731 1876.64 156.162 1875.7 155.188C1874.75 154.213 1874.23 152.911 1874.25 151.563L1874.26 151.433C1874.27 150.758 1874.42 150.092 1874.71 149.478C1874.99 148.863 1875.4 148.313 1875.91 147.861C1876.41 147.393 1877 147.031 1877.64 146.795C1878.29 146.559 1878.97 146.455 1879.66 146.488C1880.35 146.501 1881.02 146.653 1881.64 146.933C1882.27 147.213 1882.82 147.617 1883.28 148.118Z" fill="#EB5C60"/>
<path fill-rule="evenodd" clip-rule="evenodd" d="M2068.29 194.312L2068 202.668L2042.37 201.773L2043.92 157.358L2054.34 157.722L2053.08 193.781L2068.29 194.312ZM2019.39 156.501L2035.86 201.546L2025.96 201.2L2022.76 191.559L2004.34 190.916L2000.44 200.309L1990.77 199.972L2010.29 156.183L2019.39 156.501ZM2007.48 183.283L2020.16 183.726L2014.44 166.51L2007.48 183.283ZM1975.59 154.972L1985.9 155.332L1984.34 199.747L1975.79 199.448L1954.32 171.728L1953.38 198.666L1943.05 198.305L1944.6 153.89L1953.21 154.19L1974.65 181.91L1975.59 154.972ZM1917.52 160.942C1915.47 160.843 1913.43 161.118 1911.48 161.752C1909.72 162.335 1908.1 163.273 1906.73 164.507C1905.36 165.729 1904.28 167.23 1903.56 168.906C1902.78 170.724 1902.36 172.673 1902.33 174.648C1902.22 176.612 1902.51 178.576 1903.16 180.434C1903.78 182.158 1904.75 183.737 1906.01 185.072C1907.27 186.406 1908.8 187.464 1910.5 188.178C1912.38 188.947 1914.38 189.364 1916.41 189.405C1918.45 189.479 1920.49 189.214 1922.44 188.623C1923.17 188.399 1923.88 188.12 1924.57 187.79L1925.02 174.76L1934.52 175.092L1933.89 193.079C1931.25 194.863 1928.32 196.181 1925.22 196.974C1922.06 197.83 1918.78 198.213 1915.5 198.109C1912.17 198.027 1908.88 197.335 1905.8 196.068C1902.93 194.909 1900.33 193.198 1898.13 191.036C1896.02 188.884 1894.36 186.339 1893.25 183.548C1892.12 180.59 1891.62 177.436 1891.76 174.279C1891.81 172.952 1891.95 171.629 1892.2 170.324C1893.2 169.646 1894.14 168.896 1895.03 168.08C1898.53 164.93 1900.9 160.734 1901.77 156.132C1903.49 155.017 1905.36 154.128 1907.32 153.49C1910.52 152.454 1913.88 152.005 1917.25 152.163C1920.94 152.281 1924.57 153.071 1927.97 154.494C1928.96 154.894 1929.92 155.356 1930.85 155.877C1931.17 156.058 1931.76 156.431 1932.62 156.988L1932.29 166.477C1930.91 165.394 1929.44 164.413 1927.91 163.545C1926.9 163.026 1925.85 162.591 1924.77 162.244C1923.61 161.877 1922.43 161.589 1921.24 161.383C1920.01 161.145 1918.77 160.997 1917.52 160.942ZM1873.49 173.329C1875.22 173.774 1877 174.027 1878.78 174.081C1880.5 174.147 1882.22 174.032 1883.91 173.738L1883.13 196.212L1872.71 195.849L1873.49 173.329ZM1865.6 182.935C1865.49 185.178 1864.8 187.357 1863.6 189.263C1862.19 191.611 1860.04 193.443 1857.48 194.483C1854.51 195.751 1851.26 196.224 1848.04 195.855C1844.53 195.517 1841.69 194.818 1839.53 193.76C1837.95 193.04 1836.46 192.149 1835.09 191.103L1835.47 180.339C1837.38 182.27 1839.59 183.897 1842 185.162C1844.4 186.411 1846.31 187.12 1847.73 187.291C1849.1 187.465 1850.48 187.378 1851.81 187.036C1852.9 186.774 1853.89 186.22 1854.68 185.435C1855.29 184.763 1855.63 183.901 1855.66 183.001C1855.69 182.449 1855.6 181.895 1855.37 181.387C1855.15 180.879 1854.8 180.431 1854.37 180.081C1853.3 179.217 1852.12 178.49 1850.87 177.916C1849.45 177.237 1847.87 176.53 1846.16 175.795C1844.55 175.112 1843 174.283 1841.54 173.32C1840.24 172.454 1839.08 171.385 1838.12 170.154C1837.23 169.025 1836.62 167.706 1836.34 166.303C1836.06 164.956 1835.94 163.581 1835.98 162.207C1836.11 160.536 1836.52 158.897 1837.19 157.359C1838.05 155.401 1839.44 153.713 1841.21 152.48C1843.12 151.061 1845.7 150.294 1848.94 150.163C1851.58 150.044 1854.23 150.27 1856.81 150.835C1856.66 154.059 1857.22 157.276 1858.45 160.268C1857.52 159.819 1856.56 159.431 1855.57 159.107C1854.03 158.532 1852.39 158.238 1850.74 158.241C1849.81 158.245 1848.9 158.405 1848.03 158.714C1847.57 158.903 1847.15 159.186 1846.81 159.545C1846.52 159.863 1846.28 160.217 1846.08 160.597C1845.87 161.018 1845.72 161.462 1845.62 161.919C1845.5 162.49 1845.46 163.075 1845.5 163.656C1845.56 164.182 1845.73 164.689 1846 165.142C1846.28 165.595 1846.65 165.984 1847.09 166.282C1848.15 167.098 1849.33 167.74 1850.59 168.185C1851.91 168.669 1853.61 169.349 1855.69 170.223C1857.57 170.966 1859.36 171.929 1861 173.092C1862.48 174.201 1863.64 175.655 1864.4 177.323C1865.24 179.077 1865.65 180.998 1865.6 182.935Z" fill="white"/>
</g>
<defs>
<clipPath id="clip0_185_2330">
<rect width="232.675" height="50.44" fill="white" transform="translate(-177.15 194.621) rotate(-4)"/>
</clipPath>
<clipPath id="clip1_185_2330">
<rect width="232.675" height="50.44" fill="white" transform="translate(105.34 174.867) rotate(-4)"/>
</clipPath>
<clipPath id="clip2_185_2330">
<rect width="232.675" height="50.44" fill="white" transform="translate(387.832 155.113) rotate(-4)"/>
</clipPath>
<clipPath id="clip3_185_2330">
<rect width="232.675" height="50.44" fill="white" transform="translate(670.322 135.359) rotate(-4)"/>
</clipPath>
<clipPath id="clip4_185_2330">
<rect width="232.675" height="50.44" fill="white" transform="translate(952.814 115.606) rotate(-4)"/>
</clipPath>
<clipPath id="clip5_185_2330">
<rect width="232.675" height="50.44" fill="white" transform="translate(1235.3 95.8521) rotate(-4)"/>
</clipPath>
<clipPath id="clip6_185_2330">
<rect width="232.675" height="50.44" fill="white" transform="translate(1517.8 76.0984) rotate(-4)"/>
</clipPath>
<clipPath id="clip7_185_2330">
<rect width="232.675" height="50.44" fill="white" transform="translate(1800.29 56.3445) rotate(-4)"/>
</clipPath>
<clipPath id="clip8_185_2330">
<rect width="233.286" height="50.44" fill="white" transform="translate(-149.127 75.6416) rotate(2)"/>
</clipPath>
<clipPath id="clip9_185_2330">
<rect width="233.286" height="50.44" fill="white" transform="translate(134.545 85.5479) rotate(2)"/>
</clipPath>
<clipPath id="clip10_185_2330">
<rect width="233.286" height="50.44" fill="white" transform="translate(418.219 95.4539) rotate(2)"/>
</clipPath>
<clipPath id="clip11_185_2330">
<rect width="233.286" height="50.44" fill="white" transform="translate(701.893 105.36) rotate(2)"/>
</clipPath>
<clipPath id="clip12_185_2330">
<rect width="233.286" height="50.44" fill="white" transform="translate(985.564 115.266) rotate(2)"/>
</clipPath>
<clipPath id="clip13_185_2330">
<rect width="233.286" height="50.44" fill="white" transform="translate(1269.24 125.172) rotate(2)"/>
</clipPath>
<clipPath id="clip14_185_2330">
<rect width="233.286" height="50.44" fill="white" transform="translate(1552.91 135.078) rotate(2)"/>
</clipPath>
<clipPath id="clip15_185_2330">
<rect width="233.286" height="50.44" fill="white" transform="translate(1836.59 144.984) rotate(2)"/>
</clipPath>
</defs>
</svg>
